<svg id="Layer_1" data-name="Layer 1" xmlns="http://www.w3.org/2000/svg" xmlns:xlink="http://www.w3.org/1999/xlink" viewBox="0 0 2524.78 1540.23"><defs><style>.cls-1{fill:#eaf2fc;}.cls-2{fill:#1b3d9e;}.cls-3{fill:#fc476a;}.cls-4{fill:#f6f9ff;}.cls-5{fill:#d4dfff;}.cls-6{fill:#fff;}.cls-7{fill:#b7c9f7;}.cls-10,.cls-8{fill:#6880e4;}.cls-8{opacity:0.2;}.cls-9{clip-path:url(#clip-path);}.cls-11,.cls-16,.cls-20{fill:#1c056d;}.cls-12{clip-path:url(#clip-path-2);}.cls-13{fill:#d40221;}.cls-14{fill:#fe8e9c;}.cls-15{clip-path:url(#clip-path-3);}.cls-16{opacity:0.47;}.cls-17{clip-path:url(#clip-path-4);}.cls-18{fill:#e57492;}.cls-19{clip-path:url(#clip-path-5);}.cls-20{opacity:0.5;}.cls-21{clip-path:url(#clip-path-6);}.cls-22{fill:#68a9fd;}</style><clipPath id="clip-path" transform="translate(-251 -247.03)"><path class="cls-1" d="M2480.28,1483.61q3.45-6,6.65-12a953.81,953.81,0,0,0,108.25-400c-66.72,61.21-133.84,124.31-190.35,195.05-43.17,54-80.22,114-103.76,178.83,41.46-153.14,63.23-312.13,58.79-470.54-157.56,218.65-263.55,473.61-309.11,739.24L2419,1710c135.45-80.62,240.74-210.65,291.43-359.91C2626.13,1378.53,2546.6,1424,2480.28,1483.61Z"/></clipPath><clipPath id="clip-path-2" transform="translate(-251 -247.03)"><circle class="cls-1" cx="1186.7" cy="870.05" r="376.66"/></clipPath><clipPath id="clip-path-3" transform="translate(-251 -247.03)"><path class="cls-2" d="M2177.14,1462.84s115.78,49.36,60.33,198c-52.23,140-864,74.08-868.32,62.1-5.26-14.43-21.43-129-4.57-135.71s622.27-129.32,622.27-129.32Z"/></clipPath><clipPath id="clip-path-4" transform="translate(-251 -247.03)"><path class="cls-3" d="M2038.69,815.84s130.52,54.58,168.92,133.22-98.76,486.49-124.36,493.81-290.8,12.8-310.92,0-10.17-472.34,17.26-510.75,131-116.28,131-116.28Z"/></clipPath><clipPath id="clip-path-5" transform="translate(-251 -247.03)"><path class="cls-2" d="M2011.91,526.88c20.78,10.75,49.7,56.39,30.5,93.78-21.47,41.81-67.75,84.8-74,85.79s-14.56-48.61-14.56-48.61c44.8-8.93,24.44-53,17.43-52.7s-21,29.13-25.14,23.74c-3.21-4.14,1.63-49.18,4.07-70,0,0-94.34,58.32-155.61,35.41,0,0-29.85-100.95,59.47-121.38S2011.91,526.88,2011.91,526.88Z"/></clipPath><clipPath id="clip-path-6" transform="translate(-251 -247.03)"><path class="cls-2" d="M1490.61,1445.12s695.75-15.15,699.5-8.22,2.46,31.52-4.18,32.68-678.95,15.55-688.19,9.78S1490.61,1445.12,1490.61,1445.12Z"/></clipPath></defs><path class="cls-4" d="M2717.3,1369.53a650.93,650.93,0,0,0,27.61-66.72c59-168.64,33.52-379.09-77.18-523.69-56.15-73.35-134.63-126.49-225.58-145.3-136.48-28.23-269.78,32.19-406.28,24.31-89.13-5.15-173.65-40.28-253.93-79.35-216.82-105.49-422.09-241.73-657.45-304.25C940,225.53,721.65,236,565,355.06c-264.33,200.87-249.3,575.6-136.77,853.68,32.71,80.84,75.73,158.37,131.56,225.6,193.06,232.51,479,319.45,772.13,338.59,255.53,16.69,519.51,7.58,775.51-1.7C2364.27,1761.91,2606.58,1600.25,2717.3,1369.53Z" transform="translate(-251 -247.03)"/><rect class="cls-5" y="850.18" width="472.09" height="212.86" rx="22.03"/><path class="cls-6" d="M32.94,872.82h83.29a2.45,2.45,0,0,1,2.45,2.45v15.66a2.45,2.45,0,0,1-2.45,2.45H32.94a2.46,2.46,0,0,1-2.46-2.46V875.27a2.46,2.46,0,0,1,2.46-2.46Z"/><rect class="cls-7" x="131.33" y="872.82" width="304.26" height="20.57" rx="4.56"/><rect class="cls-6" x="30.48" y="907.09" width="205.56" height="20.57" rx="3.75"/><rect class="cls-6" x="248.32" y="907.09" width="187.26" height="20.57" rx="3.58"/><rect class="cls-7" x="30.48" y="941.37" width="144.95" height="20.57" rx="3.15"/><rect class="cls-8" x="186.18" y="941.37" width="144.95" height="20.57" rx="3.15"/><rect class="cls-6" x="345.72" y="941.37" width="89.87" height="20.57" rx="2.48"/><rect class="cls-8" x="30.48" y="975.64" width="405.11" height="20.57" rx="5.26"/><rect class="cls-6" x="30.48" y="1009.92" width="205.56" height="20.57" rx="3.75"/><rect class="cls-7" x="255.85" y="1009.92" width="179.74" height="20.57" rx="3.5"/><rect class="cls-5" y="224.91" width="359.38" height="593.39" rx="21.72"/><rect class="cls-7" x="29.37" y="254.87" width="300.65" height="21.69" rx="4.1"/><rect class="cls-4" x="29.37" y="289.61" width="300.65" height="21.69" rx="4.1"/><rect class="cls-8" x="29.37" y="324.35" width="206.96" height="21.69" rx="3.4"/><rect class="cls-4" x="29.37" y="359.09" width="300.65" height="21.69" rx="4.1"/><rect class="cls-4" x="169.4" y="393.82" width="160.61" height="21.69" rx="2.99"/><rect class="cls-8" x="29.37" y="393.82" width="123.94" height="21.69" rx="2.63"/><rect class="cls-4" x="29.37" y="428.56" width="300.65" height="21.69" rx="4.1"/><rect class="cls-4" x="29.37" y="463.3" width="300.65" height="21.69" rx="4.1"/><rect class="cls-8" x="29.37" y="498.03" width="300.65" height="21.69" rx="4.1"/><rect class="cls-4" x="29.37" y="532.77" width="300.65" height="21.69" rx="4.1"/><rect class="cls-4" x="29.37" y="567.51" width="95.4" height="21.69" rx="2.31"/><rect class="cls-8" x="146.63" y="567.51" width="115.59" height="21.69" rx="2.54"/><rect class="cls-4" x="29.37" y="602.25" width="300.65" height="21.69" rx="4.1"/><rect class="cls-7" x="29.37" y="636.98" width="260.89" height="21.69" rx="3.82"/><rect class="cls-4" x="29.37" y="671.72" width="300.65" height="21.69" rx="4.1"/><rect class="cls-8" x="29.37" y="706.46" width="117.26" height="21.69" rx="2.56"/><rect class="cls-7" x="158.49" y="706.46" width="171.53" height="21.69" rx="3.09"/><rect class="cls-4" x="29.37" y="741.19" width="300.65" height="21.69" rx="4.1"/><rect class="cls-4" x="29.37" y="775.93" width="300.65" height="21.69" rx="4.1"/><path class="cls-1" d="M2480.28,1483.61q3.45-6,6.65-12a953.81,953.81,0,0,0,108.25-400c-66.72,61.21-133.84,124.31-190.35,195.05-43.17,54-80.22,114-103.76,178.83,41.46-153.14,63.23-312.13,58.79-470.54-157.56,218.65-263.55,473.61-309.11,739.24L2419,1710c135.45-80.62,240.74-210.65,291.43-359.91C2626.13,1378.53,2546.6,1424,2480.28,1483.61Z" transform="translate(-251 -247.03)"/><g class="cls-9"><path class="cls-10" d="M2264.11,1704.07l.88-1.78c13.17-26.39,322.79-646.77,355.18-679.16a1.1,1.1,0,0,1,1.56,1.56c-31.29,31.29-334.82,638.65-353.86,676.76,54.48-7.31,170.45-101.42,258.7-179.63,96.91-85.89,182.18-171.65,183-172.5a1.1,1.1,0,1,1,1.57,1.55c-.85.86-86.17,86.66-183.13,172.59-57,50.49-106.75,91.14-148,120.84-51.65,37.2-90,57.25-114,59.58Z" transform="translate(-251 -247.03)"/><path class="cls-10" d="M2178.58,1733.36a1.1,1.1,0,0,1-1.1-1.08c-.81-41.11,29.46-181.09,89.95-416,45-175,90.91-340,91.37-341.6a1.11,1.11,0,1,1,2.13.59c-.46,1.65-46.33,166.63-91.37,341.57-41.55,161.4-90.88,364.49-89.88,415.45a1.1,1.1,0,0,1-1.08,1.12Z" transform="translate(-251 -247.03)"/></g><rect class="cls-11" x="816.99" y="1169.97" width="95.5" height="50.32" transform="translate(836.18 -510.2) rotate(44.56)"/><circle class="cls-1" cx="935.7" cy="623.02" r="376.66"/><g class="cls-12"><path class="cls-8" d="M896.76,1034.89c-72.75-9.92-138.74.3-138.84,0-.22-.71-1.93-264-1.93-264L1311.42,795,808.66,717.14,912.78,497.87l704,135.65-48.06,379.2h-287.5l285.88,34.06-93.64,180.35-535.54,4.77L800.76,1071.66l317-22.32S996.29,1048.47,896.76,1034.89Z" transform="translate(-251 -247.03)"/></g><path class="cls-2" d="M876.64,1184.91a440.69,440.69,0,1,1,146.94,95.94A439.07,439.07,0,0,1,876.64,1184.91Zm571.21-580a372.2,372.2,0,1,0,111,262.33A369.72,369.72,0,0,0,1447.85,604.87Z" transform="translate(-251 -247.03)"/><path class="cls-2" d="M592.37,1539.27l-65.68-64.68a30.56,30.56,0,0,1-.33-43.21l252.19-256.09a30.56,30.56,0,0,1,43.21-.33l65.68,64.67a30.56,30.56,0,0,1,.33,43.21l-252.2,256.1A30.55,30.55,0,0,1,592.37,1539.27Z" transform="translate(-251 -247.03)"/><path class="cls-11" d="M1186.62,1280.3A410.66,410.66,0,1,1,1479,1157.91l-1.81-1.79,1.81,1.79a409.06,409.06,0,0,1-289.16,122.38Zm.17-815.4h-3.19a407.83,407.83,0,1,0,3.19,0Z" transform="translate(-251 -247.03)"/><path class="cls-11" d="M636.19,1528.58l-99.48-98a12.27,12.27,0,0,1-.14-17.35l7.88-8a12.26,12.26,0,0,1,17.35-.13l99.48,98a12.26,12.26,0,0,1,.13,17.35l-7.87,8A12.27,12.27,0,0,1,636.19,1528.58Z" transform="translate(-251 -247.03)"/><ellipse class="cls-5" cx="1396.07" cy="1463.8" rx="936.68" ry="76.44"/><path class="cls-13" d="M1789.59,932.12s-41.5,49.41-64.29,132c-21,76.24-82.42,357.72-82.42,357.72h157.45Z" transform="translate(-251 -247.03)"/><path class="cls-2" d="M1180.81,1566.13s-28.25-1-42.8,15c-14,15.47-17.65,57.94,3.89,88.89,0,0,15.08,16.07,37.58,22.71,0,0-19.19-44.57-18.44-74.8S1180.81,1566.13,1180.81,1566.13Z" transform="translate(-251 -247.03)"/><path class="cls-11" d="M1162,1674c-23.92-38.63-17.23-111.5,18.82-107.82,52,5.31,187.77,47.94,187.77,47.94l8,87.31s-121.12,6.23-193.67-7.59C1173.11,1691.93,1167.15,1682.28,1162,1674Z" transform="translate(-251 -247.03)"/><path class="cls-14" d="M1366.17,1622.26s-58.85-18.44-65,0-1.42,51.54,14.39,61.21,55,3.62,55,3.62Z" transform="translate(-251 -247.03)"/><path class="cls-11" d="M1509.83,1449.23s-71.36-9.16-105.89,57.15c-31.85,61.16-1.85,163.45,125.59,174.54s478.37-17.55,478.37-17.55V1473.88Z" transform="translate(-251 -247.03)"/><path class="cls-2" d="M2177.14,1462.84s115.78,49.36,60.33,198c-52.23,140-864,74.08-868.32,62.1-5.26-14.43-21.43-129-4.57-135.71s622.27-129.32,622.27-129.32Z" transform="translate(-251 -247.03)"/><g class="cls-15"><path class="cls-16" d="M1762.57,1485.65s150.16,37.6,280.36,29.74,190.89-34.67,190.89-34.67l-32.11-31.49-418.12,8.67Z" transform="translate(-251 -247.03)"/><path class="cls-11" d="M1357.1,1657.35a2.46,2.46,0,0,1,0-4.91c1.81,0,183.93-4.19,385.82-17.15,267-17.15,447.17-41.85,521-71.43a2.45,2.45,0,1,1,1.83,4.55c-41.51,16.64-115.15,31.66-218.85,44.65-82.85,10.38-185,19.51-303.67,27.13-202,13-384.2,17.12-386,17.16Z" transform="translate(-251 -247.03)"/></g><path class="cls-3" d="M2038.69,815.84s130.52,54.58,168.92,133.22-98.76,486.49-124.36,493.81-290.8,12.8-310.92,0-10.17-472.34,17.26-510.75,131-116.28,131-116.28Z" transform="translate(-251 -247.03)"/><g class="cls-17"><path class="cls-14" d="M1964.5,1061.3a2.61,2.61,0,0,1,2.57-2.62c15.34-.28,94.24-1.51,99.38,2.66,5.69,4.61-1.56,133.81-10.79,134.47s-85.69,4.62-88.33-2C1964.92,1187.8,1964.55,1079.47,1964.5,1061.3Z" transform="translate(-251 -247.03)"/></g><path class="cls-14" d="M1985.77,543.43c-17.13-18.23-77.23-36.12-124.44-24.82-26.61,6.38-46.53,28.55-51,55.55-5.55,33.61-10.57,67.39-12.76,101.41-1.84,28.41-5.07,65.22,9.59,91.1,9.64,17,33.77,18.33,51.11,18.61,2.89.05,30.26-2.73,29.61-6.53,6.23,36.57,27.88,119.46,31.6,130.51,5.22,15.52,107.45-43,123.82-63.41s-74.87-139.4-74.87-139.4C1977.45,681,2009.59,568.79,1985.77,543.43Z" transform="translate(-251 -247.03)"/><path class="cls-18" d="M1860,610.34s-39.58,55.91-30.49,61.57,37.32-8.27,37.32-8.27h0a10,10,0,0,1-6.42,8.77c-10.67,4.06-31.41,11-36.08,2.53C1816.12,660,1860,610.34,1860,610.34Z" transform="translate(-251 -247.03)"/><path class="cls-18" d="M1887.9,778.75s24.4-15.18,38-33.4c0,0,7.71,56.26-28.24,79.35Z" transform="translate(-251 -247.03)"/><path class="cls-2" d="M2011.91,526.88c20.78,10.75,49.7,56.39,30.5,93.78-21.47,41.81-67.75,84.8-74,85.79s-14.56-48.61-14.56-48.61c44.8-8.93,24.44-53,17.43-52.7s-21,29.13-25.14,23.74c-3.21-4.14,1.63-49.18,4.07-70,0,0-94.34,58.32-155.61,35.41,0,0-29.85-100.95,59.47-121.38S2011.91,526.88,2011.91,526.88Z" transform="translate(-251 -247.03)"/><g class="cls-19"><path class="cls-20" d="M1782.21,573.26c8.52-.19,115.94-22.51,124.56-24.43s-11,20.6,1.44,15.81,55.09-19.16,56.53-16.77-18.56,81-18.56,81-8.75-57-10.18-56.57-80.49,43.59-109.24,44.07-40.24-3.83-42.64-19.64S1782.21,573.26,1782.21,573.26Z" transform="translate(-251 -247.03)"/></g><path class="cls-11" d="M1890.13,694.11l-13.47-4.31a1.58,1.58,0,1,0-1,3l4.7,1.5c-5.05,29.26-56.52,27.9-57,27.88a1.56,1.56,0,0,0-1.63,1.53,1.58,1.58,0,0,0,1.53,1.63c.11,0,.73,0,1.76,0a115.31,115.31,0,0,0,26.06-3.07c18.72-4.59,29.88-13.94,32.34-27l5.74,1.84a1.66,1.66,0,0,0,.48.08,1.58,1.58,0,0,0,.49-3.09Z" transform="translate(-251 -247.03)"/><path class="cls-6" d="M1958.39,611.84l-30.53,2.09a28.63,28.63,0,0,0-54.87-8.57c-10.39-6-18.53-3.91-23-1.66a28.65,28.65,0,1,0,.28,5.31c2.31-1.7,10-6,21.21,1a28.13,28.13,0,0,0-.78,6.53,28.62,28.62,0,0,0,57.16,2.15l30.82-2.12a2.37,2.37,0,1,0-.32-4.73Z" transform="translate(-251 -247.03)"/><path class="cls-6" d="M1926.57,911.75l19.23,29.07a29.31,29.31,0,0,0,44.51,5.24c30.6-28.77,76-79.82,65.94-122.15l-17.56-8.07S1982.83,898.41,1926.57,911.75Z" transform="translate(-251 -247.03)"/><path class="cls-6" d="M1919.5,909.26,1895.86,928A19.14,19.14,0,0,1,1865,915.73c-3.22-22.63-4.09-52.91,8.22-74.8l25-13.55Z" transform="translate(-251 -247.03)"/><circle class="cls-13" cx="1914.27" cy="993.84" r="12.31" transform="translate(-393.07 1397.65) rotate(-45)"/><circle class="cls-13" cx="1660.03" cy="837.56" r="12.31"/><circle class="cls-13" cx="1655.3" cy="928.31" r="12.31"/><circle class="cls-13" cx="1650.96" cy="1019.07" r="12.31"/><circle class="cls-13" cx="1650.96" cy="1109.82" r="12.31"/><path class="cls-3" d="M2207.61,949.06s102.6,238.59,91.67,364.27c-7.91,90.93-408.05,149.51-408.05,149.51l-44.35-71.5,296.7-145.23S2028.89,988.51,2207.61,949.06Z" transform="translate(-251 -247.03)"/><path class="cls-13" d="M1942.48,1344.55l201.1-98.44s-50.71-104.57-40-173.83c0,0-27.34,102.09,16.74,163.24C2120.29,1235.52,1946.19,1335.63,1942.48,1344.55Z" transform="translate(-251 -247.03)"/><path class="cls-13" d="M2207.61,949.06s-83.4-17.63-104.06,123.22c0,0-8-133.83,94.18-140.16Z" transform="translate(-251 -247.03)"/><path class="cls-13" d="M2098.65,1420.53l-122.26,25.55s92.17,2.2,106.86-3.21C2083.25,1442.87,2095.83,1432,2098.65,1420.53Z" transform="translate(-251 -247.03)"/><path class="cls-2" d="M1490.61,1445.12s695.75-15.15,699.5-8.22,2.46,31.52-4.18,32.68-678.95,15.55-688.19,9.78S1490.61,1445.12,1490.61,1445.12Z" transform="translate(-251 -247.03)"/><g class="cls-21"><path class="cls-11" d="M1934,1427.63s3.53,51.72,0,53.09-432,9.94-443.63,4.43-15.71-43.09-7.48-45.66S1934,1427.63,1934,1427.63" transform="translate(-251 -247.03)"/></g><path class="cls-10" d="M1312.75,1170.82a4.21,4.21,0,0,1,3.78-6c55.34-.59,449.28-4.59,461.88,1.78,13.55,6.85,162.24,268.32,155.39,272.89s-428.55,11.28-443.19,5.63C1464.41,1435,1340.52,1230.29,1312.75,1170.82Z" transform="translate(-251 -247.03)"/><ellipse class="cls-6" cx="1631.02" cy="1322.83" rx="31.16" ry="35.56" transform="translate(-718.89 1007.29) rotate(-37.17)"/><rect class="cls-6" x="795.15" y="474.28" width="264.53" height="479.98" rx="59.78" transform="translate(1390.68 -460.18) rotate(90)"/><rect class="cls-22" x="456.69" y="355.24" width="439.45" height="223.99" rx="39.52"/><path class="cls-6" d="M820,672a6.35,6.35,0,0,1,6.14-5.31,6.8,6.8,0,0,1,3.93,1.15,6.38,6.38,0,0,1,2.59,3.7q2.49,22,3.46,43.53t1.07,43.71a5.9,5.9,0,0,1-1.11,3.37,6.16,6.16,0,0,1-2.54,2,8.49,8.49,0,0,1-3.33.65,8.11,8.11,0,0,1-3.37-.7,7.41,7.41,0,0,1-2.68-2,6.31,6.31,0,0,1-1.39-3.33q-.09-10.44.37-20.47t0-20.47c-.31.12-.65.25-1,.37s-.77.25-1.2.37c-3.45-.06-6.78-.22-10-.46s-6.38-.43-9.52-.56-6.3-.09-9.47.1a60.83,60.83,0,0,0-9.75,1.38l-.92,37a6.07,6.07,0,0,1-2,4.53,6.16,6.16,0,0,1-4,1.48,6.74,6.74,0,0,1-4.11-1.48,6.31,6.31,0,0,1-2.31-4.44V672a5.85,5.85,0,0,1,2.31-3.79,6.4,6.4,0,0,1,3.84-1.15,7.11,7.11,0,0,1,6.61,5.22l.55,34.1a72.32,72.32,0,0,1,9.84-1.11c3.17-.12,6.33-.11,9.47,0s6.32.35,9.52.6,6.53.4,10,.46a2.56,2.56,0,0,0,.65.23,2.44,2.44,0,0,1,.65.23q-.55-9.15-1-17.42T820,672Z" transform="translate(-251 -247.03)"/><path class="cls-6" d="M852.48,680.09a7.24,7.24,0,0,1-4.07-1.75,4.87,4.87,0,0,1-.88-6.52,6.79,6.79,0,0,1,3.56-2.63q9.61-1.2,17.37-1.57t15.16-.33q7.39.06,15.2.37t17.42.42a6.8,6.8,0,0,1,3.7,2.36,5.33,5.33,0,0,1,1.15,3.37,4.91,4.91,0,0,1-1.38,3.23,7.18,7.18,0,0,1-3.93,2q-3.88,0-6.93,0l-6,.1c-1.94,0-3.93.07-6,.14s-4.35.09-6.93.09q.09,9.7.14,19.27t.23,19q.18,9.48.55,19t1.2,19.27a6.5,6.5,0,0,1-1.71,4.34,8.4,8.4,0,0,1-3.69,2.41,6.54,6.54,0,0,1-4.21-.1,5.55,5.55,0,0,1-3.23-3.14q-.93-10-1.07-20t0-20q.18-10,.51-20t.32-20c-2.77.06-5.21.06-7.3,0s-4.11-.11-6-.14-4,0-6,.09S855.25,679.73,852.48,680.09Z" transform="translate(-251 -247.03)"/><path class="cls-6" d="M984.45,755c-1.3,2.22-2.59,3.56-3.89,4a4.64,4.64,0,0,1-3.55,0,6.8,6.8,0,0,1-2.73-2.12,10.84,10.84,0,0,1-1.48-2.36,81.45,81.45,0,0,1-3.19-9.1q-1.51-5.22-3-11c-1-3.89-1.95-7.87-3-12s-2.07-8.06-3.14-11.88-2.22-7.41-3.42-10.76a54.05,54.05,0,0,0-3.93-8.74,140.79,140.79,0,0,0-3.47,16.17q-1.25,8.15-2,16.32t-1.39,16.31q-.6,8.13-1.61,16.17a8.29,8.29,0,0,1-2.08,4.9,5.33,5.33,0,0,1-3.7,1.62,7,7,0,0,1-4.16-1.39A10.23,10.23,0,0,1,931.4,757q.36-11.36,1.66-23.1t3-22.73q1.71-11,3.55-20.75t3.24-17a6.42,6.42,0,0,1,2.82-3.19,10.08,10.08,0,0,1,4.29-1.34,11.72,11.72,0,0,1,4.49.51,5.5,5.5,0,0,1,3.18,2.36A77.44,77.44,0,0,1,966.47,687a141.18,141.18,0,0,1,6,16.17q2.4,8,4,15.39t3.19,12.89q2-8.79,4.85-17.38t5.59-16.22q2.77-7.62,5.13-13.86a98.31,98.31,0,0,0,3.38-10.3,7.28,7.28,0,0,1,2.31-3.7,8,8,0,0,1,3.83-2,6.17,6.17,0,0,1,4,.51,5.59,5.59,0,0,1,2.73,3.7q1.67,11.28,3.84,22t4.29,21.21q2.13,10.44,4,20.79t2.68,20.7a5.6,5.6,0,0,1-1.34,4.67,5.49,5.49,0,0,1-3.75,1.71,6.79,6.79,0,0,1-4.2-1.34,6.94,6.94,0,0,1-2.73-4.57q-1.85-8.13-3.46-15.85t-3-15.34q-1.38-7.63-2.54-15.39t-2.08-16q-2,7.3-3.88,14.65t-3.93,14.79q-2.07,7.44-4.71,15.11T984.45,755Z" transform="translate(-251 -247.03)"/><path class="cls-6" d="M1043.87,673.53a5.63,5.63,0,0,1,2.49-3.79,7.3,7.3,0,0,1,4.26-1.1,8.4,8.4,0,0,1,4.38,1.47,6.83,6.83,0,0,1,2.82,3.89q0,10.35-.18,20t-.42,19.08q-.23,9.48-.41,19.13t-.28,20a100.53,100.53,0,0,0,11,.92q5.88.2,11.93.14t11.92-.23q5.86-.18,11.13-.18a6.79,6.79,0,0,1,3.7,2.35,5.3,5.3,0,0,1,1.15,3.38,4.91,4.91,0,0,1-1.38,3.23,7.17,7.17,0,0,1-3.93,2q-5.82,0-12.57.37c-4.5.25-9,.43-13.68.56s-9.16.14-13.63,0a99.93,99.93,0,0,1-12.43-1,5,5,0,0,1-4.11-1,6.68,6.68,0,0,1-2.45-4.76q0-10.9.09-21.39t.24-20.89q.14-10.39.23-20.88T1043.87,673.53Z" transform="translate(-251 -247.03)"/><rect class="cls-6" x="1267.03" y="747.85" width="189.52" height="331.17" rx="38.45" transform="translate(2024.23 -695.38) rotate(90)"/><rect class="cls-22" x="961.26" y="587.71" width="299.06" height="157.41" rx="22.39"/><path class="cls-6" d="M1267.15,888a5.73,5.73,0,0,1-3.22-1.39,3.84,3.84,0,0,1-.7-5.16,5.37,5.37,0,0,1,2.82-2.09c2-.14,4.21-.34,6.62-.58s4.84-.4,7.25-.48a51.58,51.58,0,0,1,7,.26,18.28,18.28,0,0,1,5.86,1.54,5.74,5.74,0,0,1,2.45,3.25,5.4,5.4,0,0,1-.11,3.37,3.78,3.78,0,0,1-2.12,2.16,4.49,4.49,0,0,1-3.73-.37,12,12,0,0,0-4.84-.8c.25,2.73.58,5.74,1,9s.82,6.67,1.21,10.21.7,7.11.92,10.72.25,7.13.11,10.54a57.66,57.66,0,0,1-1.21,9.7,28.61,28.61,0,0,1-3,8.17,11.6,11.6,0,0,1-4.25,4.21,18.58,18.58,0,0,1-6,2.19,26,26,0,0,1-6.81.37,31.63,31.63,0,0,1-6.85-1.25,26.1,26.1,0,0,1-6-2.63,14.64,14.64,0,0,1-4.35-3.84,12.69,12.69,0,0,1-1.9-3.74,25.66,25.66,0,0,1-1-4.24,38.44,38.44,0,0,1-.41-4.36c0-1.44-.09-2.82-.14-4.14a4.67,4.67,0,0,1,1.86-3,5.38,5.38,0,0,1,3.12-1,5.75,5.75,0,0,1,3.22,1,5.32,5.32,0,0,1,2.12,3c0,2,0,3.63,0,5a11.25,11.25,0,0,0,.33,3.62,5.63,5.63,0,0,0,1.76,2.71,13.84,13.84,0,0,0,4.32,2.27q6.22,2.13,9.59,0c2.24-1.42,3.81-4.29,4.68-8.64a53.54,53.54,0,0,0,1-10.76q0-5.72-.51-11.57t-1.28-11.71q-.78-5.85-1.21-11.27a13.3,13.3,0,0,1-4.18-.08A12.58,12.58,0,0,0,1267.15,888Z" transform="translate(-251 -247.03)"/><path class="cls-6" d="M1300,949.32a53.51,53.51,0,0,0,2.48-7.72q1.17-4.65,2.35-10.21t2.49-11.64c.87-4.06,1.81-8,2.81-12s2.11-7.67,3.34-11.2a56.25,56.25,0,0,1,4.1-9.34,23.27,23.27,0,0,1,5-6.4,9.29,9.29,0,0,1,6.22-2.38c1.32,0,2.62.79,3.92,2.38a30.51,30.51,0,0,1,3.8,6.36q1.88,4,3.74,9.27t3.69,11q1.83,5.78,3.66,11.79t3.63,11.42q1.79,5.41,3.58,9.95a44,44,0,0,0,3.63,7.4,4.65,4.65,0,0,1-.15,3.47,4.7,4.7,0,0,1-5.2,2.71,5.67,5.67,0,0,1-3.22-1.72,50.77,50.77,0,0,1-3.22-5.78c-1-2-1.82-4-2.52-5.93s-1.28-3.62-1.72-5.16a36.17,36.17,0,0,1-.88-3.55c-2.44,0-4.79,0-7,0s-4.47,0-6.66,0l-6.63,0c-2.22,0-4.57-.06-7.06-.11-.59,2.24-1,4.21-1.36,5.89s-.62,3.31-.91,4.87-.66,3.17-1.1,4.83a55.8,55.8,0,0,1-1.9,5.71,5.38,5.38,0,0,1-3,2,4.9,4.9,0,0,1-5.46-2.34A4.71,4.71,0,0,1,1300,949.32Zm28-59.52c-.68-.19-1.37.25-2.05,1.32a22.46,22.46,0,0,0-2,4.39q-1,2.79-1.94,6.37t-1.87,7.25q-.91,3.66-1.72,7t-1.54,5.68c2.1,0,4,.09,5.82.14s3.54.11,5.27.18l5.27.22c1.79.08,3.7.14,5.75.19-1.17-2.88-2.16-5.68-3-8.38s-1.59-5.41-2.35-8.1-1.57-5.36-2.45-8A80.16,80.16,0,0,0,1327.91,889.8Z" transform="translate(-251 -247.03)"/><path class="cls-6" d="M1391.75,953a5.5,5.5,0,0,1-2.27,1.65,4.12,4.12,0,0,1-2.23.18,4.05,4.05,0,0,1-1.94-1,7.64,7.64,0,0,1-1.54-1.86q-6.07-17.28-12.3-33.68T1358.66,885a4.17,4.17,0,0,1,.95-3.37,5.69,5.69,0,0,1,2.93-1.75,6.5,6.5,0,0,1,3.62.14,6.11,6.11,0,0,1,3.11,2.27q2.71,7.47,5.27,14t5,12.88q2.37,6.4,4.61,13.11t4.35,14.6q2.86-7,5.49-13.91t5.09-13.76q2.46-6.89,4.8-13.8t4.68-14a4.46,4.46,0,0,1,2.71-2.2,4.92,4.92,0,0,1,3.22.22,6.07,6.07,0,0,1,2.6,2.2,5.77,5.77,0,0,1,1,3.59q-2.41,8.57-5.49,17T1406,919.05q-3.48,8.46-7.1,16.91T1391.75,953Z" transform="translate(-251 -247.03)"/><path class="cls-6" d="M1425,949.32a52.19,52.19,0,0,0,2.49-7.72q1.17-4.65,2.35-10.21t2.49-11.64c.87-4.06,1.81-8,2.81-12s2.11-7.67,3.33-11.2a57.1,57.1,0,0,1,4.1-9.34,23.48,23.48,0,0,1,5.06-6.4,9.29,9.29,0,0,1,6.22-2.38q2,0,3.91,2.38a30.08,30.08,0,0,1,3.81,6.36q1.88,4,3.73,9.27t3.7,11q1.83,5.78,3.66,11.79t3.63,11.42q1.79,5.41,3.58,9.95a44,44,0,0,0,3.63,7.4,4.65,4.65,0,0,1-.15,3.47,4.72,4.72,0,0,1-5.2,2.71,5.67,5.67,0,0,1-3.22-1.72,50.77,50.77,0,0,1-3.22-5.78q-1.47-3.07-2.52-5.93c-.71-1.9-1.29-3.62-1.72-5.16a36.17,36.17,0,0,1-.88-3.55c-2.44,0-4.79,0-7,0s-4.47,0-6.66,0l-6.63,0c-2.22,0-4.57-.06-7.06-.11-.59,2.24-1,4.21-1.36,5.89s-.62,3.31-.91,4.87-.66,3.17-1.1,4.83a55.8,55.8,0,0,1-1.9,5.71,5.38,5.38,0,0,1-3,2,4.9,4.9,0,0,1-5.46-2.34A4.76,4.76,0,0,1,1425,949.32Zm28-59.52c-.68-.19-1.37.25-2,1.32a22.46,22.46,0,0,0-2,4.39q-1,2.79-1.94,6.37t-1.87,7.25q-.91,3.66-1.72,7t-1.54,5.68c2.1,0,4,.09,5.82.14s3.54.11,5.27.18l5.27.22c1.79.08,3.7.14,5.75.19-1.17-2.88-2.16-5.68-3-8.38s-1.59-5.41-2.35-8.1-1.57-5.36-2.45-8A80.16,80.16,0,0,0,1453,889.8Z" transform="translate(-251 -247.03)"/><rect class="cls-6" x="1319.47" y="455.25" width="208.85" height="371.63" rx="44.44" transform="translate(1813.95 -1029.86) rotate(90)"/><rect class="cls-22" x="1006.96" y="309.49" width="331.86" height="169.08" rx="24.55"/><path class="cls-6" d="M1322.9,606a7,7,0,0,1,.95-4.44,5.34,5.34,0,0,1,2.76-2.27,4.94,4.94,0,0,1,3.4.14,5.45,5.45,0,0,1,2.86,2.86,17.81,17.81,0,0,1,7.61-3,44.12,44.12,0,0,1,10.7-.54,53.75,53.75,0,0,1,11.83,2.13,38,38,0,0,1,11,5.17,28.9,28.9,0,0,1,8.16,8.47,23.19,23.19,0,0,1,3.4,12.06,40.77,40.77,0,0,1-2.27,15.14,34.31,34.31,0,0,1-6.61,11.24,32.4,32.4,0,0,1-9.61,7.35,32.92,32.92,0,0,1-11.06,3.35,29.84,29.84,0,0,1-11.06-.81,25.13,25.13,0,0,1-9.7-5q-.2,3.9-.09,7.48c0,2.39.12,4.74.18,7.07s.12,4.68.18,7.07.06,4.88,0,7.48a6.75,6.75,0,0,1-1.72,4.53,5,5,0,0,1-3.45,1.59,5.26,5.26,0,0,1-3.58-1.36,6.39,6.39,0,0,1-2-4.31q0-10.87,0-21.21t-.22-20.4q-.18-10.07-.55-19.94T1322.9,606Zm12,8.16c.24,3,.43,5.77.55,8.43s.19,5.31.22,7.94,0,5.27,0,7.93-.07,5.47-.13,8.43a7.19,7.19,0,0,1,2.9.27,14.06,14.06,0,0,0,6.34,3.58,20.19,20.19,0,0,0,7.39.55,24.28,24.28,0,0,0,7.44-2.09,23.39,23.39,0,0,0,6.52-4.4,21.82,21.82,0,0,0,4.63-6.34,18,18,0,0,0,1.77-8,16.54,16.54,0,0,0-2-8.2,20.31,20.31,0,0,0-5.21-6.12,24.61,24.61,0,0,0-7.3-4,32.19,32.19,0,0,0-8.25-1.68,27.73,27.73,0,0,0-8.07.64A18.77,18.77,0,0,0,1334.86,614.13Z" transform="translate(-251 -247.03)"/><path class="cls-6" d="M1449,602.62a6.23,6.23,0,0,1,6-5.21,6.61,6.61,0,0,1,3.85,1.13,6.19,6.19,0,0,1,2.54,3.62q2.44,21.58,3.4,42.71t1,42.88a5.81,5.81,0,0,1-1.08,3.31,6.09,6.09,0,0,1-2.5,1.94,8.51,8.51,0,0,1-6.57,0,7.24,7.24,0,0,1-2.63-2,6.2,6.2,0,0,1-1.36-3.26q-.09-10.25.37-20.08t0-20.09c-.31.13-.64.25-1,.37l-1.18.36q-5.09-.09-9.79-.45c-3.14-.24-6.26-.42-9.34-.55s-6.18-.09-9.29.09a60.73,60.73,0,0,0-9.57,1.36L1411,685a5.78,5.78,0,0,1-5.85,5.89,6.5,6.5,0,0,1-4-1.45,6.15,6.15,0,0,1-2.27-4.35v-82.5a5.73,5.73,0,0,1,2.27-3.72,6.28,6.28,0,0,1,3.76-1.13,7,7,0,0,1,6.48,5.12l.54,33.45a69.64,69.64,0,0,1,9.66-1.08c3.11-.13,6.21-.11,9.29,0s6.2.35,9.34.59,6.4.39,9.79.45a2.33,2.33,0,0,0,.63.23,2.27,2.27,0,0,1,.64.23q-.54-9-1-17.09T1449,602.62Z" transform="translate(-251 -247.03)"/><path class="cls-6" d="M1479.1,606a7.1,7.1,0,0,1,1-4.44,5.4,5.4,0,0,1,2.77-2.27,4.94,4.94,0,0,1,3.4.14,5.4,5.4,0,0,1,2.85,2.86,17.91,17.91,0,0,1,7.62-3,44.09,44.09,0,0,1,10.7-.54,53.85,53.85,0,0,1,11.83,2.13,38.15,38.15,0,0,1,11,5.17,29.15,29.15,0,0,1,8.16,8.47,23.38,23.38,0,0,1,3.4,12.06,41,41,0,0,1-2.27,15.14,34.33,34.33,0,0,1-6.62,11.24,32.28,32.28,0,0,1-9.61,7.35,32.79,32.79,0,0,1-11.06,3.35,29.86,29.86,0,0,1-11.06-.81,25.2,25.2,0,0,1-9.7-5q-.18,3.9-.09,7.48c.06,2.39.12,4.74.18,7.07s.12,4.68.18,7.07.06,4.88,0,7.48a6.7,6.7,0,0,1-1.72,4.53,5,5,0,0,1-3.44,1.59,5.29,5.29,0,0,1-3.59-1.36,6.47,6.47,0,0,1-2-4.31q0-10.87,0-21.21t-.23-20.4q-.18-10.07-.54-19.94T1479.1,606Zm12,8.16q.36,4.44.54,8.43t.23,7.94c0,2.62,0,5.27,0,7.93s-.08,5.47-.14,8.43a7.17,7.17,0,0,1,2.9.27,14.09,14.09,0,0,0,6.35,3.58,20.19,20.19,0,0,0,7.39.55,24.22,24.22,0,0,0,7.43-2.09,23.44,23.44,0,0,0,6.53-4.4,21.79,21.79,0,0,0,4.62-6.34,18,18,0,0,0,1.77-8,16.54,16.54,0,0,0-2-8.2,20.21,20.21,0,0,0-5.22-6.12,24.43,24.43,0,0,0-7.29-4,32.19,32.19,0,0,0-8.25-1.68,27.73,27.73,0,0,0-8.07.64A18.7,18.7,0,0,0,1491.07,614.13Z" transform="translate(-251 -247.03)"/><path class="cls-6" d="M923.81,845h102.7a35.75,35.75,0,0,1,35.75,35.75v211.62a35.75,35.75,0,0,1-35.75,35.75H923.81a35.75,35.75,0,0,1-35.75-35.75V880.78A35.74,35.74,0,0,1,923.81,845Z" transform="translate(1710.76 -235.6) rotate(90)"/><rect class="cls-22" x="597.07" y="669.88" width="253.61" height="139.36" rx="16.76"/><path class="cls-6" d="M928,948.21a5.43,5.43,0,0,1,.83-4.05,4.59,4.59,0,0,1,2.75-1.89,4.36,4.36,0,0,1,3.27.63,5.55,5.55,0,0,1,2.36,3.42q.7,4.09,1,8.18t.32,8.35a5.72,5.72,0,0,1-1.69,4,5.91,5.91,0,0,1-3.43,1.61,5.26,5.26,0,0,1-3.54-.9,4.81,4.81,0,0,1-2-3.62v-.63a20.8,20.8,0,0,0-18.53-8.7,26.39,26.39,0,0,0-10,2.84,34.17,34.17,0,0,0-9,6.49,20.37,20.37,0,0,0-4.13,6.06,35.12,35.12,0,0,0-2.44,7.51,44.56,44.56,0,0,0-.91,8.11,52.62,52.62,0,0,0,.44,7.94,38.85,38.85,0,0,0,1.57,7,18.89,18.89,0,0,0,2.56,5.27,19.55,19.55,0,0,0,5.7,5.35,27.41,27.41,0,0,0,7.36,3.19,32.83,32.83,0,0,0,8.15,1.1,33.7,33.7,0,0,0,8.18-.91,27.63,27.63,0,0,0,7.36-2.87,20.1,20.1,0,0,0,5.74-4.84,8.74,8.74,0,0,0,1.57-3.19,26,26,0,0,1,1.18-3.42,5.88,5.88,0,0,1,2.8-2.79,3.19,3.19,0,0,1,2.79.08,5,5,0,0,1,2.09,2.48,9.71,9.71,0,0,1,.74,4.4,16.06,16.06,0,0,1-3.77,10,28.4,28.4,0,0,1-9.33,7.27,45.46,45.46,0,0,1-12.71,4.1,48.1,48.1,0,0,1-14,.39,40.36,40.36,0,0,1-13.1-3.82,26.13,26.13,0,0,1-10.08-8.57,31.14,31.14,0,0,1-3.77-7.6,50.31,50.31,0,0,1-2.33-9.6,67.82,67.82,0,0,1-.66-10.7,59.17,59.17,0,0,1,1.14-10.86,46.58,46.58,0,0,1,3.18-10,30.19,30.19,0,0,1,5.43-8.26,34.26,34.26,0,0,1,6.22-5.12,43.68,43.68,0,0,1,7.79-4,48.53,48.53,0,0,1,8.69-2.52,39.83,39.83,0,0,1,8.9-.71,30,30,0,0,1,8.38,1.5,20.67,20.67,0,0,1,7.16,4.09c-.05-.32-.11-.62-.16-.91S928.06,948.52,928,948.21Z" transform="translate(-251 -247.03)"/><path class="cls-6" d="M1004,964.66a3.71,3.71,0,0,1-.44,3.5,5.12,5.12,0,0,1-2.91,1.85,8.55,8.55,0,0,1-4,0,7.7,7.7,0,0,1-3.78-2.09,16.26,16.26,0,0,0-1.18-5,16.82,16.82,0,0,0-2.75-4.6,15.17,15.17,0,0,0-4.09-3.38,9.55,9.55,0,0,0-5-1.26,13.55,13.55,0,0,0-6.61,1.93,12.83,12.83,0,0,0-4.56,4.64,14.8,14.8,0,0,0-1.89,6.49,15.26,15.26,0,0,0,1.49,7.4c.42,1,1.56,1.76,3.43,2.28s4.07,1.09,6.65,1.69,5.32,1.35,8.26,2.24a32.85,32.85,0,0,1,8.38,3.94,24.28,24.28,0,0,1,10.9,17.63,18.05,18.05,0,0,1-1.06,9.83,19,19,0,0,1-5.47,7.2,26.58,26.58,0,0,1-8.5,4.57,36.74,36.74,0,0,1-10.15,1.81,38.18,38.18,0,0,1-10.39-1,28.47,28.47,0,0,1-9.17-3.89,21.22,21.22,0,0,1-6.57-6.89,19.49,19.49,0,0,1-2.59-10,29.55,29.55,0,0,1,.15-3,8.41,8.41,0,0,1,.71-2.64,5.66,5.66,0,0,1,1.57-2,5.54,5.54,0,0,1,2.76-1.07,4.89,4.89,0,0,1,2.67.55,5,5,0,0,1,1.77,1.7,6.08,6.08,0,0,1,.87,2.51,14,14,0,0,1,0,3.11,9.71,9.71,0,0,0,1,5.94,12,12,0,0,0,3.74,4.1,16.62,16.62,0,0,0,5.35,2.36,19.57,19.57,0,0,0,5.82.59,34.21,34.21,0,0,0,5.75-.83,17.19,17.19,0,0,0,5.27-2.12,11.41,11.41,0,0,0,3.78-3.82,9.61,9.61,0,0,0,1.1-5.9A12.54,12.54,0,0,0,993.2,999a16.27,16.27,0,0,0-2.4-3.81,20.53,20.53,0,0,0-3.39-3.19,12.71,12.71,0,0,0-4-2q-3.15-.94-6.53-1.81c-2.26-.57-4.45-1.23-6.57-2a43,43,0,0,1-6-2.6,20.1,20.1,0,0,1-5-3.7,16.18,16.18,0,0,1-3.42-5.31,20.73,20.73,0,0,1-1.34-7.44,21.27,21.27,0,0,1,1.93-9.52,22.91,22.91,0,0,1,5.31-7.24,24.24,24.24,0,0,1,7.4-4.6,21.85,21.85,0,0,1,8.1-1.61,34,34,0,0,1,10.07,1.41,25.36,25.36,0,0,1,8,4.09,22.11,22.11,0,0,1,5.67,6.5A25.21,25.21,0,0,1,1004,964.66Z" transform="translate(-251 -247.03)"/><path class="cls-6" d="M1063.27,964.66a3.71,3.71,0,0,1-.43,3.5,5.19,5.19,0,0,1-2.91,1.85,8.59,8.59,0,0,1-4.06,0,7.67,7.67,0,0,1-3.77-2.09,16.56,16.56,0,0,0-1.18-5,16.85,16.85,0,0,0-2.76-4.6,15,15,0,0,0-4.09-3.38,9.5,9.5,0,0,0-5-1.26,13.58,13.58,0,0,0-6.61,1.93,12.83,12.83,0,0,0-4.56,4.64,14.8,14.8,0,0,0-1.89,6.49,15.16,15.16,0,0,0,1.5,7.4q.63,1.5,3.42,2.28c1.86.52,4.08,1.09,6.65,1.69s5.32,1.35,8.26,2.24a32.85,32.85,0,0,1,8.38,3.94,24.2,24.2,0,0,1,10.9,17.63,18.05,18.05,0,0,1-1.06,9.83,18.94,18.94,0,0,1-5.47,7.2,26.48,26.48,0,0,1-8.5,4.57,36.67,36.67,0,0,1-10.15,1.81,38.18,38.18,0,0,1-10.39-1,28.41,28.41,0,0,1-9.16-3.89,21.15,21.15,0,0,1-6.58-6.89,19.59,19.59,0,0,1-2.59-10,26.92,26.92,0,0,1,.16-3,8.41,8.41,0,0,1,.7-2.64,5.68,5.68,0,0,1,1.58-2,5.51,5.51,0,0,1,2.75-1.07,4.94,4.94,0,0,1,2.68.55,5.15,5.15,0,0,1,1.77,1.7,6.22,6.22,0,0,1,.86,2.51,13.39,13.39,0,0,1,0,3.11,9.71,9.71,0,0,0,1,5.94,11.82,11.82,0,0,0,3.73,4.1,16.71,16.71,0,0,0,5.35,2.36,19.64,19.64,0,0,0,5.83.59,34.1,34.1,0,0,0,5.74-.83,17.19,17.19,0,0,0,5.27-2.12,11.23,11.23,0,0,0,3.78-3.82,9.54,9.54,0,0,0,1.1-5.9,12.28,12.28,0,0,0-1.06-3.94,15.64,15.64,0,0,0-2.4-3.81,20.46,20.46,0,0,0-3.38-3.19,12.76,12.76,0,0,0-4-2q-3.14-.94-6.53-1.81c-2.25-.57-4.44-1.23-6.57-2a43.51,43.51,0,0,1-6-2.6,20,20,0,0,1-5-3.7,16,16,0,0,1-3.43-5.31,21,21,0,0,1-1.34-7.44,21.4,21.4,0,0,1,1.93-9.52,22.91,22.91,0,0,1,5.31-7.24,24.36,24.36,0,0,1,7.4-4.6,21.9,21.9,0,0,1,8.11-1.61,34,34,0,0,1,10.07,1.41,25.31,25.31,0,0,1,8,4.09,22.11,22.11,0,0,1,5.67,6.5A25,25,0,0,1,1063.27,964.66Z" transform="translate(-251 -247.03)"/><path class="cls-10" d="M2064.07,383.12c16.75-9.14,289.91-54.93,295.44-23.93,0,0,32.94,173.88,16.42,179.89-10.39,3.78-123.18,19-208.45,25.79-17.75,27.73-39.77,56.18-46.4,59.86-7.2,4-3.12-27,2.3-57.1-28.41,1.15-48.4.3-51.42-3.85C2060,547.4,2047.31,392.27,2064.07,383.12Z" transform="translate(-251 -247.03)"/><circle class="cls-6" cx="2304.5" cy="448.84" r="15.49" transform="matrix(0.82, -0.57, 0.57, 0.82, -92.15, 1154.89)"/><path class="cls-6" d="M2207.79,461.25A15.49,15.49,0,1,0,2218.26,442,15.51,15.51,0,0,0,2207.79,461.25Z" transform="translate(-251 -247.03)"/><path class="cls-6" d="M2123,470.14a15.49,15.49,0,1,0,10.46-19.25A15.49,15.49,0,0,0,2123,470.14Z" transform="translate(-251 -247.03)"/><rect class="cls-4" x="288.84" y="559" width="59.12" height="21.69" rx="3.44"/></svg>