<svg xmlns="http://www.w3.org/2000/svg" viewBox="0 0 2606 1725.45"><defs><style>.cls-1{isolation:isolate;}.cls-2{fill:#feefdc;}.cls-3{fill:#fff;}.cls-4{fill:#258d8c;}.cls-5{fill:#49263e;}.cls-6{fill:#3a1f33;}.cls-7{fill:#e8f2fc;}.cls-8{fill:#21111d;}.cls-9{fill:#fe9f73;}.cls-10{fill:#3aa1c9;}.cls-11{fill:#4cb7d8;}.cls-12{fill:#683d46;}.cls-13{fill:#f07162;}.cls-14{fill:#e2f2f1;}.cls-15{fill:#ef3a4c;}.cls-16{fill:#f75553;}.cls-17{fill:#397fa1;}.cls-18{fill:#61a3c5;}.cls-19{fill:#f99247;}.cls-20,.cls-24{fill:#fecc86;}.cls-21{fill:#f3fffe;}.cls-22{fill:#ff424d;}.cls-23{fill:#f46e6e;}.cls-24{opacity:0.3;mix-blend-mode:multiply;}.cls-25{opacity:0.5;}.cls-26{fill:#7fc6a6;}.cls-27{fill:#b9edd6;}.cls-28{fill:#aac9f8;}.cls-29{fill:#febac7;}.cls-30{fill:#5089a0;}.cls-31{fill:#fbfdfc;}</style></defs><g class="cls-1"><g id="Layer_1" data-name="Layer 1"><path class="cls-2" d="M134.22,1620.52c64.75-137.11,52.61-130.26,22.26-254.08s-85-451.63,68.8-720.75S575.34,342.16,670.45,374.54s172,85,335.9,4S1575,58.87,1874.43,198.49,2049.78,571.42,2155,670.57s352.78,124.85,429.67,365.65S2534.09,1806.1,2244.73,1838L225.28,1851.69s-155.81-94.06-91.06-231.17Z" transform="translate(-62 -126.24)"/><path class="cls-3" d="M2205.83,983.57c29,0,97,.91,155.66,9.2,24.27,3.43,46.42-14.86,47.25-39.36.34-10-2.59-21.88-11.14-35.6-32.93-52.85-97.88-7.82-98.73,18,0,0-10.39-39.56-49-34.92s-28.26,61.92-28.26,61.92-12.18-3.3-21.06,2C2191.86,970.14,2195.64,983.58,2205.83,983.57Z" transform="translate(-62 -126.24)"/><path class="cls-4" d="M2179,1840.58c8.58-8.46,75.49-126.91,121.81-66,0,0,75.7-171.75,171.57-138.12,0,0,61.12,34.9,16.72,121.84,0,0,148-9.31,146.05,82.28Z" transform="translate(-62 -126.24)"/><path d="M2407.92,1656.46a.75.75,0,0,1-.59-.29.74.74,0,0,1,.13-1c.75-.58,18.48-14.22,34.7-16.14a.74.74,0,1,1,.18,1.47c-15.79,1.87-33.77,15.7-34,15.84A.74.74,0,0,1,2407.92,1656.46Z" transform="translate(-62 -126.24)"/><path d="M2407.92,1665.06a.76.76,0,0,1-.58-.27.75.75,0,0,1,.11-1,90.62,90.62,0,0,1,27.79-14.19.76.76,0,0,1,.93.51.74.74,0,0,1-.51.92,88.33,88.33,0,0,0-27.26,13.92A.77.77,0,0,1,2407.92,1665.06Z" transform="translate(-62 -126.24)"/><ellipse class="cls-4" cx="2563.61" cy="1617.3" rx="48.1" ry="25.83" transform="translate(-390.9 2397.23) rotate(-49.64)"/><ellipse class="cls-4" cx="2581.53" cy="1690.65" rx="28.47" ry="15.29" transform="translate(-440.48 2436.73) rotate(-49.64)"/><path class="cls-3" d="M1030.49,635.63c61.63-4.89,212-14.64,302.78-2.07,13.12,1.82,21.65-13.63,13-23.63-6.27-7.2-17.35-13.19-36.74-13.87,0,0,17.09-84.3-64.35-91.42-83.7-7.32-84,81.17-84,81.17s-49.35-45.92-72.48,11.75c0,0-51.86-22.09-75,6.2C1002.79,617.08,1013.34,637,1030.49,635.63Z" transform="translate(-62 -126.24)"/><rect class="cls-5" x="1107.93" y="1260.88" width="209.69" height="439.3"/><path class="cls-5" d="M1906.26,1546.79V945a51.77,51.77,0,0,0-51.77-51.77H687.66A51.77,51.77,0,0,0,635.89,945v601.79Z" transform="translate(-62 -126.24)"/><path class="cls-6" d="M635.89,1546.79v96.44c0,20.06,13.26,36.32,29.62,36.32H1876.65c16.35,0,29.61-16.26,29.61-36.32v-96.44Z" transform="translate(-62 -126.24)"/><path class="cls-7" d="M1876.52,1520.66V946.61c0-15.05-12.63-27.25-28.22-27.25H693.86c-15.59,0-28.23,12.2-28.23,27.25v574.05Z" transform="translate(-62 -126.24)"/><path class="cls-6" d="M1558.41,1839c3.55-20.76-10.39-37.59-31.15-37.59H1022.64c-20.76,0-40.48,16.83-44,37.59h579.81Z" transform="translate(-62 -126.24)"/><path class="cls-8" d="M1876.65,1681.06H665.51c-17.17,0-31.14-17-31.14-37.83V945a53.35,53.35,0,0,1,53.29-53.29v3A50.31,50.31,0,0,0,637.41,945v698.23c0,19.19,12.6,34.8,28.1,34.8H1876.65Z" transform="translate(-62 -126.24)"/><rect class="cls-8" x="1813.9" y="1591.53" width="49.56" height="3.04" transform="translate(-589.56 2031.97) rotate(-54.34)"/><rect class="cls-8" x="1814.34" y="1611.1" width="48.68" height="3.04" transform="translate(-612.61 2008.47) rotate(-53.58)"/><rect class="cls-8" x="1213.02" y="1700.03" width="28.99" height="3.03" transform="translate(-920.86 1796.83) rotate(-60.25)"/><rect class="cls-8" x="1216.38" y="1715.99" width="25.71" height="3.03" transform="translate(-936.16 1782.48) rotate(-59.6)"/><path class="cls-9" d="M1230.19,889.56s9.72-36.3,18.59-40.1,18.77,2.56,18.77,2.56,9.5-13,16-11.72a10.46,10.46,0,0,1,8,7s11.43,1.21,12.59,10.61c0,0,9,2.18,8.88,9.56,0,0,4.64,2.11,4.34,11,0,0-15.44,30.18-38.12,40.87S1230.19,889.56,1230.19,889.56Z" transform="translate(-62 -126.24)"/><path class="cls-10" d="M1024.45,1520.66l2.7-256.91-5.78-33-140.18,50.31s4.31,108.6,13.41,239.6Z" transform="translate(-62 -126.24)"/><path class="cls-11" d="M916.81,1520.66l15.75-181.22,26.64-132.26L778,1284.28s-1.29,106.7.91,236.38Z" transform="translate(-62 -126.24)"/><polygon class="cls-12" points="1129.35 580.9 1276.78 826.5 1264.51 835.83 1147.76 619.38 1129.35 580.9"/><path class="cls-9" d="M1266.47,851.24s6.52-6.73,10.43-8.74,27.25,40.91,27.25,40.91l3.38,10.6s-3,5.61-4.92,5.38-7.78-4.69-7.78-4.69l-1.52-5.86-2.35-.65-3.07-2.84-1.53-4.64-3.26,1.47-4.65-1.84-2.14-4.33-.92-.42-13.84-22.24Z" transform="translate(-62 -126.24)"/><path class="cls-13" d="M1275,876.39c-2.06,0-4.43-1.42-6.89-2.9a36.88,36.88,0,0,0-5.34-2.82c-5.44-2.15-7.93-1.21-8-1.2a.77.77,0,0,1-1-.42.75.75,0,0,1,.4-1c.12-.05,3-1.22,9.1,1.19a39.27,39.27,0,0,1,5.56,2.93c3.85,2.31,6.3,3.64,7.94,1.82a7.2,7.2,0,0,0,1.9-5.69c-.42-4.59-4.76-10.46-11.61-15.7-8.42-6.44-15.83-3.26-16.14-3.12a.77.77,0,0,1-1-.38.76.76,0,0,1,.38-1c.35-.16,8.52-3.71,17.69,3.3,7.29,5.56,11.73,11.68,12.2,16.76a8.69,8.69,0,0,1-2.28,6.85A3.84,3.84,0,0,1,1275,876.39Z" transform="translate(-62 -126.24)"/><path class="cls-13" d="M1277.54,863.48a.78.78,0,0,1-.51-.2.76.76,0,0,1,0-1.07l14-15.4a.77.77,0,0,1,1.08,0,.76.76,0,0,1,0,1.07l-14,15.4A.73.73,0,0,1,1277.54,863.48Z" transform="translate(-62 -126.24)"/><path class="cls-13" d="M1292.88,889.44a4.7,4.7,0,0,1-3-1.07,7.33,7.33,0,0,1-3.5-7.78.76.76,0,1,1,1.49.33c-.89,4,2.7,6.11,2.85,6.2a3.44,3.44,0,0,0,3,.72c7.52-1.43,18.57-20.53,18.68-20.72a.76.76,0,0,1,1.32.75c-.47.81-11.52,19.9-19.72,21.46A5.84,5.84,0,0,1,1292.88,889.44Z" transform="translate(-62 -126.24)"/><path class="cls-13" d="M1282.71,882.76a6.7,6.7,0,0,1-4.29-1.42,9.28,9.28,0,0,1-3-5.91.76.76,0,0,1,.69-.82.75.75,0,0,1,.82.69,7.92,7.92,0,0,0,2.42,4.86,5.66,5.66,0,0,0,4.46,1c5.52-.76,16.06-17.3,19.65-23.6a.76.76,0,1,1,1.32.75c-.54,1-13.38,23.34-20.77,24.35A8.79,8.79,0,0,1,1282.71,882.76Z" transform="translate(-62 -126.24)"/><path class="cls-14" d="M1215.71,881.21l5.48-6.87s48.59,13.66,66.18,53.5l-7.7,10.37S1244.14,893.87,1215.71,881.21Z" transform="translate(-62 -126.24)"/><path class="cls-15" d="M1042.26,1300.26l.89-1.16-4.66-261.44s86,57.67,111.76,58.78,132.31-157.05,132.31-157.05c-22.45-51.54-69.73-58.68-69.73-58.68l-88,96.45-103.08-93.5c-13.75-8.35-119.4-10.15-119.4-10.15s-120.26-2.74-134,5.6-64.3,145.79-72.15,208.12,0,102.71,47.61,110.07l17.32.37,1.33,102.59s96,21.6,279.78,0Z" transform="translate(-62 -126.24)"/><rect class="cls-5" x="822.97" y="927.37" width="128.34" height="162.35" rx="11.97"/><path class="cls-14" d="M981.71,1047.47H921.93a6.13,6.13,0,0,0-6.13,6.14h72.05A6.14,6.14,0,0,0,981.71,1047.47Z" transform="translate(-62 -126.24)"/><path class="cls-9" d="M1016.37,1137.2c13.87-12.22-.66-14.27-.66-14.27,6.77-7.33,5.19-10.74,2.71-12.31a6.81,6.81,0,0,0-6.12-.5c-6.37,2.47-25.81,10.1-37.68,15.58-8.44-.6-5.75-14.83-2-22.12,2-3.76,2.08-10-7.08-3.71-7.48,5.11-18.73,21.92-18.73,21.92l-47.05-4.52,7,64.84s53.71-.75,61.8-.81,35.19-9.28,43.38-16.41c14.85-12.93,5.51-13.59,5.51-13.59C1031.65,1136.42,1016.37,1137.2,1016.37,1137.2Z" transform="translate(-62 -126.24)"/><path class="cls-13" d="M998.73,1133.63a1,1,0,0,1-.45-1.87c7-2.87,16.78-9.57,16.88-9.64a1,1,0,0,1,1.1,1.61c-.41.28-10.08,6.88-17.24,9.83A1,1,0,0,1,998.73,1133.63Z" transform="translate(-62 -126.24)"/><path class="cls-13" d="M999.69,1145.92a1,1,0,0,1-.32-1.91,60.69,60.69,0,0,0,16.45-7.61,1,1,0,0,1,1.35.24,1,1,0,0,1-.24,1.36,61.43,61.43,0,0,1-17.06,7.89Z" transform="translate(-62 -126.24)"/><path class="cls-13" d="M1003,1159.76a1,1,0,0,1-1-.69,1,1,0,0,1,.66-1.21,51.62,51.62,0,0,0,14.29-7.34,1,1,0,0,1,1.18,1.56,53.14,53.14,0,0,1-14.92,7.64Z" transform="translate(-62 -126.24)"/><polygon class="cls-8" points="725.51 978.84 723.55 976.52 742.7 960.33 750.01 871.54 753.04 871.78 745.63 961.84 725.51 978.84"/><path class="cls-8" d="M761.12,1199.19l-17.52-.38c-23.37-3.62-38.35-15.2-45.8-35.4-6.46-17.53-7.45-41.79-3.09-76.37l3,.38c-8.88,70.47,4.52,101.87,46.24,108.37l17.22.37Z" transform="translate(-62 -126.24)"/><path class="cls-14" d="M929.49,1101.79h9.45s10.06,64.71-3.68,94.41H923.51S937.22,1135.5,929.49,1101.79Z" transform="translate(-62 -126.24)"/><path class="cls-15" d="M880.06,1092.05l47.34,3s9.58,30.18-1.93,91.39c-1.11,5.94-3.47,16.1-3.47,16.1s-48.07,3.83-55.61-11.78c-4.74-9.81,5.62-52.16,5.62-52.16Z" transform="translate(-62 -126.24)"/><path class="cls-8" d="M923.17,1204.14l-162.07-5,.09-3L920.82,1201c2.28-9.45,16.9-73,5.51-104.49l-120.26-7.7.19-3,122.21,7.82.35.91C942.09,1129,924.24,1200,923.47,1203Z" transform="translate(-62 -126.24)"/><path class="cls-8" d="M1125.91,1003l-2.52-25.07-99.81-90.54c-7.32-6.64-21.54-6.73-21.68-6.73v-3h0c.65,0,15.53.08,23.72,7.51l100.68,91.33,2.63,26.23Z" transform="translate(-62 -126.24)"/><path class="cls-8" d="M1126,978.18l-2.25-2,88.54-97.06.81.13c.47.08,47.28,8.26,70.87,59.55l-2.76,1.27c-21.22-46.13-61.65-56.36-67.8-57.67Z" transform="translate(-62 -126.24)"/><path class="cls-14" d="M959.43,875.59c-29-1.61-57.06-2.08-57.06-2.08s-23.28-.53-50.53-.42c0,.16,0,.32,0,.48a53.82,53.82,0,0,0,107.6,2Z" transform="translate(-62 -126.24)"/><path class="cls-8" d="M927.36,1310.79l-2.67,0,0-3c37.95.4,105.61-7.57,116-8.82l-3.77-286.4,3,0,3.8,289.12-1.35.16C1041.7,1301.86,969,1310.79,927.36,1310.79Z" transform="translate(-62 -126.24)"/><path class="cls-8" d="M873.55,930.22a71.79,71.79,0,0,1-31.24-41.53l2.92-.82a68.82,68.82,0,0,0,29.93,39.78Z" transform="translate(-62 -126.24)"/><path class="cls-9" d="M885.22,764.52s21.44-9.12,40.47-2.57A27.36,27.36,0,0,1,944,787.87v11.4l-58.68-25.06s-9.28,4.39-8.53,3.06S885.22,764.52,885.22,764.52Z" transform="translate(-62 -126.24)"/><path class="cls-9" d="M944,786.59v48.07s.72,17.17-14.31,19.32l2.81,22.92a17.89,17.89,0,0,1-12.23,19.26,46.85,46.85,0,0,1-14.2,2.19c-17.17,0-26.47-12.88-27.9-19.32s2.86-37.21,2.86-37.21l-.53-15.12,2-58.59Z" transform="translate(-62 -126.24)"/><path class="cls-8" d="M902.57,809.26a.72.72,0,0,1-.52-1.22c.1-.1,9.94-10.17,18.94-2.92a.72.72,0,0,1,.1,1,.71.71,0,0,1-1,.1c-8-6.42-16.64,2.43-17,2.81A.74.74,0,0,1,902.57,809.26Z" transform="translate(-62 -126.24)"/><path class="cls-8" d="M932.07,805a.69.69,0,0,1-.54-.25.71.71,0,0,1,.07-1c.29-.25,7.11-6.08,11.43-2.38a.72.72,0,0,1,.08,1,.71.71,0,0,1-1,.07c-3.38-2.9-9.5,2.33-9.57,2.39A.73.73,0,0,1,932.07,805Z" transform="translate(-62 -126.24)"/><path d="M917,812.15a2.15,2.15,0,1,1-2.15-2.15A2.14,2.14,0,0,1,917,812.15Z" transform="translate(-62 -126.24)"/><path d="M939.86,810a2.15,2.15,0,1,1-2.15-2.15A2.15,2.15,0,0,1,939.86,810Z" transform="translate(-62 -126.24)"/><path class="cls-8" d="M885.22,763.77s-18.18-.87-22.8,15,3.25,24.31,3.41,29.05-3.06,36.71,19.39,34.32l6.06-52.79-7.81-21Z" transform="translate(-62 -126.24)"/><circle class="cls-9" cx="886.43" cy="811.4" r="12.88" transform="translate(-376.12 738.21) rotate(-45)"/><path class="cls-13" d="M885.47,819.3a5.38,5.38,0,0,1-5.05-4,5,5,0,0,1,2-5.88,6,6,0,0,1,6.77.24,5.85,5.85,0,0,0-2.6-3.18,8,8,0,0,0-5.72-.36.35.35,0,0,1-.45-.23.35.35,0,0,1,.22-.45,8.68,8.68,0,0,1,6.29.41,7,7,0,0,1,3.28,4.7l.31,1.24-.91-.9c-.13-.13-3.19-3.11-6.81-.86a4.37,4.37,0,0,0-1.72,5.07,4.6,4.6,0,0,0,4.36,3.51h.07a.36.36,0,0,1,.36.35.37.37,0,0,1-.35.37Z" transform="translate(-62 -126.24)"/><path class="cls-13" d="M894.88,839.39s1,28.75,36.91,31.49L929.72,854S906.44,858.66,894.88,839.39Z" transform="translate(-62 -126.24)"/><path class="cls-8" d="M946.53,826.58s4.67,34.41-18.17,35.63C895.66,864,892.5,845.3,890.55,830l-.32-31.51,1-9.14h0a16.31,16.31,0,0,1,4,9.36c.68,7.56,2.35,27.92,4.24,28.82C902.21,828.83,941.44,823.26,946.53,826.58Z" transform="translate(-62 -126.24)"/><path class="cls-13" d="M924.61,826.63a.36.36,0,0,1-.34-.25.36.36,0,0,1,.23-.45l7.17-2.37-2.26-16.88a.35.35,0,1,1,.7-.1l2.35,17.47-7.74,2.56Z" transform="translate(-62 -126.24)"/><polygon class="cls-9" points="818.53 719.58 821.02 695.34 827.04 696.01 827.04 720.27 818.53 719.58"/><path class="cls-8" d="M888.58,763.3s-4.22,10.05,2.7,26.83-17.74-6.26-17.74-6.26S875.25,759.32,888.58,763.3Z" transform="translate(-62 -126.24)"/><path class="cls-13" d="M916.29,834a11.55,11.55,0,0,0,13.76,3.89.5.5,0,1,0-.42-.9,10.41,10.41,0,0,1-12.55-3.6c-.1-.12-.19-.25-.29-.38a.5.5,0,0,0-.69-.11.49.49,0,0,0-.11.7Z" transform="translate(-62 -126.24)"/><path class="cls-13" d="M1303.49,899.94h-.13c-4.17-.71-7.13-2.34-8.81-4.84a8.89,8.89,0,0,1-1.34-6.41.76.76,0,1,1,1.48.33,7.54,7.54,0,0,0,1.13,5.26c1.44,2.13,4.07,3.53,7.8,4.17a.76.76,0,0,1-.13,1.5Z" transform="translate(-62 -126.24)"/><path class="cls-8" d="M1878,1522.18H665.63v-3H1875V946.61c0-14.19-12-25.73-26.71-25.73v-3c16.4,0,29.74,12.9,29.74,28.77Z" transform="translate(-62 -126.24)"/><path class="cls-8" d="M891.28,790.13s54.7-3.24,58.07-16.06-9.49-13.15-9.49-13.15,2.41-18.21-14.12-12.82-47.14,4.69-55.74,20S891.28,790.13,891.28,790.13Z" transform="translate(-62 -126.24)"/><path class="cls-16" d="M1095.09,1336.1l-13.18,9.64a4.55,4.55,0,1,0,5.38,7.35l10.52-7.71,9.27,31.6a4.54,4.54,0,0,0,4.36,3.28,4.43,4.43,0,0,0,1.29-.19,4.54,4.54,0,0,0,3.08-5.65l-10.18-34.75,14-10.23,16.55,21.6a4.55,4.55,0,1,0,7.23-5.53L1127,1324.06l8.89-6.5a4.55,4.55,0,1,0-5.38-7.34l-9,6.61-30.72-40.1a6.46,6.46,0,0,0-11.33,5.74Zm19-13.89-11.16,8.17-10.8-36.84Z" transform="translate(-62 -126.24)"/><path class="cls-4" d="M1144,1245.3c3.21,0,4.07-1.85,6.9-8L1152,1235l7.36,25.19c-.1.26-.19.53-.29.79a4.51,4.51,0,0,0-.34.93c-1.82,4.92-3.74,9.64-5.61,13.86a4.55,4.55,0,0,0,2.31,6,4.48,4.48,0,0,0,1.84.39,4.57,4.57,0,0,0,4.17-2.7c.5-1.12,1.23-2.8,2.11-4.92l10.72,36.72a4.55,4.55,0,0,0,4.37,3.28,4.64,4.64,0,0,0,1.27-.18,4.56,4.56,0,0,0,3.1-5.65l-1-3.28c8.45-4.34,29.19-16.39,35.12-32.82a25.73,25.73,0,0,0-1.17-20.84c-4.43-9-10.89-11.76-15.52-12.49-9.46-1.47-19.8,3.86-27.71,9.5,4.46-15.26,7.19-31.87,1.49-39.91-3.18-4.47-7-4.83-8.92-4.65-4,.37-7.75,3.57-11.23,8.28a4.55,4.55,0,0,0-7.27,4.78l1.4,4.8c-1.92,3.61-3.78,7.5-5.59,11.41-.74,1.6-1.56,3.38-2,4.15a4.55,4.55,0,0,0,3.33,7.65Zm55.07,3c3.69.58,6.55,3,8.75,7.51a16.8,16.8,0,0,1,.79,13.71c-4.5,12.47-21,22.6-29.18,27l-9.77-33.49C1176.77,1256.59,1189.83,1246.82,1199.1,1248.29Zm-33-35a3.74,3.74,0,0,1,.76.84c3.26,4.59,1.41,17-2.47,30.66l-6.31-21.61C1162.52,1215.38,1164.91,1213.54,1166.09,1213.31Z" transform="translate(-62 -126.24)"/><path class="cls-17" d="M1280.66,1297.33a82.51,82.51,0,0,0,16.93-1.93,4.55,4.55,0,1,0-1.87-8.91c-21.27,4.46-34.77.36-40.12-12.2-8.84-20.77,6.09-56,16.64-63.22,4.52-3.08,8.77-4.14,12.64-3.15,7.29,1.86,11.67,10.26,11.75,10.43a4.55,4.55,0,0,0,8.14-4.09c-.25-.49-6.21-12.2-17.56-15.15-6.53-1.7-13.3-.2-20.1,4.43-14.67,10-30,50.5-19.89,74.32C1251.26,1287.33,1260.33,1297.33,1280.66,1297.33Z" transform="translate(-62 -126.24)"/><path class="cls-18" d="M1211.71,1363.91l-96.73,66.4-4,39.48-19.89-28-24.41,17.51a4.55,4.55,0,0,0,5.31,7.39l17-12.17,28.67,40.34,5.94-59.44,93.25-64a4.56,4.56,0,0,0-5.16-7.51Z" transform="translate(-62 -126.24)"/><path class="cls-16" d="M1347,1393a4.56,4.56,0,0,0-5.93-2.51l-84.09,34.18a4.55,4.55,0,0,0,1.72,8.77,4.49,4.49,0,0,0,1.71-.34l84.09-34.17A4.55,4.55,0,0,0,1347,1393Z" transform="translate(-62 -126.24)"/><circle class="cls-16" cx="1232.57" cy="1262.64" r="7.64"/><path class="cls-16" d="M1309.86,1428.9a7.64,7.64,0,1,0,7.65,7.64A7.64,7.64,0,0,0,1309.86,1428.9Z" transform="translate(-62 -126.24)"/><path class="cls-9" d="M1269.89,1168.45a4.53,4.53,0,0,0,3.16,1.27,4.58,4.58,0,0,0,3.28-1.39l23-23.92,23,23.92a4.55,4.55,0,0,0,6.56-6.32l-23.27-24.16,23.27-24.16a4.55,4.55,0,0,0-6.56-6.32l-23,23.92-23-23.92a4.55,4.55,0,0,0-6.56,6.32l23.26,24.16L1269.77,1162A4.55,4.55,0,0,0,1269.89,1168.45Z" transform="translate(-62 -126.24)"/><polygon class="cls-4" points="331.28 1311.22 300.48 1311.22 298.46 1311.22 267.65 1311.22 242.03 1679.42 298.46 1679.42 300.48 1679.42 356.91 1679.42 331.28 1311.22"/><path class="cls-19" d="M253.55,1274.1h91.28a0,0,0,0,1,0,0v35a9.48,9.48,0,0,1-9.48,9.48H263a9.48,9.48,0,0,1-9.48-9.48v-35A0,0,0,0,1,253.55,1274.1Z"/><path class="cls-8" d="M379.62,1446.38H329.94A15.93,15.93,0,0,1,314,1430.47v-30.13h3v30.13a12.89,12.89,0,0,0,12.88,12.87h49.68Z" transform="translate(-62 -126.24)"/><circle class="cls-20" cx="360.51" cy="1231.27" r="193.36" transform="translate(-827.05 489.31) rotate(-45)"/><circle class="cls-14" cx="360.51" cy="1231.27" r="166.83" transform="translate(-827.05 489.31) rotate(-45)"/><path class="cls-8" d="M360.51,1426.14c-107.45,0-194.87-87.42-194.87-194.87s87.42-194.88,194.87-194.88a194,194,0,0,1,134.59,53.94l-2.1,2.19a191,191,0,0,0-132.49-53.09c-105.78,0-191.83,86.06-191.83,191.84s86,191.84,191.83,191.84A191.11,191.11,0,0,0,492,1370.92l2.08,2.21A194.12,194.12,0,0,1,360.51,1426.14Z" transform="translate(-62 -126.24)"/><ellipse class="cls-21" cx="432.91" cy="1155.39" rx="29.93" ry="62.66" transform="translate(-752.19 518.28) rotate(-45)"/><rect class="cls-8" x="143.36" y="1616.99" width="348.18" height="3.03" transform="translate(-1381.57 1693.47) rotate(-85.91)"/><path class="cls-8" d="M257.84,1129.67l-2.4-1.85c.23-.3,23.69-30.21,59.34-37.88l.64,3C280.87,1100.34,258.07,1129.38,257.84,1129.67Z" transform="translate(-62 -126.24)"/><path class="cls-8" d="M267.34,1148.33l-2.4-1.85c.23-.3,23.69-30.21,59.34-37.88l.64,3C290.37,1119,267.57,1148,267.34,1148.33Z" transform="translate(-62 -126.24)"/><path class="cls-19" d="M94.36,1630.36H522.67a0,0,0,0,1,0,0v82.36a0,0,0,0,1,0,0H84.7a0,0,0,0,1,0,0V1640A9.66,9.66,0,0,1,94.36,1630.36Z"/><rect class="cls-20" x="119.1" y="1630.36" width="5.4" height="41.18"/><rect class="cls-20" x="175.42" y="1630.36" width="5.4" height="41.18"/><rect class="cls-20" x="147.43" y="1630.36" width="5.4" height="25"/><rect class="cls-20" x="236.97" y="1630.36" width="5.4" height="41.18"/><rect class="cls-20" x="208.97" y="1630.36" width="5.4" height="25"/><rect class="cls-20" x="298.51" y="1630.36" width="5.4" height="41.18"/><rect class="cls-20" x="270.52" y="1630.36" width="5.4" height="25"/><rect class="cls-20" x="360.06" y="1630.36" width="5.4" height="41.18"/><rect class="cls-20" x="332.07" y="1630.36" width="5.4" height="25"/><rect class="cls-20" x="421.61" y="1630.36" width="5.4" height="41.18"/><rect class="cls-20" x="393.62" y="1630.36" width="5.4" height="25"/><path class="cls-20" d="M690.23,1297.92l.28,540.65,376.76.39Zm52.82,180.66,205.2,297.27-205.51-.21Z" transform="translate(-62 -126.24)"/><rect class="cls-19" x="712.86" y="1344.82" width="4.84" height="29.33" transform="translate(1360.66 -130.37) rotate(55.17)"/><rect class="cls-19" x="751.93" y="1400.77" width="4.84" height="28.97" transform="translate(1423.23 -138.49) rotate(55.17)"/><rect class="cls-19" x="739.24" y="1377.15" width="4.84" height="14.49" transform="matrix(0.57, 0.82, -0.82, 0.57, 1392.46, -141.32)"/><rect class="cls-19" x="791.54" y="1457.63" width="4.84" height="29.02" transform="translate(1486.92 -146.62) rotate(55.17)"/><rect class="cls-19" x="778.86" y="1434.01" width="4.84" height="14.54" transform="translate(1456.15 -149.44) rotate(55.17)"/><rect class="cls-19" x="831.16" y="1514.5" width="4.84" height="29.07" transform="translate(1550.61 -154.74) rotate(55.17)"/><rect class="cls-19" x="818.47" y="1490.88" width="4.84" height="14.59" transform="translate(1519.84 -157.56) rotate(55.17)"/><rect class="cls-19" x="870.77" y="1571.37" width="4.84" height="29.12" transform="translate(1614.3 -162.86) rotate(55.17)"/><rect class="cls-19" x="858.1" y="1547.73" width="4.84" height="14.67" transform="translate(1583.53 -165.69) rotate(55.17)"/><rect class="cls-19" x="910.39" y="1628.23" width="4.84" height="29.17" transform="translate(1677.99 -170.98) rotate(55.17)"/><rect class="cls-19" x="897.69" y="1604.63" width="4.84" height="14.67" transform="translate(1647.22 -173.78) rotate(55.17)"/><rect class="cls-19" x="950" y="1685.1" width="4.84" height="29.22" transform="translate(1741.65 -179.11) rotate(55.17)"/><rect class="cls-19" x="937.32" y="1661.48" width="4.84" height="14.74" transform="translate(1710.91 -181.92) rotate(55.17)"/><rect class="cls-19" x="989.62" y="1741.97" width="4.84" height="29.27" transform="translate(1805.34 -187.23) rotate(55.17)"/><rect class="cls-19" x="976.93" y="1718.34" width="4.84" height="14.79" transform="translate(1774.57 -190.05) rotate(55.17)"/><rect class="cls-19" x="1029.24" y="1798.82" width="4.84" height="29.33" transform="translate(1869.03 -195.35) rotate(55.17)"/><rect class="cls-19" x="1016.55" y="1775.21" width="4.84" height="14.84" transform="translate(1838.26 -198.17) rotate(55.17)"/><path class="cls-8" d="M637.74,1534a6.54,6.54,0,0,1-6.47-5.65c-.08-.59-8.49-59.63-39.26-107.9a6.54,6.54,0,1,1,11-7c32.36,50.75,40.85,110.63,41.19,113.15a6.54,6.54,0,0,1-5.58,7.37A6.92,6.92,0,0,1,637.74,1534Z" transform="translate(-62 -126.24)"/><path class="cls-22" d="M814.47,1529.56c-37.77-66.83-95.89-61-127.85-43.58-25.91,14.13-49,17.76-56.75,18.63-7.8-.87-30.84-4.5-56.75-18.63-32-17.44-90.08-23.25-127.85,43.58s24.7,302.2,116.23,312.37h37.77c4,0,9.21-.23,15.06-.41a1.46,1.46,0,0,0,1.1.41c4.87-.41,9.73-.58,14.44-.63s9.57.22,14.44.63a1.46,1.46,0,0,0,1.1-.41c5.85.18,11,.41,15.06.41h37.77C789.77,1831.76,852.24,1596.39,814.47,1529.56Z" transform="translate(-62 -126.24)"/><path class="cls-8" d="M474.06,1543.32a1.68,1.68,0,0,1-.62-.13,1.53,1.53,0,0,1-.77-2c.14-.32,14.51-32,49.54-39.88a1.52,1.52,0,1,1,.67,3c-33.5,7.55-47.3,37.85-47.44,38.15A1.51,1.51,0,0,1,474.06,1543.32Z" transform="translate(-62 -126.24)"/><path class="cls-8" d="M482.59,1557.44a1.5,1.5,0,0,1-.62-.13,1.52,1.52,0,0,1-.77-2c.14-.32,14.52-32,49.54-39.89a1.52,1.52,0,1,1,.67,3c-33.5,7.55-47.3,37.84-47.44,38.15A1.5,1.5,0,0,1,482.59,1557.44Z" transform="translate(-62 -126.24)"/><path class="cls-15" d="M755.35,1477.91c-62.59,86.54-183.26,235.69-288.18,262,22.91,54.18,56.08,97.77,94.33,102h37.77c4,0,9.21-.23,15.06-.41a1.46,1.46,0,0,0,1.1.41c4.87-.41,9.73-.58,14.44-.63s9.57.22,14.44.63a1.46,1.46,0,0,0,1.1-.41c5.85.18,11,.41,15.06.41h37.77c91.53-10.17,154-245.54,116.23-312.37C797.47,1499.49,776.35,1484.13,755.35,1477.91Z" transform="translate(-62 -126.24)"/><ellipse class="cls-23" cx="739.53" cy="1537.64" rx="18.79" ry="39.33" transform="translate(-1023.87 1283.03) rotate(-60)"/><path class="cls-8" d="M599.27,1843.45H561.33c-38.55-4.29-67.39-45.74-84.79-79.76-41.11-80.37-56.64-192.31-32.59-234.86,16.91-29.93,40.13-48.65,67.12-54.14,20.61-4.18,43.49-.55,62.78,10,25.36,13.83,47.74,17.51,56.19,18.45.21,0,17.74,2.15,40.71-11.15a1.52,1.52,0,0,1,1.52,2.63c-23.93,13.85-41.86,11.63-42.6,11.53-8.59-.95-31.44-4.71-57.28-18.8-28.81-15.72-87.73-24.35-125.8,43-11.3,20-14,57.44-7.52,102.75,6.45,44.84,21.09,91.94,40.17,129.23,24.1,47.11,53.34,74.85,82.34,78.12h37.69a1.52,1.52,0,0,1,0,3Z" transform="translate(-62 -126.24)"/><path class="cls-8" d="M146.92,1840.48a1.51,1.51,0,0,1-1.51-1.52v-67.7a16.19,16.19,0,0,1,16.18-16.18H474.72a1.52,1.52,0,0,1,0,3H161.59a13.16,13.16,0,0,0-13.15,13.14V1839A1.52,1.52,0,0,1,146.92,1840.48Z" transform="translate(-62 -126.24)"/><path class="cls-20" d="M2151.32,554.48c0-139.18-112.83-252-252-252s-252,112.82-252,252A251.18,251.18,0,0,0,1720,731.57h0s76.27,81.56,102,170.46c0,0,44,15,77.26,15.78,33.23-.83,77.27-15.78,77.27-15.78,25.75-88.9,102-170.46,102-170.46h0A251.15,251.15,0,0,0,2151.32,554.48Z" transform="translate(-62 -126.24)"/><path class="cls-11" d="M1899.25,1050.11h0a39.17,39.17,0,0,1-39.17-39.17h78.34A39.17,39.17,0,0,1,1899.25,1050.11Z" transform="translate(-62 -126.24)"/><path class="cls-11" d="M1753.25,755.7h168a0,0,0,0,1,0,0v66a73.68,73.68,0,0,1-73.68,73.68h-20.65a73.68,73.68,0,0,1-73.68-73.68v-66A0,0,0,0,1,1753.25,755.7Z"/><path class="cls-24" d="M2151.32,554.48a250.84,250.84,0,0,0-42.06-139.43C2035.55,596.65,1918,718.8,1748.68,766.17c21.32,28,49.59,70.1,66.68,115.76h167.9c30.21-80.72,95.33-150.37,95.33-150.37h0A251.15,251.15,0,0,0,2151.32,554.48Z" transform="translate(-62 -126.24)"/><path class="cls-19" d="M1940.49,882.92l-7.21-2c.23-.86,23.73-87.27,40-175.78,28.28-153.57,12-186.15-.19-191.89-12.48-5.88-22.3-4.82-29.18,3.13-.5.58-1,1.19-1.45,1.83a46.58,46.58,0,0,1,22.89,32.8c2.8,17.83-5.18,35.63-17.77,39.68-3,1-8.92,1.47-14-6.2-8.06-12.18-10.58-42.65-1.56-63-8.66-3.55-19.21-5.43-31.29-5.43h-7.27c-12.08,0-22.63,1.88-31.3,5.42,9,20.32,6.51,50.79-1.55,63-5.07,7.67-10.94,7.18-14,6.2-12.6-4.05-20.57-21.85-17.78-39.68a46.68,46.68,0,0,1,22.89-32.81c-.46-.63-.94-1.24-1.44-1.82-6.88-7.95-16.7-9-29.18-3.13-12.21,5.74-28.48,38.32-.19,191.89,16.3,88.51,39.8,174.92,40,175.78l-7.21,2c-.24-.87-23.81-87.54-40.17-176.36-22.58-122.6-21.16-188,4.35-200,19.8-9.31,31.61-2.41,38,5a35,35,0,0,1,2.53,3.32c8.82-3.75,20.22-6.19,35-6.19h7.27c14.76,0,26.16,2.44,35,6.19a35,35,0,0,1,2.53-3.32c6.42-7.43,18.23-14.32,38-5,25.52,12,26.94,77.45,4.36,200C1964.3,795.38,1940.72,882.05,1940.49,882.92Zm-85-358.07c-10.63,6.21-17.37,15.53-19.22,27.35-2.44,15.56,4.59,28.8,12.68,31.4.75.24,2.76.89,5.47-3.2C1861.32,570,1863.14,542.41,1855.49,524.85Zm83.29,0c-7.65,17.56-5.83,45.11,1.07,55.55,2.71,4.09,4.72,3.44,5.47,3.2,8.09-2.6,15.12-15.84,12.68-31.4C1956.15,540.38,1949.41,531.06,1938.78,524.85Z" transform="translate(-62 -126.24)"/><path class="cls-8" d="M1814,883.69c-2-5.74-2.91-7.84-4.9-12.45l-1.08-2.52c-31.46-73.48-88.8-135.25-89.37-135.87l-.19-.19a252.37,252.37,0,0,1-73-178.18c0-140,113.89-253.87,253.87-253.87a253.33,253.33,0,0,1,212.55,115l-3.13,2.05a249.61,249.61,0,0,0-209.42-113.29c-137.92,0-250.13,112.21-250.13,250.13a248.64,248.64,0,0,0,72.19,175.78l2.44,2.46-.18,0c11,12.27,59.69,68.72,87.85,134.49l1.08,2.51c2,4.69,2.94,6.83,5,12.7Z" transform="translate(-62 -126.24)"/><path class="cls-8" d="M1723.32,438.14l-3.59-1c.18-.63,18.81-62.65,81.5-86l1.31,3.5C1741.65,377.28,1723.5,437.53,1723.32,438.14Z" transform="translate(-62 -126.24)"/><path class="cls-8" d="M1734.87,460.57l-3.59-1.05c.19-.62,18.82-62.65,81.51-86l1.3,3.51C1753.2,399.7,1735.05,460,1734.87,460.57Z" transform="translate(-62 -126.24)"/><path class="cls-8" d="M1908.41,1023.53H1890.1a76.81,76.81,0,0,1-76.72-76.72V880.06h169.88v3.74H1817.11v63a73.07,73.07,0,0,0,73,73h18.31a72.57,72.57,0,0,0,51.18-20.95l2.62,2.66A76.25,76.25,0,0,1,1908.41,1023.53Z" transform="translate(-62 -126.24)"/><path class="cls-8" d="M1900.34,1052c-36.41,0-41.67-35.32-41.72-35.68l3.71-.51c.18,1.35,5,33.23,39.23,32.44l.08,3.74Z" transform="translate(-62 -126.24)"/><path class="cls-8" d="M2072.12,695.55l-2.23-3c33.27-24.67,38.5-65.87,38.55-66.29l3.71.44C2112.1,627.13,2106.71,669.89,2072.12,695.55Z" transform="translate(-62 -126.24)"/><path class="cls-8" d="M2064.76,677.6l-2.23-3c24.24-18,28.07-48,28.11-48.34l3.71.44C2094.2,628,2090.33,658.63,2064.76,677.6Z" transform="translate(-62 -126.24)"/><path class="cls-8" d="M1807.53,915.53l0-3.74c1.42,0,143.09-1.85,188-18.58l1.31,3.51C1951.28,913.67,1813.38,915.46,1807.53,915.53Z" transform="translate(-62 -126.24)"/><path class="cls-8" d="M1807.55,947.1l-.07-3.74c1.55,0,155.28-3.08,184-18.47l1.77,3.29C1963.74,944,1813.91,947,1807.55,947.1Z" transform="translate(-62 -126.24)"/><path class="cls-8" d="M1815.26,979.5l0-3.74c1.39,0,139.34-1.47,176.3-20.56l1.71,3.32C1955.5,978,1821,979.45,1815.26,979.5Z" transform="translate(-62 -126.24)"/><path class="cls-20" d="M1583.06,514.81a3.85,3.85,0,0,1-.48,0l-89.18-7.59a5.61,5.61,0,1,1,.95-11.17l89.18,7.59a5.61,5.61,0,0,1-.47,11.19Z" transform="translate(-62 -126.24)"/><path class="cls-20" d="M1629.19,372.74a5.6,5.6,0,0,1-3.16-1l-73.87-50.54a5.61,5.61,0,0,1,6.33-9.26l73.87,50.54a5.61,5.61,0,0,1-3.17,10.24Z" transform="translate(-62 -126.24)"/><path class="cls-20" d="M1762.69,270.83a5.64,5.64,0,0,1-5.2-3.5l-33.68-82.92a5.61,5.61,0,1,1,10.39-4.22l33.68,82.92a5.62,5.62,0,0,1-5.19,7.72Z" transform="translate(-62 -126.24)"/><path class="cls-20" d="M2211.08,531a5.61,5.61,0,0,1-.36-11.2l89.3-5.9a5.61,5.61,0,1,1,.74,11.19l-89.31,5.9Z" transform="translate(-62 -126.24)"/><path class="cls-20" d="M2167.65,388.05a5.61,5.61,0,0,1-3.08-10.3l74.81-49.13a5.6,5.6,0,1,1,6.15,9.37l-74.81,49.14A5.57,5.57,0,0,1,2167.65,388.05Z" transform="translate(-62 -126.24)"/><path class="cls-20" d="M2053.38,270.5a5.62,5.62,0,0,1-5.15-7.82l35.25-82.27a5.61,5.61,0,0,1,10.31,4.42l-35.25,82.27A5.63,5.63,0,0,1,2053.38,270.5Z" transform="translate(-62 -126.24)"/><path class="cls-20" d="M1909.62,227h-.09a5.62,5.62,0,0,1-5.52-5.7l1.38-89.49a5.61,5.61,0,0,1,5.61-5.52h.08a5.62,5.62,0,0,1,5.53,5.69l-1.38,89.5A5.62,5.62,0,0,1,1909.62,227Z" transform="translate(-62 -126.24)"/><g class="cls-25"><ellipse class="cls-21" cx="2016.56" cy="399.52" rx="29.49" ry="61.75" transform="translate(526.39 1751.95) rotate(-57.2)"/></g><path class="cls-8" d="M258.19,1027a3,3,0,0,1-2.9-2.16c-.07-.22-1.67-5.52-3.84-14.88a3,3,0,1,1,5.91-1.38c2.13,9.15,3.72,14.45,3.74,14.5a3,3,0,0,1-2,3.78A3,3,0,0,1,258.19,1027Z" transform="translate(-62 -126.24)"/><path class="cls-8" d="M248.49,982a3,3,0,0,1-3-2.56c-1.63-10.24-2.94-20.63-3.89-30.89a3,3,0,1,1,6-.56c.94,10.13,2.24,20.39,3.85,30.5a3,3,0,0,1-2.52,3.47A2.77,2.77,0,0,1,248.49,982Zm-5.65-61.58a3,3,0,0,1-3-3c-.07-3.17-.1-6.35-.1-9.46,0-7.3.19-14.61.59-21.71a3,3,0,0,1,3.19-2.87,3,3,0,0,1,2.87,3.2c-.39,7-.58,14.19-.58,21.38,0,3.06,0,6.2.1,9.32a3,3,0,0,1-3,3.1Zm3.51-61.72a3.25,3.25,0,0,1-.44,0,3,3,0,0,1-2.57-3.44,308.71,308.71,0,0,1,6-30.64A3,3,0,1,1,255.2,826a302.58,302.58,0,0,0-5.85,30.05A3,3,0,0,1,246.35,858.67ZM522.18,826a3,3,0,0,1-.57-6,50.38,50.38,0,0,0,25.68-13,3,3,0,1,1,4.18,4.4A56.39,56.39,0,0,1,522.75,826,3.66,3.66,0,0,1,522.18,826Zm-30.62-1.16a3.09,3.09,0,0,1-1-.18c-9.63-3.45-17.76-11.17-23.49-22.34a3,3,0,0,1,5.41-2.77c5,9.77,12,16.47,20.13,19.39a3,3,0,0,1-1,5.9ZM261.41,798.8a3,3,0,0,1-2.84-4.1,239.11,239.11,0,0,1,12.87-28.55,3,3,0,1,1,5.35,2.86,235.42,235.42,0,0,0-12.54,27.82A3,3,0,0,1,261.41,798.8Zm304-12.62a3,3,0,0,1-1-.16,3,3,0,0,1-1.91-3.84,90.23,90.23,0,0,0,4.4-28.67v-.81a3,3,0,0,1,3-3.05h0a3,3,0,0,1,3,3v.84a96.26,96.26,0,0,1-4.72,30.6A3,3,0,0,1,565.43,786.18Zm-104-11.81a3,3,0,0,1-3-2.7,132.52,132.52,0,0,1-.8-14.73,153.75,153.75,0,0,1,.94-16.82,3,3,0,0,1,6,.66,149.16,149.16,0,0,0-.9,16.16,125.14,125.14,0,0,0,.76,14,3,3,0,0,1-2.67,3.36ZM290.53,744.43a3,3,0,0,1-1.79-.59,3,3,0,0,1-.65-4.24,214.18,214.18,0,0,1,20.31-23.88,3,3,0,1,1,4.32,4.27A207.23,207.23,0,0,0,293,743.19,3,3,0,0,1,290.53,744.43Zm275.08-19.26a3,3,0,0,1-2.92-2.22A115.17,115.17,0,0,0,551,695.27a3,3,0,0,1,5.23-3.09,121.62,121.62,0,0,1,12.34,29.14,3,3,0,0,1-2.11,3.74A2.89,2.89,0,0,1,565.61,725.17Zm-98-12a3,3,0,0,1-2.92-3.87,215.25,215.25,0,0,1,10.88-29.42,3,3,0,0,1,5.53,2.52A207.32,207.32,0,0,0,470.51,711,3,3,0,0,1,467.59,713.18ZM333.68,700.36a3,3,0,0,1-1.87-5.42,256.88,256.88,0,0,1,25.76-17.77,3,3,0,0,1,3.13,5.2,251.49,251.49,0,0,0-25.15,17.35A3,3,0,0,1,333.68,700.36Zm200-27.06a3,3,0,0,1-1.93-.69,89.34,89.34,0,0,0-25.87-14.76,3,3,0,0,1,2.12-5.69,95.49,95.49,0,0,1,27.61,15.76,3,3,0,0,1-1.93,5.38Zm-147.11-4.78a3,3,0,0,1-1.23-5.81A225.61,225.61,0,0,1,414.8,652a3,3,0,0,1,1.66,5.84,219.73,219.73,0,0,0-28.67,10.4A3.16,3.16,0,0,1,386.56,668.52ZM493,657a3,3,0,0,1-2.57-4.65A249.93,249.93,0,0,1,508.75,627a3,3,0,0,1,4.69,3.85,244.15,244.15,0,0,0-17.87,24.76A3,3,0,0,1,493,657Zm-47.08-5.08a3,3,0,0,1-.34-6,155.94,155.94,0,0,1,31.5-.51,3,3,0,0,1,2.75,3.3,3,3,0,0,1-3.29,2.75,149.62,149.62,0,0,0-30.27.49Zm86.25-42.6a3,3,0,0,1-2.06-5.26,205.59,205.59,0,0,1,24.57-19.5,3,3,0,1,1,3.41,5,200.12,200.12,0,0,0-23.85,18.92A3,3,0,0,1,532.17,609.3Zm50.92-34.82a3,3,0,0,1-1.36-5.74,283,283,0,0,1,28.7-12.43,3,3,0,0,1,2.11,5.69,281,281,0,0,0-28.09,12.16A3,3,0,0,1,583.09,574.48ZM641,552.81a3,3,0,0,1-.79-6c9.76-2.63,20-5,30.42-6.9a3,3,0,0,1,1.11,6c-10.27,1.92-20.35,4.2-30,6.79A3.07,3.07,0,0,1,641,552.81Zm60.79-11.47a3,3,0,0,1-.35-6.05c10.2-1.18,20.64-2.06,31-2.61a3,3,0,0,1,.32,6.06c-10.27.54-20.59,1.41-30.66,2.58A2.11,2.11,0,0,1,701.76,541.34Z" transform="translate(-62 -126.24)"/><path class="cls-8" d="M778.91,538.69h-.23c-.06,0-5.6-.42-15-.55a3,3,0,0,1,0-6.07h0c9.59.14,15.11.55,15.34.57a3,3,0,0,1-.22,6.06Z" transform="translate(-62 -126.24)"/><path class="cls-26" d="M820.73,566.53l17.14-19.64s85-9.22,86.22-9.82L969,514.53l-54.93-3.19-89.8,12.93Z" transform="translate(-62 -126.24)"/><polygon class="cls-27" points="741.91 354.08 906.99 388.29 762.26 398.03 741.91 354.08"/><polygon class="cls-27" points="775.87 420.65 797.21 467.45 906.99 388.29 775.87 420.65"/><path class="cls-3" d="M1757.86,1705s27.88,70.15,4.49,123.21l536,4.49,49.47-4.49,43.59-27v-41.34l-12.12-34.18L2339.72,1705Z" transform="translate(-62 -126.24)"/><path class="cls-18" d="M2323.46,1839.53H1744.37a6.83,6.83,0,1,1,0-13.65h579.09c35,0,63.39-26.39,63.39-58.83s-28.43-58.82-63.39-58.82H1744.37a6.83,6.83,0,0,1,0-13.66h579.09c42.49,0,77.05,32.52,77.05,72.48S2366,1839.53,2323.46,1839.53Z" transform="translate(-62 -126.24)"/><path class="cls-28" d="M2049.91,1768.57H1765.73a1.52,1.52,0,1,1,0-3h284.18a1.52,1.52,0,1,1,0,3Z" transform="translate(-62 -126.24)"/><path class="cls-28" d="M2366,1768.57h-276.1a1.52,1.52,0,0,1,0-3H2366a1.52,1.52,0,1,1,0,3Z" transform="translate(-62 -126.24)"/><path class="cls-28" d="M2358.61,1795.76H2217a1.52,1.52,0,1,1,0-3h141.66a1.52,1.52,0,1,1,0,3Z" transform="translate(-62 -126.24)"/><path class="cls-28" d="M2196.17,1795.76H1765.73a1.52,1.52,0,1,1,0-3h430.44a1.52,1.52,0,1,1,0,3Z" transform="translate(-62 -126.24)"/><path class="cls-3" d="M2385.8,1561.36s-27.88,70.15-4.49,123.21l-536,4.5-49.47-4.5-43.59-27v-41.34l12.12-34.17,39.57-20.69Z" transform="translate(-62 -126.24)"/><path class="cls-16" d="M1820.2,1695.9h579.09a6.83,6.83,0,0,0,0-13.66H1820.2c-35,0-63.4-26.39-63.4-58.83s28.44-58.82,63.4-58.82h579.09a6.83,6.83,0,0,0,0-13.66H1820.2c-42.49,0-77,32.52-77,72.48S1777.71,1695.9,1820.2,1695.9Z" transform="translate(-62 -126.24)"/><path class="cls-28" d="M2377.93,1624.93H2093.75a1.52,1.52,0,1,1,0-3h284.18a1.52,1.52,0,1,1,0,3Z" transform="translate(-62 -126.24)"/><path class="cls-28" d="M2053.73,1624.93h-276.1a1.52,1.52,0,1,1,0-3h276.1a1.52,1.52,0,0,1,0,3Z" transform="translate(-62 -126.24)"/><path class="cls-28" d="M1926.71,1652.12H1785.05a1.52,1.52,0,1,1,0-3h141.66a1.52,1.52,0,1,1,0,3Z" transform="translate(-62 -126.24)"/><path class="cls-28" d="M2377.93,1652.12H1947.49a1.52,1.52,0,1,1,0-3h430.44a1.52,1.52,0,1,1,0,3Z" transform="translate(-62 -126.24)"/><path class="cls-3" d="M1848.36,1426.08s25.87,65.1,4.17,114.34L2350,1544.6l45.91-4.18,40.46-25.07V1477l-11.25-31.72-36.72-19.19Z" transform="translate(-62 -126.24)"/><path class="cls-4" d="M2373.28,1550.93H1835.84a6.34,6.34,0,1,1,0-12.67h537.44c32.45,0,58.84-24.49,58.84-54.59s-26.39-54.59-58.84-54.59H1835.84a6.34,6.34,0,0,1,0-12.68h537.44c39.43,0,71.51,30.18,71.51,67.27S2412.71,1550.93,2373.28,1550.93Z" transform="translate(-62 -126.24)"/><path class="cls-28" d="M2119.41,1485.19H1855.66a1.52,1.52,0,0,1,0-3h263.75a1.52,1.52,0,0,1,0,3Z" transform="translate(-62 -126.24)"/><path class="cls-28" d="M2412.79,1485.19H2156.55a1.52,1.52,0,0,1,0-3h256.24a1.52,1.52,0,0,1,0,3Z" transform="translate(-62 -126.24)"/><path class="cls-28" d="M2405.9,1510.42H2274.43a1.52,1.52,0,0,1,0-3H2405.9a1.52,1.52,0,0,1,0,3Z" transform="translate(-62 -126.24)"/><path class="cls-28" d="M2405.9,1459.94H1855.66a1.52,1.52,0,0,1,0-3H2405.9a1.52,1.52,0,0,1,0,3Z" transform="translate(-62 -126.24)"/><path class="cls-8" d="M2399.29,1697.41H1820.2c-43.32,0-78.57-33.19-78.57-74s35.25-74,78.57-74h579.09a8.35,8.35,0,1,1,0,16.69,1.52,1.52,0,0,1,0-3,5.32,5.32,0,1,0,0-10.63H1820.2c-41.65,0-75.54,31.84-75.54,71s33.89,71,75.54,71h579.09a5.32,5.32,0,1,0,0-10.63,1.52,1.52,0,0,1,0-3,8.35,8.35,0,1,1,0,16.69Z" transform="translate(-62 -126.24)"/><path class="cls-8" d="M2373.28,1552.45H1835.84a7.86,7.86,0,0,1,0-15.71,1.52,1.52,0,1,1,0,3,4.83,4.83,0,0,0,0,9.65h537.44c38.6,0,70-29.5,70-65.75s-31.4-65.75-70-65.75H1835.84a4.82,4.82,0,0,0,0,9.64,1.52,1.52,0,1,1,0,3,7.86,7.86,0,0,1,0-15.71h537.44c40.27,0,73,30.86,73,68.79S2413.55,1552.45,2373.28,1552.45Z" transform="translate(-62 -126.24)"/><path class="cls-8" d="M2323.46,1841.05H1744.37a8.35,8.35,0,1,1,0-16.69,1.52,1.52,0,0,1,0,3,5.32,5.32,0,1,0,0,10.63h579.09c41.65,0,75.54-31.84,75.54-71s-33.89-71-75.54-71H1744.37a5.31,5.31,0,1,0,0,10.62,1.52,1.52,0,0,1,0,3,8.35,8.35,0,0,1,0-16.7h579.09c43.33,0,78.57,33.2,78.57,74S2366.79,1841.05,2323.46,1841.05Z" transform="translate(-62 -126.24)"/><path class="cls-16" d="M1918.81,1739.85s-18.24,45.43-7.73,78.88l14.82-22.9s10.12,12.14,16.33,22.9c0,0,11.31-74.7,33.25-78.88Z" transform="translate(-62 -126.24)"/><path class="cls-26" d="M2307.51,1596.21s18.24,45.43,7.73,78.88l-14.82-22.9s-10.12,12.14-16.32,22.9c0,0-11.32-74.7-33.26-78.88Z" transform="translate(-62 -126.24)"/><path class="cls-11" d="M1942.46,1508.9s-18.24,45.44-7.73,78.88l14.82-22.9s10.12,12.15,16.32,22.9c0,0,11.32-74.7,33.26-78.88Z" transform="translate(-62 -126.24)"/><path class="cls-28" d="M2358.61,1741.37H1765.73a1.52,1.52,0,0,1,0-3h592.88a1.52,1.52,0,0,1,0,3Z" transform="translate(-62 -126.24)"/><path class="cls-28" d="M2377.93,1597.73H1785.05a1.52,1.52,0,0,1,0-3h592.88a1.52,1.52,0,0,1,0,3Z" transform="translate(-62 -126.24)"/><path class="cls-28" d="M2255.15,1510.42H1855.66a1.52,1.52,0,0,1,0-3h399.49a1.52,1.52,0,0,1,0,3Z" transform="translate(-62 -126.24)"/><polygon class="cls-9" points="2063.04 1482.72 2084.15 1494.59 2109.39 1469.76 2110.07 1465.74 2103.89 1420.57 2054.77 1429.71 2063.04 1482.72"/><path class="cls-16" d="M2161.11,1622.14l-67.71,9.22a11.51,11.51,0,0,1-1.52-.1c-6.64-1.09-5.11-5.42-5.11-5.42l29.68-24.54.22-3c.35-4.85,5.95-7.31,10.75-4.72l12.47,6.74s29.32.42,32.18-8.31l2.65,21.29S2177.84,1619.75,2161.11,1622.14Z" transform="translate(-62 -126.24)"/><polygon class="cls-9" points="1975.55 1485.62 1996.66 1497.48 2021.9 1472.66 2022.58 1468.63 2016.4 1423.46 1967.28 1432.61 1975.55 1485.62"/><path class="cls-16" d="M2073.62,1625l-67.71,9.22a11.51,11.51,0,0,1-1.52-.1c-6.64-1.08-5.11-5.42-5.11-5.42l29.68-24.54.22-3c.35-4.86,6-7.32,10.75-4.73l12.47,6.74s29.33.42,32.18-8.31l2.65,21.3S2090.35,1622.65,2073.62,1625Z" transform="translate(-62 -126.24)"/><path class="cls-5" d="M2203.14,1427.62s84.46,4,107.91-1.23,29.23-78.41,2.6-123.26-119.8,92.85-119.8,92.85Z" transform="translate(-62 -126.24)"/><path class="cls-6" d="M2150.9,1318.91s-117.61,18.3-121,31.93-13.18,158.61-5.87,220.46c0,0,44.8,3.08,66.23-2.11l5.22-150.81,35.36-4.06,81-97.4Z" transform="translate(-62 -126.24)"/><path class="cls-5" d="M2208.11,1327.43s-91.07,25.69-94.48,39.33-13.11,143-5.8,204.86c0,0,48.17,2.76,69.6-2.43l5.78-142.26,20.78.72,50.39-88.65Z" transform="translate(-62 -126.24)"/><path class="cls-29" d="M2264.57,1153.91s40.25.68,49.61,6.2,52.21,76.13,61.46,106.08c0,0-24.19,21.19-55.36,22l-7.48-14.12,4.28,28.91-81.64,24.21a133.87,133.87,0,0,1-84.42-2.74l-8.48-3.13s.13-137.4,24.68-151.92C2189.08,1156.47,2236.44,1149.66,2264.57,1153.91Z" transform="translate(-62 -126.24)"/><path class="cls-9" d="M2214,1086.4v38.9s-.55,13.15,11,14.79l-2.14,17.55a13.68,13.68,0,0,0,9.36,14.74,35.89,35.89,0,0,0,10.86,1.68c13.15,0,20.28-9.86,21.37-14.79s-2.19-28.49-2.19-28.49l.4-11.58-1.5-44.85Z" transform="translate(-62 -126.24)"/><path class="cls-20" d="M2245.73,1105.85a.54.54,0,0,0,.38-.15.55.55,0,0,0,0-.78c-.08-.08-7.61-7.78-14.5-2.24a.55.55,0,0,0-.08.77.54.54,0,0,0,.77.09c6.1-4.92,12.74,1.85,13,2.14A.56.56,0,0,0,2245.73,1105.85Z" transform="translate(-62 -126.24)"/><path class="cls-20" d="M2223.15,1102.56a.53.53,0,0,0,.41-.19.54.54,0,0,0,0-.77c-.22-.19-5.45-4.66-8.75-1.83a.55.55,0,0,0,.71.84c2.59-2.22,7.27,1.78,7.32,1.82A.53.53,0,0,0,2223.15,1102.56Z" transform="translate(-62 -126.24)"/><circle cx="2174.3" cy="981.83" r="1.64"/><circle cx="2156.83" cy="980.18" r="1.64"/><path class="cls-20" d="M2259.57,1076.51l-9.17,13s-27.79,10.79-42-2-9.86-18.92-5.69-25.32c2.06-3.15,11.89-9.58,23.94-4.23,6.58,2.93,11.44-5.79,19.11-1.41s16.72,12,15.71,15S2259.57,1076.51,2259.57,1076.51Z" transform="translate(-62 -126.24)"/><path class="cls-20" d="M2259,1071s12.65-.61,16.18,11.57-1.22,18.55-1.34,22.18,2.34,28.1-14.84,26.27l-4.64-40.42,6-16.09Z" transform="translate(-62 -126.24)"/><circle class="cls-9" cx="2196.09" cy="981.26" r="9.86"/><path class="cls-13" d="M2258.82,1113.54a4.11,4.11,0,0,0,3.87-3.08,3.87,3.87,0,0,0-1.56-4.51,4.66,4.66,0,0,0-5.18.18,4.46,4.46,0,0,1,2-2.42,6.26,6.26,0,0,1,4.38-.29.27.27,0,1,0,.17-.52,6.69,6.69,0,0,0-4.81.32,5.35,5.35,0,0,0-2.51,3.6l-.24,1,.7-.69a4.28,4.28,0,0,1,5.21-.66,3.34,3.34,0,0,1,1.32,3.88,3.52,3.52,0,0,1-3.34,2.69h-.05a.28.28,0,0,0-.28.27.28.28,0,0,0,.27.28Z" transform="translate(-62 -126.24)"/><path class="cls-13" d="M2251.62,1128.92s-.77,22-28.26,24.11l1.58-12.94S2242.77,1143.67,2251.62,1128.92Z" transform="translate(-62 -126.24)"/><path class="cls-8" d="M2313.9,1275.84c34-5.28,54.14-25.63,54.34-25.84l-1.18-1.14c-.19.2-20,20.16-53.41,25.36Z" transform="translate(-62 -126.24)"/><path class="cls-8" d="M2148.52,1573.31c21.29,0,28.88-3.21,29.24-3.37l.47-.2,5.59-143.1-8.79,4.15.7,1.48,6.34-3-5.44,139.33c-2.3.8-13.34,4-39.42,2.78l-.07,1.64Q2143.38,1573.32,2148.52,1573.31Z" transform="translate(-62 -126.24)"/><path class="cls-8" d="M2168.49,1542.45c2.27-8.76,2.92-94.24,3-97.88h-1.65c0,.89-.67,88.91-2.89,97.48Z" transform="translate(-62 -126.24)"/><path class="cls-8" d="M2083.86,1421.6c10.79-3.49,25.66-4,25.81-4l-.06-1.65c-.15,0-15.24.54-26.26,4.11Z" transform="translate(-62 -126.24)"/><path class="cls-8" d="M2059.56,1573a146.3,146.3,0,0,0,30.87-3l.61-.15,5.27-152.49-6.73,5.42,1,1.28,3.94-3.16-5.11,147.64a149.83,149.83,0,0,1-31.48,2.82V1573Z" transform="translate(-62 -126.24)"/><path class="cls-8" d="M2082.47,1545.63c2.26-13.24.1-102.84,0-106.65l-1.65,0c0,.93,2.25,93.25,0,106.33Z" transform="translate(-62 -126.24)"/><polygon class="cls-30" points="2133.14 1230.08 2167.55 1211.18 2123.12 1202.95 2133.14 1230.08"/><path class="cls-11" d="M2193.85,1354.16c.58-.37,33.27-17.73,33.27-17.73l.51,2-32.49,17.85Z" transform="translate(-62 -126.24)"/><path class="cls-9" d="M2163.71,1334.49,2173,1320h0c5.12-8.28,13.4-19.15,22-20.11,14.08-1.57,99.85-5.1,127.07-8.45,0,0-1.87-3.28-1.83-3.27.32.07,22.25-3.74,22.25-3.74l14.13-6.69,12.7-5.49c3.5,13.66,13.13,36.11,3.26,51.75-18.24,28.9-157.73,14.67-170.11,10.89l-11.39,12.34-2.33,3.58a3.66,3.66,0,1,1-6.13-4l-1,1.5a3.66,3.66,0,0,1-5.06,1.07h0a3.66,3.66,0,0,0-6.13-4,3.66,3.66,0,0,1-1.07-5.06l1-1.49a3.66,3.66,0,0,1-5.06,1.07h0l-.2-.14,0,0-.1-.07h0a3.5,3.5,0,0,1-.59-.63A4,4,0,0,1,2163.71,1334.49Z" transform="translate(-62 -126.24)"/><path class="cls-8" d="M2319.85,1289.31h.52c27.71-.65,55.56-22,55.84-22.17l.51-.39-17.57-38.94-1.5.68,17,37.74c-3.89,2.87-28.9,20.6-53.83,21.42l-7.55-15.35-1.47.73Z" transform="translate(-62 -126.24)"/><path class="cls-13" d="M2331.9,1304.88a.56.56,0,0,0,.46-.11.55.55,0,0,0,.09-.77l-10-12.85a.55.55,0,1,0-.87.67l10,12.86A.58.58,0,0,0,2331.9,1304.88Z" transform="translate(-62 -126.24)"/><path class="cls-13" d="M2168.8,1341a.55.55,0,0,0,.57-.21l13.06-17.94a.54.54,0,0,0-.88-.64l-13.07,17.94a.54.54,0,0,0,.12.76A.4.4,0,0,0,2168.8,1341Z" transform="translate(-62 -126.24)"/><path class="cls-13" d="M2174.54,1346.21a.54.54,0,0,0,.58-.23l12.47-18.49a.55.55,0,0,0-.91-.61l-12.47,18.49a.55.55,0,0,0,.15.76A.42.42,0,0,0,2174.54,1346.21Z" transform="translate(-62 -126.24)"/><path class="cls-13" d="M2181.47,1349.56a.55.55,0,0,0,.58-.23l10.37-15.68a.55.55,0,1,0-.91-.61l-10.38,15.68a.56.56,0,0,0,.16.76A.71.71,0,0,0,2181.47,1349.56Z" transform="translate(-62 -126.24)"/><path class="cls-8" d="M2239.31,1429.16c-41.65,0-66.82-2.8-67.2-2.84l.19-1.63c.56.06,57,6.34,141.29,0l.12,1.64C2285.44,1428.45,2260.29,1429.16,2239.31,1429.16Z" transform="translate(-62 -126.24)"/><rect class="cls-8" x="2145.73" y="1242.86" width="69.82" height="1.64" transform="translate(806.71 3257.71) rotate(-88.19)"/><polygon class="cls-11" points="1991.43 1113.27 2006.26 1219.58 2133.14 1230.08 2128.82 1114.41 1991.43 1113.27"/><rect class="cls-8" x="2303.24" y="1210.82" width="1.64" height="81.88" transform="translate(-369.96 895.43) rotate(-23.48)"/><rect class="cls-8" x="2312.84" y="1269.52" width="1.64" height="22.8" transform="translate(-236.67 259.16) rotate(-9.18)"/><path class="cls-13" d="M2228.86,1119.15a.27.27,0,0,0,.08-.53l-5.49-1.82,1.74-12.92a.28.28,0,0,0-.55-.07l-1.79,13.37,5.92,2Z" transform="translate(-62 -126.24)"/><path class="cls-31" d="M2233.11,1124.49c-.17,0-10.85-.29-10.85-.29s1.34,4.42,5.31,4.52S2233.11,1124.49,2233.11,1124.49Z" transform="translate(-62 -126.24)"/><circle class="cls-14" cx="2057.73" cy="1163.08" r="4.83"/><circle class="cls-20" cx="1246" cy="238.76" r="23"/><circle class="cls-20" cx="1304" cy="292.76" r="10"/><circle class="cls-20" cx="653" cy="546.76" r="23"/><circle class="cls-20" cx="457" cy="866.76" r="23"/><circle class="cls-20" cx="599" cy="633.76" r="10"/><circle class="cls-20" cx="299" cy="809.76" r="10"/><circle class="cls-20" cx="1423" cy="598.76" r="23"/><circle class="cls-20" cx="1335" cy="636.76" r="10"/><circle class="cls-20" cx="1502" cy="707.76" r="18"/><circle class="cls-20" cx="2404" cy="925.76" r="23"/><circle class="cls-20" cx="1959" cy="1039.76" r="23"/><circle class="cls-20" cx="2316" cy="963.76" r="10"/><circle class="cls-20" cx="2016" cy="937.76" r="10"/><circle class="cls-20" cx="2483" cy="1034.76" r="18"/><polygon class="cls-3" points="1354 856.76 1354 1330.76 1707 1330.76 1707 934.76 1631 856.76 1354 856.76"/><polygon class="cls-28" points="1707 934.91 1631.44 856.76 1631.44 934.91 1707 934.91"/><path class="cls-28" d="M1659,1042H1505a4,4,0,0,1-4-4h0a4,4,0,0,1,4-4h154a4,4,0,0,1,4,4h0A4,4,0,0,1,1659,1042Z" transform="translate(-62 -126.24)"/><path class="cls-28" d="M1680,1073H1484a4,4,0,0,1-4-4h0a4,4,0,0,1,4-4h196a4,4,0,0,1,4,4h0A4,4,0,0,1,1680,1073Z" transform="translate(-62 -126.24)"/><path class="cls-28" d="M1732,1147H1448a4,4,0,0,1-4-4h0a4,4,0,0,1,4-4h284a4,4,0,0,1,4,4h0A4,4,0,0,1,1732,1147Z" transform="translate(-62 -126.24)"/><path class="cls-28" d="M1732,1182H1448a4,4,0,0,1-4-4h0a4,4,0,0,1,4-4h284a4,4,0,0,1,4,4h0A4,4,0,0,1,1732,1182Z" transform="translate(-62 -126.24)"/><path class="cls-28" d="M1732,1217H1448a4,4,0,0,1-4-4h0a4,4,0,0,1,4-4h284a4,4,0,0,1,4,4h0A4,4,0,0,1,1732,1217Z" transform="translate(-62 -126.24)"/><path class="cls-28" d="M1732,1287H1448a4,4,0,0,1-4-4h0a4,4,0,0,1,4-4h284a4,4,0,0,1,4,4h0A4,4,0,0,1,1732,1287Z" transform="translate(-62 -126.24)"/><path class="cls-28" d="M1732,1322H1448a4,4,0,0,1-4-4h0a4,4,0,0,1,4-4h284a4,4,0,0,1,4,4h0A4,4,0,0,1,1732,1322Z" transform="translate(-62 -126.24)"/><path class="cls-28" d="M1732,1412H1448a4,4,0,0,1-4-4h0a4,4,0,0,1,4-4h284a4,4,0,0,1,4,4h0A4,4,0,0,1,1732,1412Z" transform="translate(-62 -126.24)"/><path class="cls-8" d="M1064.3,1837.44l1.07,1.56.65,1.48h4.16L691.47,1297.05a1.52,1.52,0,1,0-2.49,1.73l375.38,538.66Z" transform="translate(-62 -126.24)"/><rect class="cls-8" y="1712.76" width="2606" height="8"/></g></g></svg>