<svg id="Слой_1" data-name="Слой 1" xmlns="http://www.w3.org/2000/svg" viewBox="0 0 2915.51 1527.73"><defs><style>.cls-1{fill:#ebf3fa;}.cls-2{fill:#dfebfd;}.cls-3{fill:#bed7fb;}.cls-4{fill:#9ec3f6;}.cls-5{fill:#cde0fb;}.cls-6{fill:#fff;}.cls-7{fill:#adcbf9;}.cls-12,.cls-8{fill:#d86713;}.cls-9{fill:#f99746;}.cls-10{fill:#ee9849;}.cls-11{fill:#f1a34f;}.cls-12{opacity:0.4;}.cls-13{fill:#699dee;}.cls-14{fill:#e9f3fe;}.cls-15{fill:#afcdfb;}.cls-16{fill:#2b478b;}.cls-17{fill:#233862;}.cls-18{fill:#c65447;}.cls-19{fill:#ffb27d;}.cls-20{fill:#e2915a;}.cls-21{fill:#fcecdb;}.cls-22{fill:#548ee2;}.cls-23{fill:#f4d2b8;}.cls-24{fill:#568cdb;}.cls-25{fill:#b5453c;}.cls-26{fill:#ed7d2b;}.cls-27{fill:#ed975d;}.cls-28{fill:#ebf3ff;}.cls-29{fill:#2e3552;}</style></defs><path class="cls-1" d="M367.52,1785.65S30.05,1423.31,310.45,1031C559.24,683,849.31,706.76,1062.12,848c90.65,60.16,352,7.42,574.4-346.75,303.32-483,1354.76-190,1163.05,553-92.78,359.6,282.35,372.67,91.21,732.13Z" transform="translate(-172.65 -261.56)"/><rect class="cls-2" x="468.4" y="1361.83" width="324.59" height="324.59" transform="translate(-1038.16 568.21) rotate(-42.63)"/><rect class="cls-3" x="380.63" y="1396.08" width="324.59" height="65.37" transform="translate(-996.76 483.58) rotate(-42.63)"/><polygon class="cls-4" points="1165.05 92.41 1328.82 115.77 1220.14 41.69 1214.62 65.44 1174.79 72.65 1165.05 92.41"/><polygon class="cls-5" points="1328.82 115.77 1192.54 45.5 1058.97 38.79 1328.82 115.77"/><polygon class="cls-5" points="1220.14 41.69 1328.82 115.77 1244.69 0 1220.14 41.69"/><path class="cls-6" d="M2253.47,677.05l-41.19,29.56-41.41-29.24a50.7,50.7,0,0,1,82.6-.32Z" transform="translate(-172.65 -261.56)"/><path class="cls-6" d="M2212.28,583.89A122.42,122.42,0,0,0,2112.07,636l26.15,18.36a90.54,90.54,0,0,1,147.69-.53l26-18.68A122.53,122.53,0,0,0,2212.28,583.89Z" transform="translate(-172.65 -261.56)"/><path class="cls-6" d="M2212.28,447c-87.61,0-165.09,43.54-212.05,110.13l26.15,18.36a227.36,227.36,0,0,1,370.84-1.39l25.93-18.68A259,259,0,0,0,2212.28,447Z" transform="translate(-172.65 -261.56)"/><path class="cls-6" d="M2212.28,521.88A185.31,185.31,0,0,0,2061.06,600l26.15,18.36a153.61,153.61,0,0,1,249.5-1l25.93-18.57A185.25,185.25,0,0,0,2212.28,521.88Z" transform="translate(-172.65 -261.56)"/><path class="cls-7" d="M1357.84,856.41l-37.76-.87c12.13,15.73,14.85,30.22,7.3,42.47-7.55,12.51-25.63,22.79-52.62,30.59a487.95,487.95,0,0,0-112.18-515.34C1072.17,322.85,950,270.37,817.74,270.37A484.8,484.8,0,0,0,606.5,318.29l-.06,0c-21-6.4-41.41-11.65-61.13-15.64-99.51-20.2-170.13-6.24-198.82,39.3-27.3,43.31-12.43,108.5,41.74,184.54l0,0a490.11,490.11,0,0,0-32.32,74.3c-101.78,6.06-156.26,24-176.07,56.42C156.78,695,188.24,745.72,288.9,795c13.87,6.81,28.73,13.49,44.33,20.18,12.06,106,60.33,208.66,139.54,287.88a489.29,489.29,0,0,0,155,104.5c177.89,75,390,39.91,534.78-104.5A485.77,485.77,0,0,0,1265.1,952.5c49.65-10.28,82.34-26.38,95.34-47.68C1369.48,890.09,1368.37,873.75,1357.84,856.41Zm-116.51,79.87c-33.06,5.94-74.3,9.41-122.46,9.9-74.74.91-160.58-5-251-16.91q11.42-24.85,22.35-51a690.43,690.43,0,0,0,81.3,22.1c29.76,6,56.92,9,81.17,9,56.82,0,97.54-16.4,117.65-48.32a83.5,83.5,0,0,0,8.09-16.72h-29c-.48.88-1,1.75-1.53,2.6-14.93,23.71-48.31,36-95.18,35.95-22.41,0-47.93-2.8-76-8.5a660.51,660.51,0,0,1-76.51-20.69q10.46-26.18,20.3-53.3c17.66-48.69,32.78-96.95,45-143.3,99.1,14.61,202.64,15,302.1,7.55a462.14,462.14,0,0,1,9.47,93.45A456.69,456.69,0,0,1,1241.33,936.28ZM637.79,1178.07c-14.09-5.11-21.25-25.33-24.77-41.4-5.56-25.39-6.56-61-2.9-103.12,1.85-21.28,4.82-43.9,8.83-67.57a1256.44,1256.44,0,0,1,170.62,59c-12.54,21.63-25.23,41.69-37.91,59.87-24.16,34.64-47.79,61.36-68.33,77.28C670.33,1172.24,651.88,1183.18,637.79,1178.07Zm164.54-175.69a1281.51,1281.51,0,0,0-178.74-61.9q3.2-16.47,7-33.5,25.24,5.73,51.18,11.09c50.58,10.35,101,19.13,150.42,26.24C822.42,964.54,812.44,984,802.33,1002.38ZM692.93,899.75q-29.32-6-57.73-12.59c8.91-37.07,19.86-75.72,32.63-115.11,66.43,40.83,134,74.05,197.94,97.62q-12,28.74-24.68,55.92C792.5,918.62,742.8,910,692.93,899.75ZM530.69,399.29c36.93,75.64,108.08,138,184.65,179.31C696.79,619,679.12,662.16,662.88,707q-4.54,12.52-8.86,25C557,668.8,474.83,596.32,420.94,526.18l0,0A461.73,461.73,0,0,1,530.69,399.29Zm414.93-70c14.09,5.11,21.24,25.33,24.76,41.4,5.56,25.39,6.57,61,2.91,103.12-4,46.05-13.23,98.36-26.95,154.06-67.49-11.61-134.93-30.76-197-60.89,26.47-55.19,54.45-104.4,82.43-144.51,24.16-34.64,47.79-61.36,68.33-77.28,10.72-8.31,25.15-17.2,37.78-17.2A22.79,22.79,0,0,1,945.62,329.29ZM939.92,653c-11.91,44.81-26.59,91.49-43.68,138.62q-9.88,27.25-20.43,53.58c-64.21-23.57-132.37-57.29-199.37-98.94q5.19-15.19,10.73-30.46c15.88-43.79,33.12-85.94,51.19-125.4C801.6,621,870.11,640.8,939.92,653Zm202.6-219.78a458,458,0,0,1,119.1,206c-105.9,7.75-202.94,5.32-289.68-7.24C985.7,575.69,995,522.78,999,476.05c4.49-51.61,3.94-112.74-17-147.13A456.75,456.75,0,0,1,1142.52,433.19ZM817.74,298.6a459.71,459.71,0,0,1,93.72,9.56c-36.09,15.71-72.94,59.43-100.91,99.53-28.62,41-57.21,91.26-84.2,147.47-72.87-39.59-141.7-100.29-174.6-171.79A457.91,457.91,0,0,1,817.74,298.6ZM368.9,356.1c14.93-23.71,48.31-36,95.18-36,22.41,0,47.93,2.8,76,8.49q16,3.24,32.58,7.61h0C505.76,375,446.82,431,402.94,501.17l0,0C361.5,439.72,349.05,387.58,368.9,356.1Zm38.25,195.47v0C463.91,622.47,547.56,695,645.29,757.88c-13.86,42.17-25.68,83.62-35.23,123.35-81-19.61-175.21-47.34-249.59-78.8a457.47,457.47,0,0,1,46.68-250.86ZM311.44,780.39c-87.79-42.85-127.91-84.2-110-113.55C216,643.07,268.72,627,349.45,621c-16.28,54.93-21.94,112-18.57,168.52C324.19,786.58,317.75,783.48,311.44,780.39Zm294,120.73q-3.75,16.75-6.93,33-8.44-2.05-16.91-4c-95.3-21.69-166.81-26.1-200-26.85a448.93,448.93,0,0,1-18.08-75.85C428.49,852.41,501.57,876.37,605.44,901.12ZM391.24,929.5c35.35,1.42,100.9,6.78,184.63,25.84,6,1.36,12,2.79,18,4.25-4.31,25.13-7.49,49.15-9.45,71.72-3.72,42.77-4,92.08,7.94,127.3A461.88,461.88,0,0,1,391.24,929.5Zm287.18,266.6c34-17.82,68.14-58.73,94.43-96.43,13.57-19.44,27.12-41,40.51-64.19a1298.47,1298.47,0,0,1,221,127.88A460.14,460.14,0,0,1,678.42,1196.1Zm464.1-113.1a456,456,0,0,1-83.57,66.24A1324.81,1324.81,0,0,0,826,1012.87c11.2-20.53,22.24-42.21,33-64.85,74.59,9.89,146.3,15.82,211.77,17.35,17.08.5,33.67.5,49.77.37,41.73-.49,78.87-3,110.7-7.43A456.47,456.47,0,0,1,1142.52,1083Z" transform="translate(-172.65 -261.56)"/><path class="cls-8" d="M1132.1,932.53l-67.45,802s-7.07,48.61,29.09,48.7c59.46.14,295.93,0,295.93,0s-44.75-10.12-44.2-32.89c.63-26.84,78.83-825.38,78.83-825.38Z" transform="translate(-172.65 -261.56)"/><path class="cls-9" d="M1408.86,1768.66c-11.7,0-237.56.74-295.46,0-25.23-.32-29.66-22.44-29.87-36.76a72.1,72.1,0,0,1,.77-11.94l1.75-20.84,4.48-53.13,3.94-46.93,5.08-60.32,4.27-50.91L1151.75,918l292.2-7.58s-32.93,334.18-56.23,577.44c-2.6,27.1-5.07,53.09-7.36,77.35q-1.11,11.63-2.15,22.69c-2.16,23-4.13,44.15-5.85,62.81-.9,9.84-1.74,19-2.5,27.35-3,32.81-4.71,53.76-4.73,57.74a32.53,32.53,0,0,0,.57,6.49C1370.49,1767.82,1404.47,1768.66,1408.86,1768.66Z" transform="translate(-172.65 -261.56)"/><polygon class="cls-9" points="249.82 234.56 414.11 894.49 436.6 984.87 513.12 1292.24 1934.73 1292.24 1652.69 234.56 249.82 234.56"/><polygon class="cls-10" points="249.81 234.56 227.04 242.15 482.85 1315.2 513.12 1292.24 249.81 234.56"/><polygon class="cls-8" points="482.85 1315.2 1895.71 1315.2 1934.72 1292.24 513.12 1292.24 482.85 1315.2"/><rect class="cls-11" x="1151.65" y="1768.98" width="305.9" height="14.54" transform="translate(2436.56 3290.93) rotate(180)"/><polygon class="cls-11" points="1865.86 1097.35 1635.18 248.54 247.54 248.54 247.54 234.56 1652.69 234.56 1882.59 1095.46 1865.86 1097.35"/><polygon class="cls-8" points="1207.15 1315.19 1205.57 1326.31 917.88 1384.43 921.83 1337.49 923.71 1315.19 1207.15 1315.19"/><path class="cls-12" d="M1408.86,1768.66c-11.7,0-237.56.74-295.46,0-25.23-.32-29.66-22.44-29.87-36.76L1369.86,1678c-3,32.81-4.71,53.76-4.73,57.74a32.53,32.53,0,0,0,.57,6.49C1370.49,1767.82,1404.47,1768.66,1408.86,1768.66Z" transform="translate(-172.65 -261.56)"/><polygon class="cls-12" points="1137.61 1078.13 513.12 1292.24 436.6 984.87 1137.61 1078.13"/><polygon class="cls-13" points="249.81 234.56 1652.69 234.56 1880.31 1084.6 454.21 1084.6 249.81 234.56"/><path class="cls-8" d="M1434.26,1453.62c-4-20.84-24.24-37.74-45.08-37.74s-34.47,16.9-30.41,37.74,24.23,37.75,45.08,37.75S1438.31,1474.47,1434.26,1453.62Z" transform="translate(-172.65 -261.56)"/><polygon class="cls-14" points="1814.15 1047.77 500.63 1047.77 351.87 455.18 340.48 409.74 330.74 370.98 322.96 339.95 307.93 280.09 1602.51 280.09 1603.42 283.38 1619 339.95 1627.56 370.98 1638.25 409.74 1650.78 455.18 1814.15 1047.77"/><polygon class="cls-14" points="1814.15 1049.79 500.63 1049.79 351.87 457.21 340.48 411.77 330.74 373.01 322.96 341.97 307.93 282.12 1602.51 282.12 1603.42 285.41 1619 341.97 1627.56 373.01 1638.25 411.77 1650.78 457.21 1814.15 1049.79"/><polygon class="cls-15" points="1619 339.95 322.96 339.95 307.93 280.09 1602.02 280.09 1603.42 283.38 1619 339.95"/><path class="cls-14" d="M516.59,571.58c-1.57-6.27,2.25-11.36,8.53-11.36s12.63,5.09,14.19,11.36S537.06,583,530.78,583,518.15,577.86,516.59,571.58Z" transform="translate(-172.65 -261.56)"/><ellipse class="cls-14" cx="565.7" cy="571.58" rx="10.03" ry="12.87" transform="translate(-409.84 355.67) rotate(-48.55)"/><path class="cls-14" d="M595,571.58c-1.57-6.27,2.25-11.36,8.53-11.36s12.63,5.09,14.19,11.36S615.46,583,609.18,583,596.55,577.86,595,571.58Z" transform="translate(-172.65 -261.56)"/><path class="cls-16" d="M1082.45,1311.36H952.57c-1.24-10.15-2.34-20.88-3.33-32.08-1.74-20.07-3.08-41.67-4.06-64.13-.24-5.19-.44-10.41-.63-15.68-.25-6.7-.47-13.48-.66-20.29-.32-11.57-.57-23.27-.75-35a.06.06,0,0,1,0,0c-.22-15-.34-30.12-.37-45.17h0c0-3.76,0-7.52,0-11.26v0c0-3.53,0-7,0-10.54.11-32.4.6-64.18,1.29-93.73C945.55,918,948,863.5,949.27,837.31h0c.52-10.75.86-16.73.86-16.73l0,0c.29,0,2.26.4,5.36,1.15,2.28.55,5.17,1.31,8.45,2.32h0c3,.89,6.23,2,9.67,3.31h0a113.07,113.07,0,0,1,18.08,8.73l.28.14c9.69,6,18.45,14,22.45,24.54,3.43,9,11.45,57.06,21.15,121,.27,1.82.55,3.65.83,5.51,5.12,33.93,10.67,72,16.24,110.88,5.9,41.19,11.79,83.27,17.21,122.26C1074.56,1253.84,1078.85,1285,1082.45,1311.36Z" transform="translate(-172.65 -261.56)"/><path class="cls-17" d="M1046.08,1311.36H894.9c-2.9-12.47-5.62-24.5-8-35.79-6.64-31.1-11-56.59-10.77-70.28a20.47,20.47,0,0,1,6.7-15.3,33.13,33.13,0,0,1,10.83-6.4c12.75-4.84,31.08-5.63,50.26-4.41,6.52.41,13.13,1,19.65,1.83a572.64,572.64,0,0,1,69.28,13.26s2.23,9,4.87,24.78c2,11.83,4.19,27.47,5.83,45.94,1,10.73,1.72,22.42,2.15,34.88Q1045.85,1305.49,1046.08,1311.36Z" transform="translate(-172.65 -261.56)"/><path class="cls-18" d="M976.26,1205.47l-1.51,10.92-7.32,53-1.24,9-4.54,32.88H804.1c-1.23-21.73-2.36-42.91-2.57-61.37q0-3.06,0-6c0-27.79,2.45-48.4,10.42-53.61,9-5.89,39-4.28,70.89-.37,3.18.38,6.38.8,9.58,1.23,18.6,2.5,37.2,5.59,52.17,8.25,7.76,1.38,14.54,2.65,19.81,3.66C971.81,1204.55,976.26,1205.47,976.26,1205.47Z" transform="translate(-172.65 -261.56)"/><path class="cls-6" d="M801.49,847.92s86.56-56,148.64-27.34c9.89,4.56,21.18,17.29,29.26,26.19,22.44,24.73,66.28,417.52,66.28,417.52S921.2,1306.45,801.49,1250Z" transform="translate(-172.65 -261.56)"/><path class="cls-16" d="M955.05,819.16s87.63,35.91,99.5,63.5,50.44,197,50.44,216.9-67.17,4.44-78-27.6c-9-26.61-39.26-108.36-55.23-160.07Z" transform="translate(-172.65 -261.56)"/><path class="cls-19" d="M936.86,846.52c-19.13,3.75-47.23-.25-67.8-13.81,9.28-22.18,13.09-39.7,14.45-51,.08-.6.13-1.19.19-1.75a51.55,51.55,0,0,0,.24-11.69H933.4s13.51,6.18,13.51,10.45c0,2.29,0,4.47.06,6.56.1,5.69.33,10.65.63,14.91.94,13.88,2.53,20.42,2.53,20.42S956.17,842.73,936.86,846.52Z" transform="translate(-172.65 -261.56)"/><path class="cls-20" d="M947.6,800.16c-37.47,7.24-59.22-13.23-64.09-18.48-.7-.75-1-1.2-1-1.2.39-.2.81-.37,1.24-.55,13.95-5.65,45.6-1.16,63.27,5.32C947.07,790.94,947.3,795.9,947.6,800.16Z" transform="translate(-172.65 -261.56)"/><path class="cls-19" d="M871.27,760.11c6.69,36,53.19,34.85,73.28,32.58,5.66-.63,9.21-1.35,9.21-1.35,6.38-1.7,9.94-11.74,11.59-24.9,3.28-26-.87-64.24-5.26-74-6.62-14.7-19.09-30.61-65.91-19.13S862.68,713.94,871.27,760.11Z" transform="translate(-172.65 -261.56)"/><path class="cls-17" d="M961.83,672.32c-6.4-8.86-20-19.68-32.29-26.35-26.48-14.32-60.36.45-60.5.51-38.25,16.82-48.23,46.08-28,91.66,21.44,48.19,41.86,42.77,41.86,42.77s-4.34-2.7-3.94-17.72c0-.85,0-1.56.09-2.18a10.11,10.11,0,0,0-3.19-8.22c-4.75-4.24-7.06-17.06-3.09-20.63,4.8-4.31,11.55.93,13.7,5A5.87,5.87,0,0,0,894.9,739c11.91-7.52,4.17-22.57,15.55-31.78s34.45-1.48,51.52-8.82C984.3,690,966.65,679,961.83,672.32Z" transform="translate(-172.65 -261.56)"/><path class="cls-16" d="M968,1311.36H779.51c1.35-39.08,3.08-85.74,4.9-133,.47-12.25,1-24.55,1.43-36.75.22-5.17.41-10.31.61-15.45,4.17-104.91,8.3-199.65,9.17-204.76,2-11.54,3.85-21.37,5.87-29.91,5.92-24.85,13.28-38.48,29.33-50.2,1.56-1.19,14.39-7.65,25.7-13.29,9.23-4.58,17.45-8.59,17.7-8.7h0c1.87.9,3.93,3.51,6.1,7.36a123.16,123.16,0,0,1,6.8,15c8.62,22.13,17.92,56,24.38,81.28a.45.45,0,0,1,0,.08.11.11,0,0,1,0,.05h0c4.17,16.33,7.16,29,8,32.69,1.44,6.16,3.35,18.08,5.6,34.22v0c3,22,6.68,51.88,10.52,85.78h0c.4,3.49.8,7,1.19,10.56.45,4.06.92,8.17,1.38,12.32h0c.15,1.34.3,2.68.43,4h0c1.49,13.43,3,27.27,4.46,41.36a.06.06,0,0,0,0,0c1.27,11.61,18.88,20,20.1,31.85.09.86.18,2.6.3,5,.22,5,.49,12.94.82,22.12.14,4.08.29,8.42.44,12.84.69,19.67,1.54,41.22,2.51,51.59,0,.49.09,1.11.12,1.87.11,2.07.2,5.11.28,8.94C967.87,1286.49,968,1298.12,968,1311.36Z" transform="translate(-172.65 -261.56)"/><path class="cls-17" d="M839.42,963.72c-.06.24-3,106.08,76.62,118.94s26.71,16.26,26.71,16.26-149.8-6.37-152.28-10.32S839.42,963.72,839.42,963.72Z" transform="translate(-172.65 -261.56)"/><path class="cls-17" d="M906.69,1128.1s-1.5,1.06-4.36,2.91l-.15.09C890,1138.85,854,1160,801.49,1174.16c-5.51,1.49-11.21,2.91-17.07,4.21.46-12.24,1-24.54,1.42-36.74a152.37,152.37,0,0,1-19.73-2.73c.21-1.61.43-3.22.63-4.84,6.68-2.74,13.32-5.38,19.72-7.88,5.21-2,10.25-4,15-5.78,21.56-8.19,37.55-13.73,37.55-13.73l63.82,20.21Z" transform="translate(-172.65 -261.56)"/><path class="cls-16" d="M923.58,1126.33s-8.2,2.05-21.25,4.68a.35.35,0,0,0-.14,0c-24.08,4.83-64.55,11.62-100.7,11.25-5.33-.06-10.57-.26-15.65-.66a152.37,152.37,0,0,1-19.73-2.73c-13.21-2.79-24.28-7.51-31.52-14.89-53.78-54.77,29.35-251.36,46.82-270.49,20.41-22.33,57.65-30.16,78.21-32.85l2.48-.32c7.23-.86,11.87-1,12.13-1.05h0s-1.62,5.19-4.32,14c-1,3.4-2.26,7.35-3.6,11.75-12.63,41.36-37,122.65-47.74,168.5-3.93,16.77-6,28.8-5.08,32.39,4.19,15.65,47.64,23.7,75.17,27.27,11.48,1.48,20.19,2.18,22.14,2.33a2.83,2.83,0,0,1,.41,0l1.59,6.53,3.81,15.65,3.75,15.39Z" transform="translate(-172.65 -261.56)"/><polygon class="cls-9" points="900.92 959 716.23 951.21 753.7 721.05 938.39 728.83 900.92 959"/><path class="cls-19" d="M911.22,1075.55s35.95-2.51,37.75,5.87c4.21,19.54-30.91,35.58-42.28,34.48S902.94,1074.25,911.22,1075.55Z" transform="translate(-172.65 -261.56)"/><path class="cls-19" d="M1100.94,1037.14s-34.4-10.76-38.09-3c-8.61,18,21.84,41.76,33.16,43.32S1109.29,1037.78,1100.94,1037.14Z" transform="translate(-172.65 -261.56)"/><path class="cls-17" d="M878,807.75s-15.13,7.2-22.71,18.08c0,0,56.53,98.16,56.28,97.24S892.43,820.32,878,807.75Z" transform="translate(-172.65 -261.56)"/><path class="cls-17" d="M948.38,809.13c5,1.88,14.53,11.66,16.68,17.07l6.72,85.69S957.43,849,950.13,820.58A47.77,47.77,0,0,1,948.38,809.13Z" transform="translate(-172.65 -261.56)"/><path class="cls-18" d="M987.57,985.2s1.46-6.39,9.87-5.65,55.63,3.07,55.63,3.07,9.11-.15,8.27,5.68Z" transform="translate(-172.65 -261.56)"/><path class="cls-6" d="M933.4,768.24a19.69,19.69,0,0,0,16,3.85c5.86-1,9.14-8.65,9.14-8.65S947.29,761.41,933.4,768.24Z" transform="translate(-172.65 -261.56)"/><polygon class="cls-6" points="1635.88 578.3 1499.46 578.8 1455.22 409.44 1591.64 408.93 1635.88 578.3"/><polygon class="cls-7" points="1557.81 431.19 1500.61 431.4 1499.95 428.89 1557.15 428.68 1557.81 431.19"/><polygon class="cls-7" points="1566.94 438.15 1495.12 438.42 1494.47 435.91 1566.29 435.64 1566.94 438.15"/><polygon class="cls-7" points="1586.69 472.62 1493.4 472.96 1492.75 470.46 1586.03 470.11 1586.69 472.62"/><polygon class="cls-7" points="1588.85 480.88 1495.56 481.22 1494.91 478.71 1588.19 478.37 1588.85 480.88"/><polygon class="cls-7" points="1591 489.13 1497.72 489.48 1497.06 486.97 1590.35 486.63 1591 489.13"/><polygon class="cls-7" points="1593.16 497.39 1499.88 497.74 1499.22 495.23 1592.5 494.88 1593.16 497.39"/><polygon class="cls-7" points="1595.32 505.65 1502.03 505.99 1501.38 503.49 1594.66 503.14 1595.32 505.65"/><polygon class="cls-7" points="1600.57 525.75 1507.28 526.09 1506.63 523.58 1599.91 523.24 1600.57 525.75"/><polygon class="cls-7" points="1602.72 534 1509.44 534.35 1508.78 531.84 1602.07 531.5 1602.72 534"/><polygon class="cls-7" points="1604.88 542.26 1511.6 542.61 1510.94 540.1 1604.22 539.75 1604.88 542.26"/><polygon class="cls-7" points="1607.04 550.52 1513.75 550.86 1513.1 548.36 1606.38 548.01 1607.04 550.52"/><polygon class="cls-7" points="1609.19 558.78 1515.91 559.12 1515.26 556.61 1608.54 556.27 1609.19 558.78"/><polygon class="cls-6" points="1690.85 788.75 1554.43 789.26 1510.19 619.89 1646.62 619.39 1690.85 788.75"/><polygon class="cls-7" points="1612.78 641.64 1555.58 641.85 1554.92 639.35 1612.13 639.14 1612.78 641.64"/><polygon class="cls-7" points="1621.91 648.6 1550.1 648.87 1549.44 646.36 1621.26 646.1 1621.91 648.6"/><polygon class="cls-7" points="1641.66 683.07 1548.38 683.42 1547.72 680.91 1641.01 680.57 1641.66 683.07"/><polygon class="cls-7" points="1643.82 691.33 1550.53 691.67 1549.88 689.17 1643.16 688.82 1643.82 691.33"/><polygon class="cls-7" points="1645.97 699.59 1552.69 699.93 1552.04 697.43 1645.32 697.08 1645.97 699.59"/><polygon class="cls-7" points="1648.13 707.85 1554.85 708.19 1554.19 705.68 1647.48 705.34 1648.13 707.85"/><polygon class="cls-7" points="1650.29 716.1 1557 716.45 1556.35 713.94 1649.63 713.6 1650.29 716.1"/><polygon class="cls-7" points="1655.54 736.2 1562.25 736.54 1561.6 734.04 1654.88 733.69 1655.54 736.2"/><polygon class="cls-7" points="1657.69 744.46 1564.41 744.8 1563.76 742.29 1657.04 741.95 1657.69 744.46"/><polygon class="cls-7" points="1659.85 752.72 1566.57 753.06 1565.91 750.55 1659.2 750.21 1659.85 752.72"/><polygon class="cls-7" points="1662.01 760.97 1568.72 761.32 1568.07 758.81 1661.35 758.47 1662.01 760.97"/><polygon class="cls-7" points="1664.16 769.23 1570.88 769.58 1570.23 767.07 1663.51 766.73 1664.16 769.23"/><polygon class="cls-6" points="1746.2 1000.62 1609.77 1001.13 1565.53 831.76 1701.96 831.26 1746.2 1000.62"/><polygon class="cls-7" points="1668.12 853.51 1610.92 853.72 1610.26 851.22 1667.47 851.01 1668.12 853.51"/><polygon class="cls-7" points="1677.25 860.47 1605.44 860.74 1604.78 858.23 1676.6 857.97 1677.25 860.47"/><polygon class="cls-7" points="1697 894.94 1603.72 895.29 1603.06 892.78 1696.35 892.44 1697 894.94"/><polygon class="cls-7" points="1699.16 903.2 1605.87 903.54 1605.22 901.04 1698.5 900.7 1699.16 903.2"/><polygon class="cls-7" points="1701.32 911.46 1608.03 911.8 1607.38 909.3 1700.66 908.95 1701.32 911.46"/><polygon class="cls-7" points="1703.47 919.72 1610.19 920.06 1609.53 917.55 1702.82 917.21 1703.47 919.72"/><polygon class="cls-7" points="1705.63 927.97 1612.35 928.32 1611.69 925.81 1704.97 925.47 1705.63 927.97"/><polygon class="cls-7" points="1710.88 948.07 1617.6 948.41 1616.94 945.91 1710.22 945.56 1710.88 948.07"/><polygon class="cls-7" points="1713.04 956.33 1619.75 956.67 1619.1 954.17 1712.38 953.82 1713.04 956.33"/><polygon class="cls-7" points="1715.19 964.59 1621.91 964.93 1621.25 962.42 1714.54 962.08 1715.19 964.59"/><polygon class="cls-7" points="1717.35 972.84 1624.07 973.19 1623.41 970.68 1716.69 970.34 1717.35 972.84"/><polygon class="cls-7" points="1719.51 981.1 1626.22 981.45 1625.57 978.94 1718.85 978.6 1719.51 981.1"/><polygon class="cls-6" points="1566.82 1002.05 1089.68 1003.81 952.36 478.09 1014.51 411.15 1412.09 409.69 1566.82 1002.05"/><polygon class="cls-7" points="1280.66 498.53 1112.5 499.15 1110.57 491.79 1278.73 491.17 1280.66 498.53"/><polygon class="cls-7" points="1307.51 519 1096.38 519.78 1094.46 512.41 1305.58 511.63 1307.51 519"/><polygon class="cls-7" points="1365.56 620.33 1091.33 621.34 1089.4 613.97 1363.63 612.96 1365.56 620.33"/><polygon class="cls-7" points="1371.9 644.6 1097.67 645.62 1095.74 638.25 1369.97 637.24 1371.9 644.6"/><polygon class="cls-7" points="1378.24 668.88 1104.01 669.89 1102.09 662.52 1376.31 661.51 1378.24 668.88"/><polygon class="cls-7" points="1384.58 693.15 1110.35 694.17 1108.43 686.8 1382.65 685.79 1384.58 693.15"/><polygon class="cls-7" points="1390.92 717.43 1116.69 718.44 1114.77 711.08 1388.99 710.06 1390.92 717.43"/><polygon class="cls-7" points="1406.35 776.5 1132.12 777.52 1130.2 770.15 1404.43 769.14 1406.35 776.5"/><polygon class="cls-7" points="1412.69 800.78 1138.46 801.79 1136.54 794.43 1410.77 793.41 1412.69 800.78"/><polygon class="cls-7" points="1419.03 825.06 1144.8 826.07 1142.88 818.7 1417.11 817.69 1419.03 825.06"/><polygon class="cls-7" points="1425.37 849.33 1151.14 850.35 1149.22 842.98 1423.45 841.97 1425.37 849.33"/><polygon class="cls-7" points="1431.71 873.61 1157.49 874.62 1155.56 867.25 1429.79 866.24 1431.71 873.61"/><polygon class="cls-7" points="952.36 478.09 1031.92 477.79 1014.51 411.15 952.36 478.09"/><path class="cls-21" d="M1713.15,1277.17h389.68a54.86,54.86,0,0,1,54.86,54.86v26.24a56.1,56.1,0,0,1-56.1,56.1H1713.15a0,0,0,0,1,0,0V1277.17A0,0,0,0,1,1713.15,1277.17Z"/><path class="cls-13" d="M2661.88,1595.18v20.64a60.1,60.1,0,0,1-60.11,60.11H1873.89a8.73,8.73,0,0,1-8.72-8.72v-3.09a8.73,8.73,0,0,1,8.72-8.71H2317.6a56.42,56.42,0,0,0,6.23-9.36,55.78,55.78,0,0,0,6.5-26.22v-26.24a54.53,54.53,0,0,0-12.08-34.33H1873.89a8.72,8.72,0,0,1-8.72-8.72v-3.08a8.72,8.72,0,0,1,8.72-8.72h731.54a56.38,56.38,0,0,1,56.45,56.44Z" transform="translate(-172.65 -261.56)"/><path class="cls-22" d="M2659.71,1579.63H2328.54a54.87,54.87,0,0,0-10.29-20.37H1873.89a8.72,8.72,0,0,1-8.72-8.72v-3.08a8.72,8.72,0,0,1,8.72-8.72h731.54A56.47,56.47,0,0,1,2659.71,1579.63Z" transform="translate(-172.65 -261.56)"/><polygon class="cls-23" points="1713.15 1345.77 1767.05 1348.08 1713.15 1349.46 1713.15 1345.77"/><polygon class="cls-23" points="1713.15 1367.29 1841.37 1369.6 1713.15 1370.99 1713.15 1367.29"/><path class="cls-16" d="M1923.4,1675.64h413.5a55,55,0,0,1,55,55v0a51.68,51.68,0,0,1-51.68,51.68H1923.4a0,0,0,0,1,0,0V1675.64A0,0,0,0,1,1923.4,1675.64Z" transform="translate(4142.69 3196.43) rotate(-180)"/><path class="cls-21" d="M2314.47,1675.64h470.6a53.73,53.73,0,0,1,53.73,53.73v.43a52.54,52.54,0,0,1-52.54,52.54h-471.8a0,0,0,0,1,0,0V1675.64A0,0,0,0,1,2314.47,1675.64Z" transform="translate(4980.63 3196.43) rotate(180)"/><path class="cls-16" d="M2283,1782.35h572.11a8,8,0,0,0,8-8h0a8,8,0,0,0-8-8H2283a8,8,0,0,0-8,8h0A8,8,0,0,0,2283,1782.35Z" transform="translate(-172.65 -261.56)"/><path class="cls-16" d="M2283,1691.6h572.11a8,8,0,0,0,8-8h0a8,8,0,0,0-8-8H2283a8,8,0,0,0-8,8h0A8,8,0,0,0,2283,1691.6Z" transform="translate(-172.65 -261.56)"/><polygon class="cls-23" points="2666.16 1467.43 2602.59 1469.22 2666.16 1470.31 2666.16 1467.43"/><polygon class="cls-23" points="2666.16 1442.87 2514.92 1444.67 2666.16 1445.75 2666.16 1442.87"/><path class="cls-13" d="M2689.12,1705.87s6.49,4.59,8.63,12.13a16.77,16.77,0,0,1,.67,4.21c.36,10,0,32.68,0,32.68l19.14-11.33,19.08,11.33v-30.72c0-5.81-1.63-11.46-4.67-15.15-1.48-1.8-3.26-3.15-5.29-3.15Z" transform="translate(-172.65 -261.56)"/><path class="cls-24" d="M2689.12,1705.87s6.49,4.59,8.63,12.13l38.35.44s-1.51-10.79-9.42-12.57Z" transform="translate(-172.65 -261.56)"/><path class="cls-21" d="M2257.43,1382.25h422.48a62.65,62.65,0,0,1,62.65,62.65v32.87a61.26,61.26,0,0,1-61.26,61.26H2257.43a0,0,0,0,1,0,0V1382.25A0,0,0,0,1,2257.43,1382.25Z" transform="translate(4827.34 2659.71) rotate(180)"/><path class="cls-25" d="M2267.37,1443.08v33.74a39,39,0,0,0,19.8,33.6,39.41,39.41,0,0,0,19.53,5.15h458.8a9.74,9.74,0,0,1,9.74,9.74v4a9.74,9.74,0,0,1-9.74,9.74H1972.91a67.13,67.13,0,0,1-67.13-67.13v-26.62a63,63,0,0,1,63-63H2765.5a9.73,9.73,0,0,1,9.74,9.73v4a9.74,9.74,0,0,1-9.74,9.73H2305.29a38,38,0,0,0-27.9,12.18A37.25,37.25,0,0,0,2267.37,1443.08Z" transform="translate(-172.65 -261.56)"/><polygon class="cls-23" points="2569.91 1199.07 2511.09 1201.71 2569.91 1203.29 2569.91 1199.07"/><polygon class="cls-23" points="2569.91 1162.99 2429.98 1165.63 2569.91 1167.21 2569.91 1162.99"/><path class="cls-9" d="M2604.07,1426.67s9.23,5,12.29,13.14a14.72,14.72,0,0,1,1,4.57c.51,10.86,0,35.43,0,35.43l27.26-12.28,27.2,12.28v-33.3c0-6.3-2.34-12.43-6.67-16.44a11.28,11.28,0,0,0-7.53-3.4Z" transform="translate(-172.65 -261.56)"/><path class="cls-26" d="M2604.07,1426.67s9.23,5,12.29,13.14l54.64.49s-2.14-11.7-13.42-13.63Z" transform="translate(-172.65 -261.56)"/><path class="cls-17" d="M2327.42,1324.12c24.19,42.08,54.6,58.33,54.6,58.33h126.54S2309,1292,2327.42,1324.12Z" transform="translate(-172.65 -261.56)"/><path class="cls-19" d="M2424.61,1649.76c3.29,3.78,3.71,8,2.08,12.51a.09.09,0,0,1,0,.06c-3,8.34-13,17.65-24.57,27-1.48,1.19-2.8,2.28-3.94,3.28-.3.27-.61.53-.89.8l-.68.61c-10.8,10-6.74,12.24-26.14,32.44-22.12,23-37.36,23.43-41.69,21.34-3.66-1.79,3.78-14,12-27.72.4-.66.79-1.33,1.2-2,1.1-1.83,2.19-3.68,3.28-5.51,9.67-16.52,7.19-24.27,4.9-48.84-1.87-20-31.07-111.58-31.07-111.58l42.39-7.31s12.77,73,26.84,84.18c7.52,6,15.94,6.07,23.17,10.5.51.31,1,.63,1.51,1C2417.12,1643.16,2421.3,1646,2424.61,1649.76Z" transform="translate(-172.65 -261.56)"/><path class="cls-17" d="M2424.61,1649.76c3.29,3.78,3.71,8,2.08,12.51a.09.09,0,0,1,0,.06c-3.7,8.33-13.42,17.6-24.61,26.87-1.46,1.21-2.75,2.33-3.9,3.37-.3.27-.61.53-.89.8l-.68.61c-10.8,10-6.74,12.24-26.14,32.44-22.12,23-37.36,23.43-41.69,21.34-3.66-1.79,3.78-14,12-27.72a94.36,94.36,0,0,0,39.43-29.06c13.33-17,22.21-38.84,31.28-51.5.51.31,1,.63,1.51,1C2417.12,1643.16,2421.3,1646,2424.61,1649.76Z" transform="translate(-172.65 -261.56)"/><path class="cls-19" d="M2082.74,1623.28c-2.62,13.09-21.28,10.9-42.12,5.81s-15.89,1-45.55-2.32-38.65-14.35-39.55-18.76c-.81-3.91,13.85-5.29,29.57-7.1,2-.22,4-.47,6-.71,17.75-2.23,30.74-13.68,46.87-23.09,15.27-8.91,38.06-45.21,38.06-45.21l40.68,3.22s-21.35,32.42-29.61,46.52c-4.85,8.29-4.6,19.26-4,27.72C2083.37,1614,2083.67,1618.67,2082.74,1623.28Z" transform="translate(-172.65 -261.56)"/><path class="cls-17" d="M2040.62,1629.09c-20.84-5.09-15.89,1-45.55-2.32s-38.65-14.35-39.55-18.76c-.81-3.91,13.85-5.29,29.57-7.1l.14.3a83.63,83.63,0,0,0,42.48,13.2c20.13.49,41.44-5.27,55.34-5.05.32,4.6.62,9.31-.31,13.92C2080.12,1636.37,2061.46,1634.18,2040.62,1629.09Z" transform="translate(-172.65 -261.56)"/><path class="cls-17" d="M2238.63,1363.17l38,102.32,49.64,133.61s13.48,1.3,26.38-2.41c11.88-3.43,25.51-12.41,25.51-12.41s-13.79-143.46-39.5-225.81c-6.59-21.14-14-38.24-22.13-47.86C2276.69,1263.49,2238.63,1363.17,2238.63,1363.17Z" transform="translate(-172.65 -261.56)"/><path class="cls-16" d="M2277.29,1200.66c24.92-8,96,2.28,167.35,16.25l15-24.65,154.17-12s50.87,112.82,23,184.71c-4.09,10.56-12.23,17.34-26.09,17.56h-2.25s-91.76,0-121.56,0c-76.67,0-162.27-52.7-173.34-54.92-18.12-3.62-25.37,32.62-43.5,70.68s-170.36,168.55-170.36,168.55-23.39.23-33.06-3.39c-10.4-3.9-14.2-9-14.2-9S2221.11,1218.78,2277.29,1200.66Z" transform="translate(-172.65 -261.56)"/><path class="cls-17" d="M2460.49,979.94c54.9,30.23,166.28,92.9,166.86,92.49,0,0,40.93,15.43,64.16,0,38.71-25.7,59.46-94.89-11.32-154.43-35.31-29.69-60.39-36.92-64.2-84.33-2.07-25.73-37.23-110.62-95.66-102.77-4.88.66-34.93,2.06-54.68,12.43C2415.32,769.76,2378.19,968.24,2460.49,979.94Z" transform="translate(-172.65 -261.56)"/><path class="cls-19" d="M2506.51,954.21c-.24.16,27,9.46,45.23,1.39,17.15-7.58,30.14-35.78,29.88-35.8-7.8-.36-16.36-7.18-22.95-51.92l-3.32,1.2-55.84,20.09s4,17.91,6.66,35C2508.37,938.46,2509.56,952.18,2506.51,954.21Z" transform="translate(-172.65 -261.56)"/><path class="cls-27" d="M2499.51,889.17s4,17.91,6.66,35c32.07-5.77,44.66-37.72,49.18-55.06Z" transform="translate(-172.65 -261.56)"/><path class="cls-19" d="M2491.19,907s76.4-10.25,69.28-57.73-2-80.78-51.13-76.24-55.81,24.08-57.29,40.5S2471.14,908.39,2491.19,907Z" transform="translate(-172.65 -261.56)"/><path class="cls-17" d="M2454.83,787.46S2503.74,829.6,2537,833s45.86-7.28,45.86-7.28a129.9,129.9,0,0,1-31.41-42.55,23.37,23.37,0,0,0-19.28-13.79C2508.42,767.33,2463.39,766.39,2454.83,787.46Z" transform="translate(-172.65 -261.56)"/><path class="cls-17" d="M2485.4,783.68s-16.36,15.82-21.51,27.56c-5,11.32-6.46,38.4-2.51,49.15,0,0-25.49-49.56-11.05-73.64C2465.63,761.21,2485.4,783.68,2485.4,783.68Z" transform="translate(-172.65 -261.56)"/><path class="cls-6" d="M2442.18,1066.75c2.31,154.64.63,122.33,17.55,137,4.07,3.53,15.53,5.64,30.62,6.63,47.41,3.15,130.77-4.66,133.94-13.42,10.94-30.33,3.22-39.75,12.34-86.17.95-4.93,2.13-10.28,3.51-16.1,7.61-31.88,15-42.73-12-94-24.48-46.4-49.91-84.06-52.19-82.7-64.59,38.34-69.8,6.11-69.8,6.11S2441.05,991.32,2442.18,1066.75Z" transform="translate(-172.65 -261.56)"/><path class="cls-16" d="M2276.66,1465.49l49.64,133.61s13.48,1.3,26.38-2.41c11.88-3.43,25.51-12.41,25.51-12.41s-13.79-143.46-39.5-225.81Z" transform="translate(-172.65 -261.56)"/><path class="cls-6" d="M2506.17,924.14s-66.45,11.27-74.26,39.88-53.72,196.82-53.72,196.82,33.78,6.07,49.39-9.54,54.3-144.79,54.3-144.79Z" transform="translate(-172.65 -261.56)"/><path class="cls-28" d="M2490.35,1210.38c47.41,3.15,130.77-4.66,133.94-13.42,10.94-30.33,3.22-39.75,12.34-86.17l-22.87-64.4s3.78,71.72-17.37,90.58-86.59,36.41-96.87,52.17C2494.56,1196.71,2491.3,1204.29,2490.35,1210.38Z" transform="translate(-172.65 -261.56)"/><path class="cls-19" d="M2544.67,1180.22s-46.78-10.42-54.32-6.26-26,19.27-28.31,24.53,16.8-4,23-5.66c4-1.08,14.63,2.6,19.87,4.35,22.08,7.36,35.61,3.57,35.61,3.57Z" transform="translate(-172.65 -261.56)"/><path class="cls-6" d="M2576,918s62.82,3.87,84.57,34.2c30.61,42.69,91.33,224.64,56.53,248.91-39.19,27.33-178.37,7.15-178.37,7.15s-4.63-21.65,1.81-32.12,111.16-27.39,116-32.22-60.42-94.25-60.42-108.75S2576,918,2576,918Z" transform="translate(-172.65 -261.56)"/><path class="cls-19" d="M2488.08,1187s-9.8,12.64-13,14.15a9.57,9.57,0,0,1-5.29,1.13l6.6-11.89Z" transform="translate(-172.65 -261.56)"/><path class="cls-19" d="M2490.35,1174l-28.5,13.83s1.21,2,4.72,1.83,12.36-3.4,12.36-3.4Z" transform="translate(-172.65 -261.56)"/><polygon class="cls-9" points="2302.42 958.93 2076.99 958.93 2009.17 790.3 2234.26 790.3 2302.42 958.93"/><polygon class="cls-26" points="2074.34 952.36 2372.03 952.36 2372.03 958.93 2076.99 958.93 2074.34 952.36"/><path class="cls-6" d="M2306.54,1136.18c-1.7-5.93,1.73-10.73,7.65-10.73s12.12,4.8,13.82,10.73-1.73,10.73-7.66,10.73S2308.24,1142.11,2306.54,1136.18Z" transform="translate(-172.65 -261.56)"/><path class="cls-15" d="M426.48,1286.73l-4.8,3.32a11.31,11.31,0,0,1-15.74-2.85L378,1246.92a11.33,11.33,0,0,1,2.85-15.74l6.88-4.77a2.21,2.21,0,0,1,2.52,3.64l-6.88,4.77a6.87,6.87,0,0,0-1.73,9.57l27.92,40.29a6.89,6.89,0,0,0,9.58,1.74l4.8-3.33a6.89,6.89,0,0,0,1.73-9.58l-18.53-26.74a2.21,2.21,0,0,1,3.64-2.52L429.33,1271A11.33,11.33,0,0,1,426.48,1286.73Z" transform="translate(-172.65 -261.56)"/><path class="cls-15" d="M457.09,1326.45l-8.61,6c-8,5.54-19.32,3.08-25.25-5.48l-42-60.57a2.21,2.21,0,0,1,3.64-2.52l42,60.56c4.55,6.56,13.11,8.52,19.1,4.37l8.61-6c6-4.15,7.15-12.86,2.61-19.42l-47.82-69c-4.54-6.56-13.11-8.52-19.09-4.37a2.21,2.21,0,1,1-2.52-3.64c8-5.54,19.32-3.08,25.25,5.48l47.82,69C466.75,1309.44,465.08,1320.92,457.09,1326.45Z" transform="translate(-172.65 -261.56)"/><path class="cls-15" d="M514.83,1642.78l1,8.53a16.66,16.66,0,0,1-14.51,18.52l-71.59,8.69A16.66,16.66,0,0,1,411.25,1664l-1.48-12.22a3.25,3.25,0,1,1,6.46-.79l1.49,12.22a10.12,10.12,0,0,0,11.27,8.83l71.58-8.68a10.15,10.15,0,0,0,8.84-11.28l-1-8.53a10.14,10.14,0,0,0-11.27-8.83l-47.52,5.77a3.26,3.26,0,1,1-.79-6.47l47.52-5.76A16.64,16.64,0,0,1,514.83,1642.78Z" transform="translate(-172.65 -261.56)"/><path class="cls-15" d="M587.54,1630.21l1.85,15.3c1.73,14.2-9.25,27.25-24.46,29.1l-107.62,13.06a3.26,3.26,0,1,1-.79-6.47l107.62-13.06c11.65-1.41,20.08-11.21,18.79-21.85L581.07,1631c-1.29-10.64-11.82-18.14-23.46-16.73L435,1629.15c-11.65,1.41-20.08,11.22-18.79,21.85a3.25,3.25,0,1,1-6.46.79c-1.73-14.2,9.25-27.26,24.46-29.1l122.59-14.88C572,1606,585.81,1616,587.54,1630.21Z" transform="translate(-172.65 -261.56)"/><circle class="cls-9" cx="1744.56" cy="629.8" r="9.92" transform="translate(558.14 1921.42) rotate(-76.72)"/><rect class="cls-29" x="15.3" y="1520.03" width="2900.21" height="7.69" rx="3.29"/></svg>