<svg id="Ñëîé_1" data-name="Ñëîé 1" xmlns="http://www.w3.org/2000/svg" viewBox="0 0 1969.46 1750"><defs><style>.cls-1{fill:#322a28;}.cls-2{fill:#40a87b;}.cls-16,.cls-19,.cls-21,.cls-22,.cls-23,.cls-25,.cls-3,.cls-32,.cls-33,.cls-34,.cls-35,.cls-37,.cls-39,.cls-41,.cls-5{fill:none;}.cls-3{stroke:#6adb6a;}.cls-16,.cls-22,.cls-25,.cls-3,.cls-32,.cls-33,.cls-35,.cls-37,.cls-39,.cls-41,.cls-5{stroke-miterlimit:10;}.cls-3,.cls-5{stroke-width:2.98px;}.cls-4{fill:#6adb6a;}.cls-5{stroke:#40a87b;}.cls-6{fill:#e5f0f8;}.cls-7{fill:#586773;}.cls-8{fill:#93acbf;}.cls-9{fill:#bbdbf3;}.cls-10{fill:#fff;}.cls-11{fill:#f2bb16;}.cls-12{fill:#f9e181;}.cls-13{fill:#f5ac97;}.cls-14{fill:#088cfc;}.cls-15{fill:#ea9d85;}.cls-16{stroke:#332b27;stroke-width:2.32px;}.cls-17{fill:#f74242;}.cls-18{fill:#e99c84;}.cls-19,.cls-23,.cls-39,.cls-41{stroke:#fff;}.cls-19,.cls-21,.cls-23,.cls-34{stroke-linecap:round;stroke-linejoin:round;}.cls-19{stroke-width:3.58px;}.cls-20{fill:#332b27;}.cls-21{stroke:#e99c84;stroke-width:3.49px;}.cls-22{stroke:#322a28;stroke-width:2.23px;}.cls-23{stroke-width:1.82px;}.cls-24{fill:#2ec6fc;}.cls-25{stroke:#088cfc;stroke-width:3.4px;}.cls-26{fill:#1d1d1b;}.cls-27{fill:#0775ef;}.cls-28{fill:#f9ecb8;}.cls-29{fill:#088cff;}.cls-30{fill:#a06753;}.cls-31{fill:#824c3a;}.cls-32{stroke:#d1ddff;stroke-width:2.67px;}.cls-33{stroke:#e5f0f8;stroke-width:1.34px;}.cls-34{stroke:#724638;stroke-width:0.67px;}.cls-35,.cls-37{stroke:#2c3447;}.cls-35{stroke-width:0.99px;}.cls-36{fill:#a14c53;}.cls-37{stroke-width:1.37px;}.cls-38{fill:#89a5c7;}.cls-39{stroke-width:1.13px;}.cls-40{fill:#a5bbd6;}.cls-41{stroke-width:3.35px;}</style></defs><path class="cls-1" d="M663,334.93a55.27,55.27,0,0,1,3.94-21.26,46.52,46.52,0,0,1,11-16.23,48.29,48.29,0,0,1,16.71-10.29,64,64,0,0,1,42.26,0,48.48,48.48,0,0,1,16.71,10.29,46.79,46.79,0,0,1,11,16.23,59.5,59.5,0,0,1,0,42.53,46.89,46.89,0,0,1-11,16.23,48.63,48.63,0,0,1-16.71,10.29,64,64,0,0,1-42.26,0,48.44,48.44,0,0,1-16.71-10.29,46.61,46.61,0,0,1-11-16.23A55.28,55.28,0,0,1,663,334.93Zm22.38,0a35.79,35.79,0,0,0,2.14,12.64,28.74,28.74,0,0,0,6.14,9.94,28,28,0,0,0,9.6,6.56,34.42,34.42,0,0,0,25,0,27.91,27.91,0,0,0,9.59-6.56,28.91,28.91,0,0,0,6.15-9.94,38.16,38.16,0,0,0,0-25.2,28.89,28.89,0,0,0-6.15-10,28.19,28.19,0,0,0-9.59-6.56,34.56,34.56,0,0,0-25,0,28.23,28.23,0,0,0-9.6,6.56,28.72,28.72,0,0,0-6.14,10A35.89,35.89,0,0,0,685.38,334.93Z" transform="translate(-171.63 -279.42)"/><path class="cls-1" d="M780.53,316.7h19.88v9.12h.28a16.56,16.56,0,0,1,2.76-3.87,20,20,0,0,1,4.28-3.45,25,25,0,0,1,5.66-2.49,23.8,23.8,0,0,1,6.91-1q7.88,0,12.7,2.41a18.4,18.4,0,0,1,7.53,6.7,27,27,0,0,1,3.66,10.08,77.12,77.12,0,0,1,1,12.57v37H824.44V351q0-2.9-.21-6a18.73,18.73,0,0,0-1.24-5.74,8.88,8.88,0,0,0-9.32-5.93,12.76,12.76,0,0,0-6.49,1.45,9.85,9.85,0,0,0-3.8,3.86,15.76,15.76,0,0,0-1.72,5.46,46.28,46.28,0,0,0-.42,6.35v33.42H780.53Z" transform="translate(-171.63 -279.42)"/><path class="cls-1" d="M860.07,279.42h20.72v104.4H860.07Z" transform="translate(-171.63 -279.42)"/><path class="cls-1" d="M894.32,295.57a12,12,0,1,1,3.52,8.5A11.57,11.57,0,0,1,894.32,295.57ZM896,316.7h20.71v67.12H896Z" transform="translate(-171.63 -279.42)"/><path class="cls-1" d="M931.61,316.7h19.88v9.12h.28a16.56,16.56,0,0,1,2.76-3.87,20,20,0,0,1,4.28-3.45,24.83,24.83,0,0,1,5.66-2.49,23.8,23.8,0,0,1,6.91-1q7.88,0,12.7,2.41a18.4,18.4,0,0,1,7.53,6.7,27.18,27.18,0,0,1,3.66,10.08,77.12,77.12,0,0,1,1,12.57v37H975.52V351q0-2.9-.21-6a18.73,18.73,0,0,0-1.24-5.74,8.88,8.88,0,0,0-9.32-5.93,12.76,12.76,0,0,0-6.49,1.45,9.85,9.85,0,0,0-3.8,3.86,15.76,15.76,0,0,0-1.72,5.46,46.28,46.28,0,0,0-.42,6.35v33.42H931.61Z" transform="translate(-171.63 -279.42)"/><path class="cls-1" d="M1074.4,372.22a32.93,32.93,0,0,1-12.57,9.81,37.65,37.65,0,0,1-15.74,3.45,42.23,42.23,0,0,1-14.57-2.49,35,35,0,0,1-11.88-7.11,33.42,33.42,0,0,1-7.94-11.12,37.7,37.7,0,0,1,0-29,33.48,33.48,0,0,1,7.94-11.11,35,35,0,0,1,11.88-7.12,42.47,42.47,0,0,1,14.57-2.48,33.25,33.25,0,0,1,13.05,2.48,27.12,27.12,0,0,1,9.94,7.12,32.44,32.44,0,0,1,6.29,11.11,44.9,44.9,0,0,1,2.21,14.5v6.49h-48.06a16.38,16.38,0,0,0,5.38,9.46,15.24,15.24,0,0,0,10.22,3.52,15.58,15.58,0,0,0,8.64-2.27,23.39,23.39,0,0,0,6.14-5.87Zm-17.54-29.55a12,12,0,0,0-3.45-9,12.31,12.31,0,0,0-9.25-3.73,15.48,15.48,0,0,0-6.08,1.11,15.07,15.07,0,0,0-4.49,2.83,12.41,12.41,0,0,0-2.9,4,13.17,13.17,0,0,0-1.17,4.77Z" transform="translate(-171.63 -279.42)"/><path class="cls-1" d="M1182,309.94a15.37,15.37,0,0,0-7.11-4.91,25.76,25.76,0,0,0-8.5-1.58,22.16,22.16,0,0,0-4.83.55,18.77,18.77,0,0,0-4.7,1.72,10.33,10.33,0,0,0-3.59,3.11,7.89,7.89,0,0,0-1.38,4.7,7.76,7.76,0,0,0,3.32,6.76,31.37,31.37,0,0,0,8.35,4q5,1.65,10.84,3.31a45,45,0,0,1,10.84,4.7,25.7,25.7,0,0,1,8.36,8.15q3.32,5.1,3.31,13.67a31.49,31.49,0,0,1-3,14.22,28.77,28.77,0,0,1-8.22,10.08,34.61,34.61,0,0,1-12,5.94,55,55,0,0,1-32.11-1,44.56,44.56,0,0,1-15.19-9.39l15.33-16.85A22.43,22.43,0,0,0,1150,364a23.47,23.47,0,0,0,15.74,1.8,17.48,17.48,0,0,0,4.84-1.87,10.42,10.42,0,0,0,3.45-3.17,8,8,0,0,0,1.31-4.56,8.28,8.28,0,0,0-3.38-7,30.87,30.87,0,0,0-8.5-4.35c-3.4-1.2-7.09-2.4-11-3.59a49.43,49.43,0,0,1-11-4.84,26.54,26.54,0,0,1-8.5-8q-3.37-5-3.38-13.12a29.42,29.42,0,0,1,3.11-13.81,30,30,0,0,1,8.28-9.94,36.23,36.23,0,0,1,11.95-6,49.06,49.06,0,0,1,14-2,54.73,54.73,0,0,1,16,2.35,37,37,0,0,1,14,7.87Z" transform="translate(-171.63 -279.42)"/><path class="cls-1" d="M1274.92,383.82H1255v-9.11h-.27a22.8,22.8,0,0,1-2.84,3.86,18.67,18.67,0,0,1-4.21,3.46,24.2,24.2,0,0,1-5.66,2.48,23.77,23.77,0,0,1-6.9,1q-7.87,0-12.78-2.42a18.18,18.18,0,0,1-7.59-6.7,26,26,0,0,1-3.59-10.08,82,82,0,0,1-.9-12.57v-37H1231v32.87q0,2.91.21,6a19,19,0,0,0,1.24,5.73,8.92,8.92,0,0,0,9.32,5.94,12.73,12.73,0,0,0,6.49-1.45,9.88,9.88,0,0,0,3.8-3.87,15.78,15.78,0,0,0,1.73-5.45,46.56,46.56,0,0,0,.41-6.36V316.7h20.72Z" transform="translate(-171.63 -279.42)"/><path class="cls-1" d="M1291.49,316.7h19.06v8.84h.27a23.37,23.37,0,0,1,3.25-3.66,24.52,24.52,0,0,1,4.69-3.38,29.77,29.77,0,0,1,5.87-2.49,23.32,23.32,0,0,1,6.77-1,34.63,34.63,0,0,1,13.53,2.55,30.35,30.35,0,0,1,10.43,7.18,32.21,32.21,0,0,1,6.7,11,40.12,40.12,0,0,1,2.35,13.95,42.44,42.44,0,0,1-2.14,13.46,37.21,37.21,0,0,1-6.08,11.4,29.66,29.66,0,0,1-9.6,7.94,27.22,27.22,0,0,1-12.84,3,35.74,35.74,0,0,1-12.09-2,19.41,19.41,0,0,1-9.18-6.84h-.28v38.67h-20.71Zm19.06,33.56q0,7.61,4.35,12.29t12.22,4.7q7.88,0,12.22-4.7t4.35-12.29q0-7.59-4.35-12.29t-12.22-4.69q-7.87,0-12.22,4.69T1310.55,350.26Z" transform="translate(-171.63 -279.42)"/><path class="cls-1" d="M1378.49,316.7h19.06v8.84h.28a23.27,23.27,0,0,1,3.24-3.66,24.6,24.6,0,0,1,4.7-3.38,29.52,29.52,0,0,1,5.87-2.49,23.21,23.21,0,0,1,6.76-1,34.68,34.68,0,0,1,13.54,2.55,30.31,30.31,0,0,1,10.42,7.18,32.06,32.06,0,0,1,6.7,11,39.89,39.89,0,0,1,2.35,13.95,42.44,42.44,0,0,1-2.14,13.46,37,37,0,0,1-6.08,11.4,29.66,29.66,0,0,1-9.6,7.94,27.2,27.2,0,0,1-12.84,3,35.69,35.69,0,0,1-12.08-2,19.43,19.43,0,0,1-9.19-6.84h-.27v38.67h-20.72Zm19.06,33.56q0,7.61,4.35,12.29t12.22,4.7q7.88,0,12.22-4.7t4.35-12.29q0-7.59-4.35-12.29t-12.22-4.69q-7.87,0-12.22,4.69T1397.55,350.26Z" transform="translate(-171.63 -279.42)"/><path class="cls-1" d="M1461.07,350.26a35.22,35.22,0,0,1,2.9-14.5,33.36,33.36,0,0,1,8-11.11,35.07,35.07,0,0,1,11.87-7.12,44,44,0,0,1,29.14,0,35,35,0,0,1,11.88,7.12,33.34,33.34,0,0,1,7.94,11.11,37.7,37.7,0,0,1,0,29,33.28,33.28,0,0,1-7.94,11.12,35,35,0,0,1-11.88,7.11,43.87,43.87,0,0,1-29.14,0,35.05,35.05,0,0,1-11.87-7.11,33.3,33.3,0,0,1-8-11.12A35.19,35.19,0,0,1,1461.07,350.26Zm20.72,0q0,7.61,4.35,12.29t12.22,4.7q7.88,0,12.22-4.7t4.35-12.29q0-7.59-4.35-12.29t-12.22-4.69q-7.87,0-12.22,4.69T1481.79,350.26Z" transform="translate(-171.63 -279.42)"/><path class="cls-1" d="M1547.8,316.7h20.72v10.78h.27a25.49,25.49,0,0,1,7.87-9.33,19.91,19.91,0,0,1,11.46-3.1c1.2,0,2.4,0,3.6.13a18.12,18.12,0,0,1,3.31.56v18.92a31.13,31.13,0,0,0-4.35-1,28.2,28.2,0,0,0-4.49-.34,22.08,22.08,0,0,0-9.39,1.65,12.57,12.57,0,0,0-5.32,4.63,17.5,17.5,0,0,0-2.41,7.11,69,69,0,0,0-.55,9.12v28H1547.8Z" transform="translate(-171.63 -279.42)"/><path class="cls-1" d="M1649.72,333.28h-18.23v22.37a40.89,40.89,0,0,0,.28,5,10,10,0,0,0,1.24,3.94,6.26,6.26,0,0,0,3,2.55,13.08,13.08,0,0,0,5.31.9,35.85,35.85,0,0,0,4.35-.35,7.37,7.37,0,0,0,4.08-1.59v17.27a31.5,31.5,0,0,1-7.18,1.65,65.49,65.49,0,0,1-7.32.42,39.68,39.68,0,0,1-9.67-1.11,21.9,21.9,0,0,1-7.73-3.52,16.43,16.43,0,0,1-5.18-6.28,21.53,21.53,0,0,1-1.87-9.39v-31.9h-13.25V316.7h13.25V296.82h20.72V316.7h18.23Z" transform="translate(-171.63 -279.42)"/><path class="cls-2" d="M1926.5,2007.87s26.57-106,92.8-138.69,136.91,12.08,119,59.16c-15.48,40.6-79.12-9.32-128.63,10.31s-57.32,69.22-57.32,69.22Z" transform="translate(-171.63 -279.42)"/><path class="cls-3" d="M2125.46,1900.1s-71.08-40.5-123.81-3-69.43,110.82-69.43,110.82" transform="translate(-171.63 -279.42)"/><line class="cls-3" x1="1942.37" y1="1601.74" x2="1925.83" y2="1608.95"/><line class="cls-3" x1="1918.48" y1="1586.3" x2="1885.54" y2="1601.74"/><line class="cls-3" x1="1868.99" y1="1586.3" x2="1851.86" y2="1606.54"/><line class="cls-3" x1="1836.51" y1="1599.86" x2="1828.81" y2="1618.5"/><line class="cls-3" x1="1934.1" y1="1646.48" x2="1908.71" y2="1604.48"/><line class="cls-3" x1="1889.25" y1="1640.46" x2="1865.96" y2="1603.07"/><line class="cls-3" x1="1849.7" y1="1634.73" x2="1814.69" y2="1630.38"/><line class="cls-3" x1="1808.94" y1="1655.94" x2="1788.88" y2="1662.53"/><path class="cls-4" d="M1914.62,2004.53s-18.75-355.23,150.93-309.45-132.36,237.23-132.1,309.45Z" transform="translate(-171.63 -279.42)"/><path class="cls-5" d="M1921.48,2004.53s5.92-185.59,126.87-277.37" transform="translate(-171.63 -279.42)"/><line class="cls-5" x1="1823.67" y1="1501.56" x2="1826.69" y2="1437.56"/><line class="cls-5" x1="1918.56" y1="1475.04" x2="1836.81" y2="1485.7"/><line class="cls-5" x1="1886.77" y1="1529.67" x2="1800.34" y2="1539.74"/><line class="cls-5" x1="1843.55" y1="1583.8" x2="1776.79" y2="1593.23"/><line class="cls-5" x1="1770.39" y1="1533.22" x2="1785.69" y2="1570.4"/><line class="cls-5" x1="1795.53" y1="1472.88" x2="1808.58" y2="1525.22"/><line class="cls-5" x1="1756.1" y1="1595.28" x2="1768.29" y2="1619.58"/><line class="cls-5" x1="1808.58" y1="1633.97" x2="1760.74" y2="1649.06"/><path class="cls-6" d="M1770.86,1997.11S2326.16,433.45,1307.12,539.3c-436.46,45.33-355,320.36-547.75,577.69-125,166.79-365.26,30.34-455.32,176.1s15.77,561.35,52.9,704Z" transform="translate(-171.63 -279.42)"/><rect class="cls-7" x="346.65" y="418.54" width="937.67" height="1292.11" rx="54.52"/><rect class="cls-8" x="378.05" y="418.54" width="937.67" height="1292.11" rx="54.52"/><path class="cls-7" d="M1433,1875.77H604a5.77,5.77,0,0,1-1.94-.33,6.82,6.82,0,0,1-5-6.62V752.28a7,7,0,0,1,7-7h829a7,7,0,0,1,7,7V1868.82A7,7,0,0,1,1433,1875.77Z" transform="translate(-171.63 -279.42)"/><rect class="cls-6" x="434.17" y="474.65" width="825.4" height="1112.92"/><rect class="cls-9" x="994.45" y="1840.79" width="48.12" height="184.59" rx="24.06" transform="translate(2779.96 635.16) rotate(90)"/><rect class="cls-9" x="434.17" y="474.65" width="825.4" height="77"/><circle class="cls-10" cx="651.04" cy="792.56" r="15.04" transform="translate(-442.22 963.27) rotate(-76.63)"/><circle class="cls-10" cx="694.58" cy="792.56" r="15.04" transform="translate(-408.75 1005.62) rotate(-76.63)"/><circle class="cls-10" cx="738.11" cy="792.56" r="15.04" transform="translate(-375.28 1047.98) rotate(-76.63)"/><rect class="cls-11" x="610.49" y="1352.49" width="28.08" height="39.96" transform="translate(465.12 2600.89) rotate(-156)"/><polygon class="cls-11" points="454.17 1055.49 479.92 1066.95 496.68 1041.21 461.9 1025.73 454.17 1055.49"/><path class="cls-12" d="M600.63,1334.4h65.61a5.53,5.53,0,0,1,5.53,5.53V1365a5.54,5.54,0,0,1-5.54,5.54H600.63a5.54,5.54,0,0,1-5.54-5.54v-25.11a5.53,5.53,0,0,1,5.53-5.53Z" transform="translate(490.27 2566.28) rotate(-156)"/><rect class="cls-11" x="649.44" y="1362.85" width="20.52" height="2.67" transform="translate(-1026.49 1132.89) rotate(-66.01)"/><rect class="cls-11" x="640.68" y="1358.95" width="20.52" height="2.67" transform="translate(-1028.14 1122.09) rotate(-65.99)"/><rect class="cls-11" x="631.93" y="1355.05" width="20.52" height="2.67" transform="translate(-1029.77 1111.78) rotate(-65.99)"/><rect class="cls-11" x="623.17" y="1351.16" width="20.52" height="2.67" transform="translate(-1031.4 1101.47) rotate(-65.99)"/><rect class="cls-11" x="614.41" y="1347.26" width="20.52" height="2.67" transform="translate(-1033.03 1091.16) rotate(-65.99)"/><rect class="cls-11" x="605.66" y="1343.36" width="20.52" height="2.67" transform="translate(-1034.67 1080.84) rotate(-65.99)"/><rect class="cls-11" x="596.9" y="1339.46" width="20.52" height="2.67" transform="translate(-1036.3 1070.53) rotate(-65.99)"/><rect class="cls-12" x="623.35" y="1307.05" width="57.51" height="7.02" rx="3.31" transform="translate(543.06 2493.64) rotate(-156)"/><rect class="cls-11" x="335.84" y="1357.27" width="28.08" height="39.96" transform="translate(1096.4 2182.37) rotate(154)"/><polygon class="cls-11" points="150.29 1072.71 175.62 1060.36 166.67 1030.98 132.46 1047.66 150.29 1072.71"/><path class="cls-12" d="M307.49,1339.5H373.1a5.54,5.54,0,0,1,5.54,5.54v25.11a5.54,5.54,0,0,1-5.54,5.54H307.49a5.53,5.53,0,0,1-5.53-5.53V1345a5.54,5.54,0,0,1,5.54-5.54Z" transform="translate(1069.58 2149.25) rotate(154)"/><rect class="cls-11" x="364.8" y="1334.72" width="2.67" height="20.52" transform="translate(-724.4 17.4) rotate(-26.01)"/><rect class="cls-11" x="356.19" y="1338.93" width="2.67" height="20.52" transform="translate(-726.78 13.76) rotate(-25.99)"/><rect class="cls-11" x="347.57" y="1343.13" width="2.67" height="20.52" transform="translate(-729.49 10.4) rotate(-25.99)"/><rect class="cls-11" x="338.96" y="1347.33" width="2.67" height="20.52" transform="translate(-732.21 7.06) rotate(-25.99)"/><rect class="cls-11" x="330.34" y="1351.53" width="2.67" height="20.52" transform="translate(-734.91 3.7) rotate(-25.99)"/><rect class="cls-11" x="321.73" y="1355.73" width="2.67" height="20.52" transform="translate(-737.63 0.35) rotate(-25.99)"/><rect class="cls-11" x="313.11" y="1359.93" width="2.67" height="20.52" transform="translate(-740.34 -3) rotate(-25.99)"/><rect class="cls-12" x="291.42" y="1312.82" width="57.51" height="7.02" rx="3.31" transform="translate(1013.29 2079.73) rotate(154)"/><rect class="cls-11" x="472.64" y="1324.43" width="28.08" height="39.96" transform="translate(825.03 2400.74) rotate(179)"/><rect class="cls-11" x="477.58" y="1209.52" width="13.81" height="18.3" transform="translate(818.47 2149.31) rotate(179)"/><circle class="cls-12" cx="320.7" cy="1389.94" r="320.7"/><path class="cls-11" d="M497.44,1963.58c162.24-2.83,291.93-137.11,289.11-299.34s-137.11-291.92-299.34-289.09S195.3,1512.24,198.12,1674.47,335.21,1966.4,497.44,1963.58Z" transform="translate(-171.63 -279.42)"/><path class="cls-12" d="M437.47,1247.84l.73,42a5.18,5.18,0,0,0,3.5,4.75l44.38,15L529.91,1293a5.19,5.19,0,0,0,3.33-4.87l-.73-42a5,5,0,0,0-2.85-4.43L486.87,1220a5.41,5.41,0,0,0-4.8.09l-42,23.27A5.1,5.1,0,0,0,437.47,1247.84Zm9.12,2.19L484.68,1229l38.8,19.73.63,36.74L485.91,1300l-38.68-13.22Z" transform="translate(-171.63 -279.42)"/><path class="cls-6" d="M730.77,1817.85c-48.76,78.22-134.72,130.85-233.5,132.47-155.06,2.7-283.24-121.15-286-276.06A281.61,281.61,0,0,1,487.5,1388.32c154.86-2.59,283.19,121.3,285.78,276.17A278.59,278.59,0,0,1,730.77,1817.85Z" transform="translate(-171.63 -279.42)"/><path class="cls-10" d="M492.44,1669.36l-2.58-281c-.79,0-1.57,0-2.36,0a279.11,279.11,0,0,0-196.29,85,279.82,279.82,0,0,0-42.51,153.35c2.74,154.91,131.07,278.8,286,276.06a279.59,279.59,0,0,0,196.09-84.87,278.34,278.34,0,0,0,42.41-148.49Z" transform="translate(-171.63 -279.42)"/><path class="cls-10" d="M773.18,1669.36c0-1.63.13-3.23.1-4.87-2.58-154.07-129.62-277.44-283.42-276.15l2.58,281Z" transform="translate(-171.63 -279.42)"/><path class="cls-9" d="M474.84,1423.17a13.21,13.21,0,1,0,13-13.44A13.2,13.2,0,0,0,474.84,1423.17Z" transform="translate(-171.63 -279.42)"/><circle class="cls-9" cx="663.55" cy="1492.08" r="13.21" transform="translate(-1131.88 1385.52) rotate(-72.1)"/><circle class="cls-9" cx="738.76" cy="1665.07" r="13.21" transform="translate(-1092.78 635.35) rotate(-41.75)"/><circle class="cls-9" cx="669.61" cy="1840.58" r="13.21" transform="translate(-1454.92 1710.45) rotate(-74.38)"/><polygon class="cls-11" points="300.32 1030.42 328.5 1029.93 332.81 999.52 294.75 1000.18 300.32 1030.42"/><circle class="cls-9" cx="496.62" cy="1915.79" r="13.21" transform="translate(-1615.46 2025.61) rotate(-86.81)"/><circle class="cls-9" cx="321.11" cy="1846.64" r="13.21" transform="translate(-298.37 -252.84) rotate(-3.96)"/><circle class="cls-9" cx="245.91" cy="1673.65" r="13.21" transform="translate(-1617.25 1377.17) rotate(-81.06)"/><circle class="cls-9" cx="315.05" cy="1498.14" r="13.21" transform="translate(-1378.49 1052.91) rotate(-71.91)"/><circle class="cls-12" cx="492.33" cy="1669.36" r="23.58" transform="translate(-1258.52 658.35) rotate(-48.71)"/><polygon class="cls-12" points="326.69 1218.97 317.29 1193.9 308.77 1219.28 314.58 1219.18 317.56 1390 323.85 1389.89 320.88 1219.07 326.69 1218.97"/><polygon class="cls-12" points="320.7 1386.8 320.7 1393.09 427.2 1393.1 427.2 1398.74 452.43 1389.79 427.2 1380.82 427.2 1386.81 320.7 1386.8"/><rect class="cls-12" x="447.96" y="1304.46" width="76.68" height="36.18" rx="5.54" transform="translate(823.89 2357.02) rotate(179)"/><rect class="cls-11" x="513.71" y="1311.78" width="2.67" height="20.52" transform="translate(-194.89 -270.12) rotate(-1.01)"/><rect class="cls-11" x="504.13" y="1311.95" width="2.67" height="20.52" transform="translate(-194.48 -270.45) rotate(-0.99)"/><rect class="cls-11" x="494.54" y="1312.12" width="2.67" height="20.52" transform="translate(-194.49 -270.62) rotate(-0.99)"/><rect class="cls-11" x="484.96" y="1312.29" width="2.67" height="20.52" transform="translate(-194.5 -270.78) rotate(-0.99)"/><rect class="cls-11" x="475.38" y="1312.45" width="2.67" height="20.52" transform="translate(-194.5 -270.95) rotate(-0.99)"/><rect class="cls-11" x="465.8" y="1312.62" width="2.67" height="20.52" transform="translate(-194.5 -271.12) rotate(-0.99)"/><rect class="cls-11" x="456.21" y="1312.78" width="2.67" height="20.52" transform="translate(-194.5 -271.29) rotate(-0.99)"/><rect class="cls-12" x="456.74" y="1273.14" width="57.51" height="7.02" rx="3.31" transform="translate(821.5 2265.25) rotate(179)"/><path class="cls-12" d="M477.71,1211.33l13.3-.23a1.71,1.71,0,0,0,1.67-1.73h0a1.7,1.7,0,0,0-1.73-1.66l-13.3.23a1.71,1.71,0,0,0-1.67,1.72h0A1.71,1.71,0,0,0,477.71,1211.33Z" transform="translate(-171.63 -279.42)"/><polygon class="cls-13" points="1004.55 749.93 870.66 747.65 877.68 607.07 881.02 539.85 881.21 536.5 985.97 492.46 989.38 539.97 991.91 574.6 1004.55 749.93"/><path class="cls-14" d="M1165.63,1415.66s-2.24,12.37-6.06,33.42c-1.47,8.1-3.19,17.52-5.08,28-12.58,69.61-33.64,186.74-51.58,289.32v.11c-6.3,36.22-12.26,70.63-17.3,100.48H865.72l31-256.78,16.09-133.13,1.5-12.58L1056,1437l30.66-6Z" transform="translate(-171.63 -279.42)"/><polygon class="cls-14" points="1152.57 1587.57 941.66 1587.57 931.28 1487.02 931.28 1486.98 926.55 1440.91 902 1404.62 901.68 1332.2 901.08 1197.66 900.98 1175.52 915.2 1174.57 987.94 1169.67 1013.27 1167.95 1035.55 1166.48 1107.76 1161.61 1111.54 1197.66 1121.04 1287.95 1124.86 1324.17 1152.57 1587.57"/><path class="cls-13" d="M1111,970.55c49.12,1.08,73-25.86,78.18-37.75L1167.79,927l-120.31-3.82-14.6,4.68C1039.05,939.35,1060.79,969.45,1111,970.55Z" transform="translate(-171.63 -279.42)"/><path class="cls-15" d="M1373,1454.48l-18.44,36.08a5.29,5.29,0,0,0,0,4.85l16.57,31.72a5.27,5.27,0,0,0,5.75,2.72l30.66-6.35a5.28,5.28,0,0,1,6.07,6.87l-8.18,24a5.27,5.27,0,0,1-3.58,3.38l-31.14,8.65a5.36,5.36,0,0,1-2.58.06l-64.5-14.73-34.72-119.61,50.48-37.39Z" transform="translate(-171.63 -279.42)"/><polyline class="cls-16" points="1240.45 1255.4 1199.36 1265.37 1182.79 1252"/><polyline class="cls-16" points="1236.25 1267.75 1199.17 1275.17 1175.06 1261.04"/><path class="cls-9" d="M1285.3,1276.19l-2.11,200.89H912.83l1.71-506.47,129.77-46.89c1.45,2.66,3,5.45,5,8.36l.49.6c7,9,20.48,17.45,58.16,18.3,31.38.72,46.77-3.64,55.49-9.33l.12-.12c4.73-3.15,8.49-9.37,10.67-12.77l121.53,29.49-8.24,255.66Z" transform="translate(-171.63 -279.42)"/><path class="cls-17" d="M1189.15,932.8s-10.51,187.43-9,295.77,9,382.12,9,382.12,68.61,1.45,131.72-11.33c0,0,1-124-16.45-209.57s-17.12-438.13-17.12-438.13Z" transform="translate(-171.63 -279.42)"/><path class="cls-17" d="M1548,1252l-.54.64a67.57,67.57,0,0,1-94.9,8.58l-231.87-193.41a67.59,67.59,0,0,1-8.58-94.9l.54-.65a67.57,67.57,0,0,1,94.9-8.58l231.87,193.42A67.57,67.57,0,0,1,1548,1252Z" transform="translate(-171.63 -279.42)"/><path class="cls-1" d="M1183.89,740.59s17.8-44.44-4-40.37S1183.89,740.59,1183.89,740.59Z" transform="translate(-171.63 -279.42)"/><path class="cls-17" d="M1032.88,927.89s50.65,262.56,52.35,393.06l1.7,130.51-5.8,159.23s-141.1,17.49-190.43-2.63c0,0-3.45-189,9.66-255.94s14.18-381.51,14.18-381.51Z" transform="translate(-171.63 -279.42)"/><polygon class="cls-18" points="995.6 625.83 920.34 570.96 991.91 574.6 995.6 625.83"/><path class="cls-13" d="M438,1163.53c1.95-5.62,38-6.06,63.11,1.85,21.27,6.69,68.67,27.37,82.6,33.57l-24.33,85.25c-8.86-1.34-27.21-2.32-35.55-4.11-22.22-4.75-64.9-22-63.87-30.26s39.76-1.25,37.35-5-31.1-18.51-44-19.34-40.92,1.72-45-4.62,3.45-14.62,3.45-14.62-10.59,2.25-10.78-4.62,15.41-14.47,15.41-14.47-5.69,1.91-4-5.69,28.77-11,28.77-11S435.86,1169.14,438,1163.53Z" transform="translate(-171.63 -279.42)"/><path class="cls-19" d="M1058.9,1572.14s-102.71,17-150.56,0" transform="translate(-171.63 -279.42)"/><path class="cls-13" d="M1182.38,705.65s4.25,44.79,7.28,76.56l2.49,26.26c2,20.75-.91,52.08-23.59,61.43s-55.6,2.66-80.27-19.49-84.71-127.14-19.58-174.2S1179.75,695.08,1182.38,705.65Z" transform="translate(-171.63 -279.42)"/><path class="cls-1" d="M1050.48,856.48s17-28.38,15.83-43.84,16.58-32.85,13.72-56.6-4-33.74,8.29-32.6,99.18,20.58,101.47-20.58S1089.41,622,1048,691.71c0,0-27.54-1.26-19.13,57.13S1049.52,817.17,1050.48,856.48Z" transform="translate(-171.63 -279.42)"/><path class="cls-13" d="M1076.58,801.36c9.3,11.91,12.32,20.63,3,27.94s-26.11,6.87-35.41-5-9.27-27.5.08-34.81S1067.27,789.44,1076.58,801.36Z" transform="translate(-171.63 -279.42)"/><path class="cls-20" d="M1125.89,769.81c.46,4.82,3.35,8.48,6.47,8.18s5.26-4.44,4.8-9.25-3.35-8.47-6.46-8.18S1125.43,765,1125.89,769.81Z" transform="translate(-171.63 -279.42)"/><path class="cls-17" d="M1387,1480.69l167.27-233.41c19-28.32,8.45-69.15-23.62-90.83s-74-16.11-93.1,12.19l-160.1,246.65Z" transform="translate(-171.63 -279.42)"/><ellipse class="cls-20" cx="1178.47" cy="764.81" rx="5.66" ry="8.75" transform="translate(-238.75 -164.41) rotate(-5.43)"/><path class="cls-18" d="M1137.87,800.74c-1.06,4.56-9.27,6.55-18.34,4.45S1104,797.67,1105,793.11s9.27-6.56,18.35-4.45S1138.93,796.18,1137.87,800.74Z" transform="translate(-171.63 -279.42)"/><path class="cls-18" d="M1189.66,782.21l1.62,17.08c-7.12,1.52-13.2.09-14.55-3.56C1175.23,791.39,1181,785.35,1189.66,782.21Z" transform="translate(-171.63 -279.42)"/><path class="cls-21" d="M1054.5,814.16a38.83,38.83,0,0,1,14.32-1.36c-8.25-12.44-18.34-9.94-18.34-9.94" transform="translate(-171.63 -279.42)"/><path class="cls-22" d="M1150.15,770.87l13.54,29.72a7.21,7.21,0,0,1-2.07,8.63l-4,3.19-4.11,3.27" transform="translate(-171.63 -279.42)"/><path class="cls-22" d="M1117.88,760.69s9.33-11.16,21.69-9" transform="translate(-171.63 -279.42)"/><path class="cls-22" d="M1187.92,748.84a18,18,0,0,0-19.79-.71" transform="translate(-171.63 -279.42)"/><path class="cls-17" d="M810.14,1387.71l.8.27a67.57,67.57,0,0,0,85.13-42.81l94.84-286.66a67.57,67.57,0,0,0-42.8-85.13l-.81-.27a67.57,67.57,0,0,0-85.13,42.81l-94.83,286.66A67.57,67.57,0,0,0,810.14,1387.71Z" transform="translate(-171.63 -279.42)"/><path class="cls-17" d="M545.69,1302l273.61,88.44c32.91,9,68.24-14,78.57-51.33s-8.31-75.25-41.22-84.36l-284.06-76.6Z" transform="translate(-171.63 -279.42)"/><polyline class="cls-23" points="931.29 1487.08 948.13 1430.84 964.27 1430.84 989.97 1361.24"/><path class="cls-10" d="M1137.76,824.26l25.42,8.94s-5.22,13-18.06,9.26S1137.76,824.26,1137.76,824.26Z" transform="translate(-171.63 -279.42)"/><path class="cls-19" d="M1011.23,953.61s19.29,160.47,31.06,239.74,13.81,274.65,16.61,347" transform="translate(-171.63 -279.42)"/><path class="cls-19" d="M1213.57,984.55s-10.19,163.85-13.8,236.35,13.8,327.71,13.8,327.71" transform="translate(-171.63 -279.42)"/><path class="cls-19" d="M1312.17,1562.63s-49.3,16.43-98.6,3.38" transform="translate(-171.63 -279.42)"/><circle class="cls-10" cx="1051.12" cy="1001.42" r="9.18"/><circle class="cls-10" cx="1051.12" cy="1085.78" r="9.18"/><circle class="cls-10" cx="1057.89" cy="1152.44" r="9.18"/><circle class="cls-10" cx="1062.72" cy="1230.38" r="9.18"/><ellipse class="cls-14" cx="1058.27" cy="810.02" rx="22.38" ry="31.12" transform="translate(-272.45 -127.1) rotate(-7.86)"/><ellipse class="cls-24" cx="1051.07" cy="811.01" rx="15.12" ry="23.22" transform="translate(-272.65 -128.08) rotate(-7.86)"/><path class="cls-25" d="M1065.65,833.69s33.38,36,84.5,30.82" transform="translate(-171.63 -279.42)"/><ellipse class="cls-14" cx="981.87" cy="585.35" rx="11.29" ry="6.5"/><path class="cls-14" d="M1058.27,782.21s-21.1-94.57,46-127.83c0,0-22.31-3.61-36.36,14.65,0,0-38,39.45-25.63,117.5Z" transform="translate(-171.63 -279.42)"/><line class="cls-19" x1="735.5" y1="1032.35" x2="788.93" y2="870.83"/><path class="cls-26" d="M1496.7,1011l-26,12.11a11.81,11.81,0,0,1-15.56-5.46l-66-141.51a11.81,11.81,0,0,1,5.7-15.69l26-12.11a11.8,11.8,0,0,1,15.69,5.7l65.87,141.29A11.77,11.77,0,0,1,1496.7,1011Z" transform="translate(-171.63 -279.42)"/><polygon class="cls-27" points="1284.71 740.79 1282.68 740.34 1244.66 731.88 1234.86 729.71 1234.67 729.33 1220.19 698.26 1192.71 639.31 1206.77 612.24 1216.25 594 1217.55 596.76 1283.54 738.27 1284.71 740.79"/><path class="cls-24" d="M1406.32,1008.74h0l-19.62,9.17a3,3,0,0,1-3.93-1.44l-39.55-84.84a3,3,0,0,1,1.42-3.93l19.13-8.91v0l.51-.22.08.18,27.54,59v0Z" transform="translate(-171.63 -279.42)"/><path class="cls-8" d="M1889.21,876.05l-65.93,141.4a11.77,11.77,0,0,1-15.66,5.7l-26-12.11a11.8,11.8,0,0,1-5.72-15.67l65.89-141.29a11.79,11.79,0,0,1,15.68-5.7l26,12.11A11.78,11.78,0,0,1,1889.21,876.05Z" transform="translate(-171.63 -279.42)"/><path class="cls-27" d="M1914,918.73l-.45.93v0a.15.15,0,0,0,0,.08v0l-24.61,52.78s0,.06,0,.08,0,0,0,0,0,0,0,0a0,0,0,0,1,0,0l-16.76,36-.18.39-10.69,2.37-38.09,8.46-1.08.25,1.28-2.76,65.93-141.4,1.24-2.63,9,17.28,14.49,27.87Z" transform="translate(-171.63 -279.42)"/><path class="cls-24" d="M1894.87,919.08h21.66a0,0,0,0,1,0,0v99.53a0,0,0,0,1,0,0h-21.66a3,3,0,0,1-3-3V922a3,3,0,0,1,3-3Z" transform="translate(3048.94 2372.26) rotate(-155)"/><path class="cls-27" d="M1861.17,1011.5a290.26,290.26,0,0,1-189,101.5,19.32,19.32,0,0,0,.16-2.43v-10.8a19,19,0,0,0-2-8.58A268,268,0,0,0,1823.08,1020Z" transform="translate(-171.63 -279.42)"/><path class="cls-27" d="M1929.63,824.07a290.35,290.35,0,0,1-15.7,94.5l-14.49-27.87a268.92,268.92,0,0,0,8.32-66.63c0-148.54-120.41-269-269-269s-269,120.43-269,269a269.8,269.8,0,0,0,8.56,67.59l-14.06,27.07-.08-.18-.51.22a290.43,290.43,0,0,1-15.76-94.7c0-160.63,130.19-290.83,290.82-290.83S1929.63,663.44,1929.63,824.07Z" transform="translate(-171.63 -279.42)"/><path class="cls-14" d="M1496.7,1011l-26,12.11a11.81,11.81,0,0,1-15.56-5.46l-66-141.51a11.81,11.81,0,0,1,5.7-15.69l26-12.11a11.8,11.8,0,0,1,15.69,5.7l65.87,141.29A11.77,11.77,0,0,1,1496.7,1011Z" transform="translate(-171.63 -279.42)"/><path class="cls-14" d="M1823.28,1017.45a11.77,11.77,0,0,1-15.66,5.7l-26-12.11a11.8,11.8,0,0,1-5.72-15.67l65.89-141.29a11.79,11.79,0,0,1,15.68-5.7l26,12.11a11.78,11.78,0,0,1,5.74,15.56Z" transform="translate(-171.63 -279.42)"/><path class="cls-24" d="M1672.33,1099.77v10.8a19.21,19.21,0,0,1-18,19.13l-60.12,3.72a19.18,19.18,0,0,1-20.38-19.14v-18.22a19.19,19.19,0,0,1,20.38-19.16l60.12,3.72a19.2,19.2,0,0,1,18,19.15Z" transform="translate(-171.63 -279.42)"/><ellipse class="cls-10" cx="1517.65" cy="652.59" rx="47.88" ry="26.92"/><ellipse class="cls-10" cx="1500.7" cy="712.18" rx="27.73" ry="18.15"/><ellipse class="cls-10" cx="1434.89" cy="780.26" rx="11.94" ry="7.57"/><ellipse class="cls-10" cx="1472.97" cy="755.55" rx="20.36" ry="12.91"/><ellipse class="cls-10" cx="1462.19" cy="479.44" rx="188.18" ry="138.08"/><circle class="cls-6" cx="1636.03" cy="758.86" r="25.44" transform="translate(-337.5 404.43) rotate(-22.5)"/><circle class="cls-6" cx="1722.33" cy="758.86" r="25.44" transform="translate(-330.93 437.45) rotate(-22.5)"/><circle class="cls-6" cx="1545.32" cy="758.86" r="25.44" transform="translate(-344.4 369.72) rotate(-22.5)"/><polygon class="cls-11" points="1732.82 1287.63 1414.63 1499.13 1096.5 1287.63 1732.82 1287.63"/><polygon class="cls-11" points="1732.82 1287.63 1732.82 1710.64 1096.5 1710.64 1096.5 1287.63 1414.63 1499.13 1732.82 1287.63"/><polygon class="cls-11" points="1096.5 1710.64 1414.63 1499.13 1732.82 1710.64 1096.5 1710.64"/><polygon class="cls-28" points="1757.14 1287.63 1438.95 1499.13 1120.82 1287.63 1757.14 1287.63"/><polygon class="cls-12" points="1757.14 1287.63 1757.14 1710.64 1120.82 1710.64 1120.82 1287.63 1438.95 1499.13 1757.14 1287.63"/><polygon class="cls-28" points="1120.82 1710.64 1438.95 1499.13 1757.14 1710.64 1120.82 1710.64"/><path class="cls-2" d="M1979.1,1567a50.34,50.34,0,1,1-50.32-50.32A50.22,50.22,0,0,1,1979.1,1567Z" transform="translate(-171.63 -279.42)"/><path class="cls-4" d="M1979.1,1567a50.34,50.34,0,1,1-50.32-50.32A50.22,50.22,0,0,1,1979.1,1567Z" transform="translate(-171.63 -279.42)"/><rect class="cls-27" x="117.76" y="1710.71" width="1716.83" height="39.29" rx="17.48"/><path class="cls-1" d="M1836.94,1302.65s18.25-23.26-8.92-34.57c-13.7-5.71-17.58-13.1-13.74-23.47S1813.83,1223,1803,1217s-15.55-23.85-38.23-13.38c0,0-28.61,11.23-27.45,28.7s.92,16-5.19,27.88,6.62,26.11,7.09,33.24c.47,7-2.59,9.21-2.59,9.21Z" transform="translate(-171.63 -279.42)"/><path class="cls-17" d="M1659.58,1460.21h0a26.92,26.92,0,0,0,36.93-8.84l58.08-94.61a26.93,26.93,0,0,0-8.84-36.93h0a26.92,26.92,0,0,0-36.93,8.84l-58.08,94.61A26.94,26.94,0,0,0,1659.58,1460.21Z" transform="translate(-171.63 -279.42)"/><path class="cls-29" d="M1837.26,1493.6s7.83,8.89,10.94,16.14-34,3.26-34,3.26l4-34.84Z" transform="translate(-171.63 -279.42)"/><path class="cls-27" d="M1589.43,1646.23h0a45.42,45.42,0,0,0,63.19,10.41L1794,1555.25a45.41,45.41,0,0,0,10.4-63.19h0a45.42,45.42,0,0,0-63.19-10.4l-141.36,101.39A45.4,45.4,0,0,0,1589.43,1646.23Z" transform="translate(-171.63 -279.42)"/><path class="cls-29" d="M1630.15,1658.92h0a45.42,45.42,0,0,0,63.19,10.41l141.36-101.39a45.41,45.41,0,0,0,10.4-63.19h0a45.41,45.41,0,0,0-63.18-10.41l-141.37,101.39A45.42,45.42,0,0,0,1630.15,1658.92Z" transform="translate(-171.63 -279.42)"/><path class="cls-17" d="M1798.83,1304.89l47,22.13s-10.45,120.13-11.53,133.36,3,33.22,3,33.22H1724.65s1.35-64.82-6.22-82.91c-5.12-12.26-8.64-19.72-5.67-33.76s13-35.11,9.45-59.41l28.9-11.62Z" transform="translate(-171.63 -279.42)"/><polygon class="cls-30" points="1422.17 1588.67 1430.83 1558.16 1383.78 1551.37 1379.97 1582.14 1422.17 1588.67"/><path class="cls-30" d="M1751.1,1251.27v54.64a16,16,0,0,0,.13,1.74c.56,4.46,3.45,15.92,18.3,15.76,13.56-.16,23-10.13,27.08-15.36a30,30,0,0,0,2.21-3.15l-6.83-53.63Z" transform="translate(-171.63 -279.42)"/><polygon class="cls-30" points="1581.16 1583.35 1539.24 1591.45 1530.36 1564.86 1576.9 1557.92 1581.16 1583.35"/><polygon class="cls-31" points="1579.48 1026.49 1603.78 995.47 1579.48 990.79 1579.48 1026.49"/><path class="cls-30" d="M1750,1284.41c9.67,3.15,23.08-.69,32.57-10.66s30.81-47.27,2.35-64.65-45.31,11.39-46.05,15.84c0,0-.28,15.69-.45,26.75-.06,2.82-.11,5.32-.14,7.2,0,.3,0,.59,0,.86C1738.12,1268.41,1740.32,1281.28,1750,1284.41Z" transform="translate(-171.63 -279.42)"/><path class="cls-17" d="M1892.72,1475.13h0a26.93,26.93,0,0,0,12.65-35.8l-47.86-100.17a26.94,26.94,0,0,0-35.81-12.66h0a26.94,26.94,0,0,0-12.65,35.81l47.86,100.17A26.94,26.94,0,0,0,1892.72,1475.13Z" transform="translate(-171.63 -279.42)"/><path class="cls-27" d="M1638.36,1584.4a43.42,43.42,0,0,1,26.19,55.53l-56.78,204.35-70-10.88,42.55-210.67h0a43.35,43.35,0,0,1,58-38.34Z" transform="translate(-171.63 -279.42)"/><polygon class="cls-1" points="1588.44 1615.4 1568.6 1618.9 1565.07 1606.32 1556.53 1621.03 1509.72 1629.29 1539.24 1591.45 1581.16 1583.35 1588.44 1615.4"/><path class="cls-29" d="M1657.22,1587.22a43.41,43.41,0,0,1,50.29,35.22l53.73,218-67,12.94-68.35-204.09h0a43.39,43.39,0,0,1,31.33-62.06Z" transform="translate(-171.63 -279.42)"/><line class="cls-32" x1="1552.47" y1="1597.45" x2="1533.75" y2="1600.69"/><path class="cls-1" d="M1764.74,1203.62s-26,.84-29.28,25.7l13.17.64s-.21-8.52,6.42-12.25c0,0-4.67,6.51-3.07,12.88l15.26,1.51s.67-9.26-.15-12.92c0,0,3.69,8.46,3.8,13.52l10.74,2.94s-.07,8.64,3.82,11.75,9.08,17,9.08,17,11.14-30.56,6.22-40.3S1787,1198.69,1764.74,1203.62Z" transform="translate(-171.63 -279.42)"/><line class="cls-32" x1="1549.08" y1="1604.7" x2="1530.36" y2="1607.94"/><polygon class="cls-1" points="1418.6 1620.9 1398.71 1617.7 1399.5 1604.65 1386.6 1615.75 1339.67 1608.21 1379.97 1582.14 1422.17 1588.67 1418.6 1620.9"/><line class="cls-32" x1="1390.5" y1="1592.14" x2="1371.74" y2="1589.07"/><line class="cls-32" x1="1384.92" y1="1597.88" x2="1366.17" y2="1594.81"/><path class="cls-33" d="M1746.56,1519.7s-74.4,52.46-88.78,62.46-35.62,21.31-36.44,45.34,23.48,77.47,23.48,77.47" transform="translate(-171.63 -279.42)"/><path class="cls-30" d="M1787.14,1254.66c-1.68,5.11-1.64,8.39,2.37,9.71a9.22,9.22,0,0,0,11.24-5.95c1.68-5.11-.21-10.32-4.22-11.64S1788.82,1249.55,1787.14,1254.66Z" transform="translate(-171.63 -279.42)"/><path class="cls-34" d="M1797.3,1251.92s-6.43-.3-7,5.14a6.54,6.54,0,0,1,5.32-1.36" transform="translate(-171.63 -279.42)"/><path class="cls-1" d="M1763.38,1247.28c0,2.08-1.07,3.77-2.41,3.78s-2.45-1.67-2.46-3.75,1.07-3.77,2.41-3.78S1763.36,1245.2,1763.38,1247.28Z" transform="translate(-171.63 -279.42)"/><path class="cls-1" d="M1745.62,1245.78c0,2.07-1.06,3.76-2.41,3.77s-2.44-1.67-2.45-3.75,1.06-3.76,2.41-3.77S1745.61,1243.7,1745.62,1245.78Z" transform="translate(-171.63 -279.42)"/><path class="cls-10" d="M1756.81,1271.4a4.7,4.7,0,0,1-6-2.9l8.88-3.08A4.7,4.7,0,0,1,1756.81,1271.4Z" transform="translate(-171.63 -279.42)"/><path class="cls-35" d="M1768.08,1243.08s-4.2-5.15-9-3.25" transform="translate(-171.63 -279.42)"/><path class="cls-35" d="M1745.22,1239s-3-.54-6.24,2.76" transform="translate(-171.63 -279.42)"/><path class="cls-35" d="M1751.9,1246s-.18,10.29-6.21,11.58a12.77,12.77,0,0,0,4.34,2.45" transform="translate(-171.63 -279.42)"/><path class="cls-36" d="M1760.09,1258.61c.51,2,3.89,2.82,7.55,1.88s6.23-3.3,5.72-5.28-3.88-2.82-7.55-1.88S1759.59,1256.63,1760.09,1258.61Z" transform="translate(-171.63 -279.42)"/><path class="cls-36" d="M1738.27,1258.89c2.21.08,4-.61,4.42-2,.57-1.75-1.28-3.93-4.28-5.25C1738.35,1254.51,1738.3,1257,1738.27,1258.89Z" transform="translate(-171.63 -279.42)"/><path class="cls-30" d="M1699,1444.46c6.44-14.85,1-31.65-12.11-37.34l-119.49-34a88.18,88.18,0,0,1-11.14-6.93c-7.5-5.71-29.68-18.84-31.54-15.63s11.5,15.28,9.61,16-13.76-5.86-18.6-9.06-14.12-11.74-17.31-10.58-2.74,6.15-2.74,6.15-3.14-3.7-5.07-1.29,1.57,9.34,1.57,9.34-1.53-2.23-3,.95,7.29,11.71,7.29,11.71a2.19,2.19,0,0,0-3,1.6c-.78,2.56,11.95,12.5,23,16.5,9.9,3.57,34.35,9.44,39.49,10.66l107.5,58.56C1676.52,1466.79,1692.51,1459.3,1699,1444.46Z" transform="translate(-171.63 -279.42)"/><line class="cls-37" x1="1664.85" y1="1140.31" x2="1648.91" y2="1106.94"/><polygon class="cls-38" points="1594.76 1277.53 1636.87 1240.28 1512.31 1240.28 1465.98 1277.53 1594.76 1277.53"/><path class="cls-39" d="M1788.34,1266.07a4,4,0,1,0,3.93-4A4,4,0,0,0,1788.34,1266.07Z" transform="translate(-171.63 -279.42)"/><polygon class="cls-40" points="1465.98 1277.53 1594.76 1277.53 1561.15 1181.1 1432.37 1181.1 1465.98 1277.53"/><polygon class="cls-38" points="1593.36 1272.85 1635.47 1235.6 1510.91 1235.6 1464.57 1272.85 1593.36 1272.85"/><polygon class="cls-40" points="1468.41 1275.4 1597.19 1275.4 1563.58 1178.96 1434.8 1178.96 1468.41 1275.4"/><polygon class="cls-38" points="1434.8 1178.96 1432.37 1181.1 1561.15 1181.1 1594.76 1277.53 1597.19 1275.4 1563.58 1178.96 1434.8 1178.96"/><polygon class="cls-7" points="1635.47 1235.6 1636.87 1240.28 1594.76 1277.53 1593.13 1272.85 1635.47 1235.6"/><path class="cls-38" d="M1665.49,1509.83c0,3.49,6.39,6.32,14.27,6.32s14.28-2.83,14.28-6.32-6.39-6.32-14.28-6.32S1665.49,1506.34,1665.49,1509.83Z" transform="translate(-171.63 -279.42)"/><path class="cls-30" d="M1905.47,1436.54c-7.59-14.29-24.13-20.5-36.75-13.79l-101,72.28a87.9,87.9,0,0,1-12.36,4.41c-9.14,2.3-33.23,11.46-31.88,14.92s19.12.53,18.5,2.44-13.17,7.12-18.69,8.91-18,3.72-19,6.94,3.09,6,3.09,6-4.84.15-4.16,3.16,8.29,4.59,8.29,4.59-2.71-.19-1.13,2.94,13.7,1.6,13.7,1.6a2.19,2.19,0,0,0-.65,3.37c1.52,2.21,17.23-1.56,27.26-7.74,9-5.51,28.79-21,32.94-24.24l112.79-47.59C1909,1468,1913.07,1450.84,1905.47,1436.54Z" transform="translate(-171.63 -279.42)"/><path class="cls-37" d="M1718.82,1411.73s-8.46-17.81-7.09-27,8.91-34.24,9.9-41.91" transform="translate(-171.63 -279.42)"/><path class="cls-6" d="M785,641.22c-3.3-4.31-14.65-14-21.84-13.14-6.25.74-10.32,10.84-16.61,11.11-4.18.17-12.83-3.79-19.09-12,0,0-13.4-14.41-12.52-21.41s12.38-8.11,12.75-17.62c.21-5.09-7.54-18.41-13.87-22.82a6.69,6.69,0,0,0-7.73,0c-5.82,4.19-17.8,15-16.34,32.21,1.91,22.65,21.88,41.16,21.88,41.16s19.7,22.19,37.27,25.69c19.16,3.82,29.86-4.12,35.22-10.7S788.34,645.53,785,641.22Z" transform="translate(-171.63 -279.42)"/><path class="cls-9" d="M334,939.31l18.56-18.43a25.85,25.85,0,0,0,1.9-2,17.71,17.71,0,0,0,1.63-2.26,11.36,11.36,0,0,0,1.14-2.48,8.65,8.65,0,0,0,.43-2.75,7.45,7.45,0,0,0-.62-3.07,6.84,6.84,0,0,0-1.7-2.32,7.82,7.82,0,0,0-2.55-1.47,9.19,9.19,0,0,0-3.11-.52,8.38,8.38,0,0,0-5.62,1.89,8.59,8.59,0,0,0-2.81,5.23l-6.8-.59a14.66,14.66,0,0,1,1.8-5.32,12.72,12.72,0,0,1,3.33-3.76,13.65,13.65,0,0,1,4.58-2.22,20.71,20.71,0,0,1,5.59-.72,19.2,19.2,0,0,1,5.65.81,14,14,0,0,1,4.64,2.42,11.31,11.31,0,0,1,3.14,4,12.82,12.82,0,0,1,1.15,5.59,13,13,0,0,1-.69,4.28,18.31,18.31,0,0,1-1.8,3.76,22.62,22.62,0,0,1-2.55,3.33q-1.44,1.57-3,3.07L341,940.49h23.27V946H334Z" transform="translate(-171.63 -279.42)"/><path class="cls-9" d="M389.24,935.78H369.5v-6.4l18.44-29.68h7.58v30.59h6.54v5.49h-6.54V946h-6.28Zm0-28.62h-.13L375,930.29h14.25Z" transform="translate(-171.63 -279.42)"/><path class="cls-9" d="M408.2,948.86l-4.58-1.7,20.92-50.33,4.51,1.7Z" transform="translate(-171.63 -279.42)"/><path class="cls-9" d="M454.22,905.19H431.8V899.7h29.08v5.36L442.45,946h-7.06Z" transform="translate(-171.63 -279.42)"/><path class="cls-9" d="M360.14,999.17a84.94,84.94,0,1,1,86.29-7l-2.79-4a80.08,80.08,0,1,0-81.37,6.57Z" transform="translate(-171.63 -279.42)"/><polygon class="cls-9" points="265.2 716.35 288.59 714.04 274.89 694.94 265.2 716.35"/><path class="cls-10" d="M1665.87,1299.14c0,11.07-7.8,20.77-19.53,26.25a52.25,52.25,0,0,1-22.06,4.71,54.41,54.41,0,0,1-13.4-1.65l-30.59,13.08,8.77-25.91a25.39,25.39,0,0,1-6.39-16.48c0-17.1,18.63-31,41.61-31,16.43,0,30.63,7.1,37.39,17.39A24.57,24.57,0,0,1,1665.87,1299.14Z" transform="translate(-171.63 -279.42)"/><path class="cls-10" d="M1859.21,1172.44c-8.5-2.24-16.81-4.77-24.1-7.29a12.17,12.17,0,0,0-3.82-.93c-15-.56-27.74-11.58-27.74-31.85s12.32-33.16,29.32-33.16,28.21,13.27,28.21,31.85c0,16.16-7.47,26.53-17.93,30.17v.37c6.25,1.59,13.08,3.09,18.4,4Zm-6.73-41c0-12.61-6.53-25.6-19.88-25.6-13.74,0-20.46,12.71-20.37,26.34-.09,13.36,7.29,25.41,20,25.41C1845.21,1157.59,1852.48,1145.82,1852.48,1131.44Z" transform="translate(-171.63 -279.42)"/><path class="cls-6" d="M993.06,607.71l-3.42-1.6v0a50.59,50.59,0,1,0-95.71,0h0l-3.33,1.55a.51.51,0,0,0-.24.68l6.88,14.76a.51.51,0,0,0,.68.25l3.41-1.6,0,.07,1.7.38,6.62,1.47.35.08s1.49,1,2.5.51L917,622.2a2,2,0,0,0,1-2.72L906.57,594.9a2,2,0,0,0-2.72-1L899.33,596c-1,.47-1.22,2.24-1.22,2.24l-1.65,3.18a46.78,46.78,0,1,1,90.64-.17l-1.57-3s-.19-1.77-1.21-2.24l-4.52-2.11a2.05,2.05,0,0,0-2.73,1l-11.46,24.58a2,2,0,0,0,1,2.72l4.51,2.11c1,.48,2.51-.51,2.51-.51l.18,0a46.66,46.66,0,0,1-26.57,12.39,3.32,3.32,0,0,0-2.78-1.84L934,633.66a3.34,3.34,0,0,0-3,1.55,3.3,3.3,0,0,0-.51,1.78v3.17a3.33,3.33,0,0,0,3.54,3.33l10.46-.65a3.31,3.31,0,0,0,3.1-2.9,50.51,50.51,0,0,0,32.88-17.66l1.86-.41,0-.06,3.41,1.59a.52.52,0,0,0,.69-.25l6.88-14.76A.51.51,0,0,0,993.06,607.71Zm-3.46-1.51-.05.11h0Zm-.05.12h0Z" transform="translate(-171.63 -279.42)"/><circle class="cls-2" cx="736.71" cy="941.61" r="76.59" transform="translate(-390.5 1380.7) rotate(-88.9)"/><circle class="cls-4" cx="746.97" cy="941.61" r="76.59" transform="translate(-618.67 524.57) rotate(-45)"/><path class="cls-10" d="M787.29,959.87c-2.68-3.49-11.89-11.36-17.72-10.66-5.07.61-8.37,8.8-13.48,9-3.39.14-10.41-3.07-15.48-9.73,0,0-10.87-11.69-10.15-17.37s10-6.58,10.34-14.29c.16-4.13-6.12-14.93-11.25-18.52a5.43,5.43,0,0,0-6.27,0c-4.73,3.39-14.44,12.15-13.26,26.13,1.55,18.38,17.75,33.38,17.75,33.38s16,18,30.23,20.85c15.55,3.1,24.23-3.34,28.57-8.68S790,963.37,787.29,959.87Z" transform="translate(-171.63 -279.42)"/><rect class="cls-6" x="146.12" y="254.74" width="52.73" height="52.73"/><rect class="cls-6" x="146.12" y="318.02" width="52.73" height="52.73"/><rect class="cls-6" x="146.12" y="381.3" width="52.73" height="52.73"/><polyline class="cls-41" points="149.19 284 166.54 299.31 194.09 264.61"/><polyline class="cls-41" points="149.19 346.94 166.54 362.25 194.09 327.55"/><line class="cls-41" x1="150.55" y1="386.4" x2="192.05" y2="427.91"/><line class="cls-41" x1="192.05" y1="386.4" x2="150.55" y2="427.91"/><rect class="cls-6" x="217.57" y="254.74" width="195.24" height="9.87"/><rect class="cls-6" x="217.57" y="272.09" width="195.24" height="9.87"/><rect class="cls-6" x="217.57" y="289.44" width="108.65" height="9.87"/><rect class="cls-6" x="217.57" y="318.02" width="195.24" height="9.87"/><rect class="cls-6" x="217.57" y="335.37" width="195.24" height="9.87"/><rect class="cls-6" x="217.57" y="352.72" width="108.65" height="9.87"/><rect class="cls-6" x="217.57" y="381.3" width="195.24" height="9.87"/><rect class="cls-6" x="217.57" y="398.65" width="195.24" height="9.87"/><rect class="cls-6" x="217.57" y="416" width="108.65" height="9.87"/></svg>